<?xml version="1.0" standalone="no"?><!-- Generator: Gravit.io --><svg xmlns="http://www.w3.org/2000/svg" xmlns:xlink="http://www.w3.org/1999/xlink" style="isolation:isolate" viewBox="0 0 184.252 99.213" width="184.252" height="99.213"><defs><clipPath id="_clipPath_uoGEUhEml1CmVyPofKqNSnV8ZhBCmvPK"><rect width="184.252" height="99.213"/></clipPath></defs><g clip-path="url(#_clipPath_uoGEUhEml1CmVyPofKqNSnV8ZhBCmvPK)"><g><path d=" M 14.173 14.173 L 170.079 14.173 L 170.079 85.039 L 14.173 85.039 L 14.173 70.866 L 24.803 70.866 L 24.803 28.346 L 14.173 28.346 L 14.173 14.173 Z " fill="none" vector-effect="non-scaling-stroke" stroke-width="0.001" stroke="rgb(0,0,0)" stroke-linejoin="miter" stroke-linecap="square" stroke-miterlimit="3"/><path d=" M 46.063 28.346 L 46.063 60.236 L 56.693 60.236 L 56.693 28.346 L 46.063 28.346 Z " fill="none" vector-effect="non-scaling-stroke" stroke-width="0.001" stroke="rgb(0,0,0)" stroke-linejoin="miter" stroke-linecap="square" stroke-miterlimit="3"/><path d=" M 77.953 70.866 L 88.583 70.866 L 88.583 46.063 L 99.213 46.063 L 99.213 38.976 L 77.953 38.976 L 77.953 70.866 Z " fill="none" vector-effect="non-scaling-stroke" stroke-width="0.001" stroke="rgb(0,0,0)" stroke-linejoin="miter" stroke-linecap="square" stroke-miterlimit="3"/><path d=" M 109.843 70.866 L 120.472 70.866 L 120.472 38.976 L 109.843 38.976 L 109.843 70.866 Z " fill="none" vector-effect="non-scaling-stroke" stroke-width="0.001" stroke="rgb(0,0,0)" stroke-linejoin="miter" stroke-linecap="square" stroke-miterlimit="3"/><path d=" M 131.102 70.866 L 131.102 63.78 L 159.449 63.78 L 159.449 70.866 L 131.102 70.866 Z " fill="none" vector-effect="non-scaling-stroke" stroke-width="0.001" stroke="rgb(0,0,0)" stroke-linejoin="miter" stroke-linecap="square" stroke-miterlimit="3"/><path d=" M 141.732 53.15 L 159.449 53.15 L 159.449 38.976 L 141.732 38.976 L 141.732 53.15 Z " fill="none" vector-effect="non-scaling-stroke" stroke-width="0.001" stroke="rgb(0,0,0)" stroke-linejoin="miter" stroke-linecap="square" stroke-miterlimit="3"/></g><g><line x1="35.433" y1="28.346" x2="46.063" y2="28.346" vector-effect="non-scaling-stroke" stroke-width="1.5" stroke="rgb(0,0,0)" stroke-linejoin="round" stroke-linecap="round" stroke-miterlimit="3"/><line x1="35.433" y1="28.346" x2="35.433" y2="70.866" vector-effect="non-scaling-stroke" stroke-width="1.5" stroke="rgb(0,0,0)" stroke-linejoin="round" stroke-linecap="round" stroke-miterlimit="3"/><line x1="24.803" y1="70.866" x2="77.953" y2="70.866" vector-effect="non-scaling-stroke" stroke-width="1.5" stroke="rgb(0,0,0)" stroke-linejoin="round" stroke-linecap="round" stroke-miterlimit="3"/><line x1="67.323" y1="70.866" x2="67.323" y2="28.346" vector-effect="non-scaling-stroke" stroke-width="1.5" stroke="rgb(0,0,0)" stroke-linejoin="round" stroke-linecap="round" stroke-miterlimit="3"/><line x1="99.213" y1="70.866" x2="99.213" y2="28.346" vector-effect="non-scaling-stroke" stroke-width="1.5" stroke="rgb(0,0,0)" stroke-linejoin="round" stroke-linecap="round" stroke-miterlimit="3"/><line x1="99.213" y1="70.866" x2="88.583" y2="70.866" vector-effect="non-scaling-stroke" stroke-width="1.5" stroke="rgb(0,0,0)" stroke-linejoin="round" stroke-linecap="round" stroke-miterlimit="3"/><line x1="88.583" y1="38.976" x2="88.583" y2="28.346" vector-effect="non-scaling-stroke" stroke-width="1.5" stroke="rgb(0,0,0)" stroke-linejoin="round" stroke-linecap="round" stroke-miterlimit="3"/><line x1="109.843" y1="70.866" x2="99.213" y2="70.866" vector-effect="non-scaling-stroke" stroke-width="1.5" stroke="rgb(0,0,0)" stroke-linejoin="round" stroke-linecap="round" stroke-miterlimit="3"/><line x1="131.102" y1="70.866" x2="120.472" y2="70.866" vector-effect="non-scaling-stroke" stroke-width="1.5" stroke="rgb(0,0,0)" stroke-linejoin="round" stroke-linecap="round" stroke-miterlimit="3"/><line x1="131.102" y1="63.78" x2="131.102" y2="28.346" vector-effect="non-scaling-stroke" stroke-width="1.5" stroke="rgb(0,0,0)" stroke-linejoin="round" stroke-linecap="round" stroke-miterlimit="3"/><line x1="56.693" y1="28.346" x2="170.079" y2="28.346" vector-effect="non-scaling-stroke" stroke-width="1.5" stroke="rgb(0,0,0)" stroke-linejoin="round" stroke-linecap="round" stroke-miterlimit="3"/></g></g></svg>