<?xml version="1.0" encoding="UTF-8" standalone="no"?>
<!-- Generator: Gravit.io -->
<svg xmlns="http://www.w3.org/2000/svg" xmlns:xlink="http://www.w3.org/1999/xlink" style="isolation:isolate" viewBox="0 0 226.772 226.772" width="226.772" height="226.772"><defs><clipPath id="_clipPath_kLZ3n3ih2LEjKYABAdCKdSVYgCCoBa8m"><rect width="226.772" height="226.772"/></clipPath></defs><g clip-path="url(#_clipPath_kLZ3n3ih2LEjKYABAdCKdSVYgCCoBa8m)"><g><circle vector-effect="non-scaling-stroke" cx="113.38582677165354" cy="113.38582677165354" r="100.62992125984252" fill="none" stroke-width="1" stroke="rgb(255,0,0)" stroke-linejoin="miter" stroke-linecap="square" stroke-miterlimit="3"/><path d=" M 34.685 56.536 C 66.061 13.099 126.8 3.308 170.236 34.685 C 213.672 66.061 223.463 126.8 192.087 170.236 C 160.711 213.672 99.972 223.463 56.536 192.087 C 13.099 160.711 3.308 99.972 34.685 56.536 Z " fill="none"/><path d=" M 61.486 30.687 L 64.221 34.722 L 62.643 35.792 L 60.978 33.336 L 59.484 34.348 L 64.852 42.267 L 66.609 41.076 L 67.679 42.655 L 62.417 46.222 L 61.347 44.643 L 63.095 43.458 L 57.727 35.539 L 56.216 36.564 L 57.881 39.02 L 56.32 40.078 L 53.584 36.044 L 61.486 30.687 L 61.486 30.687 Z  M 82.349 20.852 L 85.316 28.938 L 85.316 28.938 Q 85.708 30.007 85.79 30.96 L 85.79 30.96 L 85.79 30.96 Q 85.872 31.913 85.601 32.706 L 85.601 32.706 L 85.601 32.706 Q 85.329 33.499 84.692 34.115 L 84.692 34.115 L 84.692 34.115 Q 84.055 34.731 83.016 35.112 L 83.016 35.112 L 83.016 35.112 Q 81.966 35.497 81.097 35.434 L 81.097 35.434 L 81.097 35.434 Q 80.227 35.371 79.507 34.942 L 79.507 34.942 L 79.507 34.942 Q 78.787 34.512 78.23 33.723 L 78.23 33.723 L 78.23 33.723 Q 77.672 32.933 77.28 31.865 L 77.28 31.865 L 74.321 23.798 L 76.313 23.067 L 79.283 31.16 L 79.283 31.16 Q 79.456 31.632 79.709 32.113 L 79.709 32.113 L 79.709 32.113 Q 79.962 32.594 80.328 32.952 L 80.328 32.952 L 80.328 32.952 Q 80.694 33.31 81.199 33.436 L 81.199 33.436 L 81.199 33.436 Q 81.704 33.562 82.359 33.322 L 82.359 33.322 L 82.359 33.322 Q 83.004 33.085 83.307 32.662 L 83.307 32.662 L 83.307 32.662 Q 83.611 32.239 83.677 31.734 L 83.677 31.734 L 83.677 31.734 Q 83.743 31.229 83.621 30.689 L 83.621 30.689 L 83.621 30.689 Q 83.499 30.149 83.326 29.677 L 83.326 29.677 L 80.356 21.583 L 82.349 20.852 L 82.349 20.852 Z  M 103.127 24.268 L 107.537 29.333 L 104.867 29.634 L 100.817 24.642 L 99.859 24.75 L 100.465 30.13 L 98.356 30.367 L 96.858 17.07 L 101.239 16.577 L 101.239 16.577 Q 103.43 16.33 104.755 17.197 L 104.755 17.197 L 104.755 17.197 Q 106.081 18.064 106.303 20.03 L 106.303 20.03 L 106.303 20.03 Q 106.401 20.907 106.207 21.604 L 106.207 21.604 L 106.207 21.604 Q 106.012 22.302 105.572 22.837 L 105.572 22.837 L 105.572 22.837 Q 105.131 23.371 104.506 23.726 L 104.506 23.726 L 104.506 23.726 Q 103.88 24.08 103.127 24.268 L 103.127 24.268 L 103.127 24.268 Z  M 104.189 20.227 L 104.189 20.227 L 104.189 20.227 Q 104.074 19.208 103.349 18.774 L 103.349 18.774 L 103.349 18.774 Q 102.624 18.34 101.453 18.472 L 101.453 18.472 L 99.18 18.728 L 99.643 22.834 L 101.915 22.578 L 101.915 22.578 Q 103.087 22.446 103.697 21.861 L 103.697 21.861 L 103.697 21.861 Q 104.307 21.277 104.189 20.227 Z  M 126.276 28.032 L 126.123 29.933 L 119.725 29.419 L 119.878 27.518 L 121.983 27.687 L 122.748 18.151 L 120.643 17.982 L 120.795 16.081 L 127.193 16.594 L 127.041 18.495 L 124.864 18.321 L 124.099 27.857 L 126.276 28.032 L 126.276 28.032 Z  M 150.975 23.05 L 146.687 35.726 L 144.356 34.938 L 143.705 24.477 L 140.597 33.666 L 138.586 32.986 L 142.874 20.31 L 145.4 21.164 L 146.011 31.102 L 148.965 22.37 L 150.975 23.05 L 150.975 23.05 Z  M 168.932 40.679 L 168.747 40.963 L 168.747 40.963 Q 168.004 42.107 167.1 42.999 L 167.1 42.999 L 167.1 42.999 Q 166.196 43.891 165.156 44.353 L 165.156 44.353 L 165.156 44.353 Q 164.117 44.814 162.985 44.758 L 162.985 44.758 L 162.985 44.758 Q 161.854 44.701 160.677 43.936 L 160.677 43.936 L 160.677 43.936 Q 159.5 43.171 158.999 42.155 L 158.999 42.155 L 158.999 42.155 Q 158.499 41.139 158.496 39.999 L 158.496 39.999 L 158.496 39.999 Q 158.493 38.86 158.945 37.662 L 158.945 37.662 L 158.945 37.662 Q 159.398 36.465 160.13 35.338 L 160.13 35.338 L 160.13 35.338 Q 160.862 34.212 161.772 33.311 L 161.772 33.311 L 161.772 33.311 Q 162.682 32.411 163.728 31.941 L 163.728 31.941 L 163.728 31.941 Q 164.774 31.471 165.908 31.517 L 165.908 31.517 L 165.908 31.517 Q 167.041 31.563 168.221 32.329 L 168.221 32.329 L 168.221 32.329 Q 168.556 32.548 168.848 32.872 L 168.848 32.872 L 168.848 32.872 Q 169.139 33.196 169.332 33.596 L 169.332 33.596 L 169.332 33.596 Q 169.525 33.997 169.586 34.44 L 169.586 34.44 L 169.586 34.44 Q 169.647 34.883 169.51 35.32 L 169.51 35.32 L 170.37 33.996 L 171.97 35.035 L 169.382 39.016 L 167.783 37.976 L 167.783 37.976 Q 168.124 37.452 168.265 36.877 L 168.265 36.877 L 168.265 36.877 Q 168.406 36.303 168.335 35.754 L 168.335 35.754 L 168.335 35.754 Q 168.263 35.206 167.973 34.731 L 167.973 34.731 L 167.973 34.731 Q 167.683 34.255 167.184 33.931 L 167.184 33.931 L 167.184 33.931 Q 166.428 33.439 165.7 33.505 L 165.7 33.505 L 165.7 33.505 Q 164.972 33.57 164.289 33.983 L 164.289 33.983 L 164.289 33.983 Q 163.605 34.395 163.002 35.069 L 163.002 35.069 L 163.002 35.069 Q 162.399 35.742 161.907 36.499 L 161.907 36.499 L 161.907 36.499 Q 161.415 37.257 161.044 38.081 L 161.044 38.081 L 161.044 38.081 Q 160.673 38.904 160.567 39.687 L 160.567 39.687 L 160.567 39.687 Q 160.462 40.469 160.711 41.157 L 160.711 41.157 L 160.711 41.157 Q 160.96 41.845 161.716 42.337 L 161.716 42.337 L 161.716 42.337 Q 162.808 43.046 163.932 42.784 L 163.932 42.784 L 163.932 42.784 Q 165.057 42.521 166.259 41.217 L 166.259 41.217 L 163.895 39.681 L 164.934 38.081 L 168.932 40.679 L 168.932 40.679 Z  M 188.705 51.025 L 182.627 56.641 L 182.627 56.641 Q 180.759 58.367 178.997 58.522 L 178.997 58.522 L 178.997 58.522 Q 177.235 58.678 175.725 57.043 L 175.725 57.043 L 175.725 57.043 Q 174.514 55.733 174.378 54.211 L 174.378 54.211 L 174.378 54.211 Q 174.243 52.689 175.289 51.066 L 175.289 51.066 L 177.11 51.98 L 177.11 51.98 Q 176.431 53.013 176.392 53.963 L 176.392 53.963 L 176.392 53.963 Q 176.353 54.913 177.126 55.749 L 177.126 55.749 L 177.126 55.749 Q 177.592 56.254 178.099 56.386 L 178.099 56.386 L 178.099 56.386 Q 178.605 56.518 179.122 56.382 L 179.122 56.382 L 179.122 56.382 Q 179.64 56.246 180.162 55.897 L 180.162 55.897 L 180.162 55.897 Q 180.684 55.547 181.181 55.087 L 181.181 55.087 L 187.264 49.466 L 188.705 51.025 L 188.705 51.025 Z  M 192.984 75.716 L 192.984 75.716 L 192.984 75.716 Q 192.172 76.155 191.387 76.224 L 191.387 76.224 L 191.387 76.224 Q 190.603 76.292 189.905 76.058 L 189.905 76.058 L 189.905 76.058 Q 189.207 75.823 188.619 75.296 L 188.619 75.296 L 188.619 75.296 Q 188.031 74.768 187.631 74.029 L 187.631 74.029 L 187.631 74.029 Q 187.182 73.199 187.121 72.37 L 187.121 72.37 L 187.121 72.37 Q 187.06 71.54 187.49 70.69 L 187.49 70.69 L 186.41 71.274 L 185.503 69.596 L 189.352 67.516 L 190.258 69.194 L 190.258 69.194 Q 189.681 69.506 189.349 69.947 L 189.349 69.947 L 189.349 69.947 Q 189.017 70.389 188.896 70.886 L 188.896 70.886 L 188.896 70.886 Q 188.775 71.382 188.857 71.909 L 188.857 71.909 L 188.857 71.909 Q 188.938 72.436 189.206 72.933 L 189.206 72.933 L 189.206 72.933 Q 189.66 73.771 190.325 74.076 L 190.325 74.076 L 190.325 74.076 Q 190.991 74.381 191.838 73.923 L 191.838 73.923 L 191.838 73.923 Q 192.28 73.684 192.51 73.356 L 192.51 73.356 L 192.51 73.356 Q 192.74 73.028 192.829 72.601 L 192.829 72.601 L 192.829 72.601 Q 192.919 72.173 192.874 71.65 L 192.874 71.65 L 192.874 71.65 Q 192.83 71.126 192.745 70.472 L 192.745 70.472 L 192.745 70.472 Q 192.615 69.715 192.539 68.928 L 192.539 68.928 L 192.539 68.928 Q 192.463 68.142 192.587 67.422 L 192.587 67.422 L 192.587 67.422 Q 192.711 66.703 193.121 66.073 L 193.121 66.073 L 193.121 66.073 Q 193.532 65.443 194.415 64.966 L 194.415 64.966 L 194.415 64.966 Q 195.19 64.547 195.925 64.517 L 195.925 64.517 L 195.925 64.517 Q 196.66 64.487 197.313 64.746 L 197.313 64.746 L 197.313 64.746 Q 197.965 65.005 198.507 65.523 L 198.507 65.523 L 198.507 65.523 Q 199.049 66.04 199.429 66.744 L 199.429 66.744 L 199.429 66.744 Q 199.868 67.556 199.839 68.323 L 199.839 68.323 L 199.839 68.323 Q 199.811 69.09 199.413 69.713 L 199.413 69.713 L 200.469 69.142 L 201.375 70.82 L 197.713 72.799 L 196.806 71.122 L 196.806 71.122 Q 197.844 70.561 198.13 69.701 L 198.13 69.701 L 198.13 69.701 Q 198.417 68.84 197.92 67.92 L 197.92 67.92 L 197.92 67.92 Q 197.481 67.108 196.812 66.776 L 196.812 66.776 L 196.812 66.776 Q 196.143 66.444 195.458 66.815 L 195.458 66.815 L 195.458 66.815 Q 195.106 67.005 194.934 67.279 L 194.934 67.279 L 194.934 67.279 Q 194.761 67.553 194.702 67.929 L 194.702 67.929 L 194.702 67.929 Q 194.643 68.305 194.686 68.806 L 194.686 68.806 L 194.686 68.806 Q 194.73 69.307 194.81 69.951 L 194.81 69.951 L 194.81 69.951 Q 194.936 70.745 194.994 71.565 L 194.994 71.565 L 194.994 71.565 Q 195.052 72.384 194.902 73.141 L 194.902 73.141 L 194.902 73.141 Q 194.752 73.898 194.314 74.566 L 194.314 74.566 L 194.314 74.566 Q 193.877 75.234 192.984 75.716 Z  M 202.594 90.547 L 196.19 97.023 L 195.562 94.623 L 200.706 89.653 L 199.471 89.064 L 194.452 90.377 L 193.915 88.323 L 206.861 84.938 L 207.398 86.991 L 202.318 88.32 L 208.451 91.019 L 209.141 93.658 L 202.594 90.547 L 202.594 90.547 Z  M 199.628 117.523 L 197.721 117.553 L 197.652 113.186 L 199.559 113.156 L 199.571 113.914 L 202.573 112.462 L 199.526 111.105 L 199.538 111.854 L 197.631 111.884 L 197.563 107.557 L 199.47 107.527 L 199.488 108.686 L 204.384 111.213 L 209.054 108.575 L 209.039 107.612 L 210.946 107.582 L 211.013 111.826 L 209.106 111.856 L 209.093 110.995 L 206.141 112.406 L 209.136 113.743 L 209.123 112.902 L 211.03 112.872 L 211.097 117.137 L 209.19 117.167 L 209.174 116.132 L 204.422 113.653 L 199.609 116.334 L 199.628 117.523 L 199.628 117.523 Z  M 194.181 137.991 L 194.699 135.827 L 198.025 135.633 L 199.057 131.325 L 196.175 129.665 L 196.694 127.501 L 208.735 134.676 L 208.166 137.05 L 194.181 137.991 L 194.181 137.991 Z  M 205.728 135.211 L 200.75 132.31 L 199.981 135.521 L 205.728 135.211 L 205.728 135.211 Z  M 188.15 156.44 L 186.455 155.565 L 190.377 147.966 L 202.268 154.102 L 198.347 161.702 L 196.652 160.827 L 199.6 155.114 L 196.301 153.411 L 194.002 157.867 L 192.307 156.993 L 194.607 152.537 L 191.098 150.727 L 188.15 156.44 L 188.15 156.44 Z  M 184.253 180.653 L 174.236 171.781 L 175.643 170.192 L 180.026 174.074 L 182.881 170.85 L 178.498 166.968 L 179.906 165.379 L 189.923 174.251 L 188.516 175.84 L 184.309 172.114 L 181.454 175.338 L 185.66 179.064 L 184.253 180.653 L 184.253 180.653 Z  M 165.442 196.083 L 164.371 194.505 L 165.168 193.963 L 164.241 187.322 L 162.246 184.384 L 160.473 185.587 L 159.402 184.009 L 164.696 180.416 L 165.767 181.993 L 164.003 183.191 L 165.997 186.13 L 171.819 189.448 L 172.617 188.907 L 173.688 190.485 L 170.201 192.852 L 169.13 191.274 L 169.893 190.755 L 166.274 188.454 L 167.094 192.656 L 167.857 192.138 L 168.929 193.716 L 165.442 196.083 L 165.442 196.083 Z  M 145.458 205.826 L 144.716 204.069 L 150.638 201.567 L 149.193 198.147 L 144.574 200.099 L 143.832 198.342 L 148.451 196.391 L 146.172 190.997 L 148.128 190.171 L 153.335 202.497 L 145.458 205.826 L 145.458 205.826 Z  M 122.836 210.546 L 120.645 210.793 L 121.207 197.264 L 123.377 197.019 L 125.195 202.624 L 125.7 196.758 L 127.871 196.513 L 131.426 209.579 L 129.235 209.826 L 127.004 201.007 L 126.617 206.272 L 124.599 206.499 L 123.081 201.448 L 122.836 210.546 L 122.836 210.546 Z  M 98.316 205.834 L 98.316 205.834 L 98.316 205.834 Q 98.573 203.841 99.908 203.025 L 99.908 203.025 L 99.908 203.025 Q 101.243 202.21 103.409 202.488 L 103.409 202.488 L 105.698 202.783 L 106.388 197.413 L 108.494 197.684 L 106.786 210.956 L 102.413 210.393 L 102.413 210.393 Q 100.226 210.112 99.145 208.954 L 99.145 208.954 L 99.145 208.954 Q 98.064 207.797 98.316 205.834 Z  M 100.418 206.136 L 100.418 206.136 L 100.418 206.136 Q 100.286 207.158 100.886 207.754 L 100.886 207.754 L 100.886 207.754 Q 101.487 208.351 102.636 208.499 L 102.636 208.499 L 104.924 208.793 L 105.454 204.674 L 103.166 204.38 L 103.166 204.38 Q 102.017 204.232 101.285 204.658 L 101.285 204.658 L 101.285 204.658 Q 100.553 205.083 100.418 206.136 Z  M 86.792 200.648 L 86.792 200.648 L 86.792 200.648 Q 86.298 201.897 85.571 202.955 L 85.571 202.955 L 85.571 202.955 Q 84.844 204.013 83.931 204.677 L 83.931 204.677 L 83.931 204.677 Q 83.018 205.342 81.895 205.521 L 81.895 205.521 L 81.895 205.521 Q 80.771 205.7 79.484 205.191 L 79.484 205.191 L 79.484 205.191 Q 78.196 204.682 77.498 203.783 L 77.498 203.783 L 77.498 203.783 Q 76.801 202.884 76.579 201.771 L 76.579 201.771 L 76.579 201.771 Q 76.358 200.657 76.56 199.391 L 76.56 199.391 L 76.56 199.391 Q 76.763 198.125 77.257 196.875 L 77.257 196.875 L 77.257 196.875 Q 77.713 195.721 78.339 194.738 L 78.339 194.738 L 78.339 194.738 Q 78.964 193.755 79.776 193.082 L 79.776 193.082 L 79.776 193.082 Q 80.587 192.41 81.552 192.102 L 81.552 192.102 L 81.552 192.102 Q 82.517 191.794 83.644 192.04 L 83.644 192.04 L 83.644 192.04 Q 83.922 191.058 83.373 190.438 L 83.373 190.438 L 83.373 190.438 Q 82.824 189.819 81.555 189.317 L 81.555 189.317 L 81.555 189.317 Q 81.384 189.25 81.175 189.178 L 81.175 189.178 L 81.175 189.178 Q 80.966 189.107 80.747 189.02 L 80.747 189.02 L 81.44 187.265 L 81.44 187.265 Q 81.724 187.355 81.981 187.446 L 81.981 187.446 L 81.981 187.446 Q 82.237 187.536 82.476 187.63 L 82.476 187.63 L 82.476 187.63 Q 84.402 188.391 85.255 189.748 L 85.255 189.748 L 85.255 189.748 Q 86.108 191.105 85.668 192.916 L 85.668 192.916 L 85.668 192.916 Q 86.55 193.529 87.011 194.4 L 87.011 194.4 L 87.011 194.4 Q 87.472 195.272 87.565 196.29 L 87.565 196.29 L 87.565 196.29 Q 87.659 197.308 87.444 198.425 L 87.444 198.425 L 87.444 198.425 Q 87.229 199.542 86.792 200.648 Z  M 84.818 199.868 L 84.818 199.868 L 84.818 199.868 Q 85.149 199.029 85.352 198.138 L 85.352 198.138 L 85.352 198.138 Q 85.555 197.248 85.507 196.463 L 85.507 196.463 L 85.507 196.463 Q 85.459 195.678 85.082 195.055 L 85.082 195.055 L 85.082 195.055 Q 84.705 194.432 83.866 194.1 L 83.866 194.1 L 83.866 194.1 Q 83.027 193.769 82.326 193.966 L 82.326 193.966 L 82.326 193.966 Q 81.625 194.163 81.053 194.703 L 81.053 194.703 L 81.053 194.703 Q 80.482 195.244 80.021 196.032 L 80.021 196.032 L 80.021 196.032 Q 79.561 196.82 79.229 197.66 L 79.229 197.66 L 79.229 197.66 Q 78.898 198.499 78.699 199.379 L 78.699 199.379 L 78.699 199.379 Q 78.499 200.26 78.546 201.05 L 78.546 201.05 L 78.546 201.05 Q 78.592 201.84 78.978 202.467 L 78.978 202.467 L 78.978 202.467 Q 79.364 203.093 80.184 203.417 L 80.184 203.417 L 80.184 203.417 Q 81.548 203.956 82.75 203.009 L 82.75 203.009 L 82.75 203.009 Q 83.951 202.061 84.818 199.868 Z  M 60.442 183.788 L 60.442 183.788 L 60.442 183.788 Q 61.436 182.259 62.979 182.162 L 62.979 182.162 L 62.979 182.162 Q 64.522 182.064 66.439 183.311 L 66.439 183.311 L 70.015 185.635 L 62.724 196.855 L 59.345 194.659 L 59.345 194.659 Q 58.64 194.201 58.036 193.643 L 58.036 193.643 L 58.036 193.643 Q 57.432 193.086 57.102 192.418 L 57.102 192.418 L 57.102 192.418 Q 56.771 191.751 56.808 190.96 L 56.808 190.96 L 56.808 190.96 Q 56.844 190.17 57.437 189.258 L 57.437 189.258 L 57.437 189.258 Q 57.991 188.406 58.884 187.983 L 58.884 187.983 L 58.884 187.983 Q 59.776 187.56 60.855 187.82 L 60.855 187.82 L 60.855 187.82 Q 59.998 186.786 59.86 185.841 L 59.86 185.841 L 59.86 185.841 Q 59.722 184.896 60.442 183.788 Z  M 59.349 190.174 L 59.349 190.174 L 59.349 190.174 Q 59.029 190.667 59.011 191.098 L 59.011 191.098 L 59.011 191.098 Q 58.994 191.529 59.177 191.888 L 59.177 191.888 L 59.177 191.888 Q 59.36 192.247 59.687 192.533 L 59.687 192.533 L 59.687 192.533 Q 60.014 192.82 60.384 193.06 L 60.384 193.06 L 61.983 194.099 L 64.006 190.987 L 62.407 189.948 L 62.407 189.948 Q 62.037 189.707 61.642 189.524 L 61.642 189.524 L 61.642 189.524 Q 61.247 189.342 60.846 189.32 L 60.846 189.32 L 60.846 189.32 Q 60.444 189.299 60.057 189.49 L 60.057 189.49 L 60.057 189.49 Q 59.669 189.681 59.349 190.174 Z  M 62.086 185.116 L 62.086 185.116 L 62.086 185.116 Q 61.538 185.959 61.864 186.746 L 61.864 186.746 L 61.864 186.746 Q 62.191 187.533 63.248 188.22 L 63.248 188.22 L 65.045 189.388 L 67.196 186.078 L 65.4 184.91 L 65.4 184.91 Q 64.342 184.222 63.488 184.248 L 63.488 184.248 L 63.488 184.248 Q 62.633 184.274 62.086 185.116 Z  M 45.369 170.845 L 44.696 169.15 L 44.696 169.15 Q 45.587 168.662 46.453 168.42 L 46.453 168.42 L 46.453 168.42 Q 47.32 168.177 48.132 168.23 L 48.132 168.23 L 48.132 168.23 Q 48.944 168.282 49.701 168.65 L 49.701 168.65 L 49.701 168.65 Q 50.458 169.019 51.147 169.764 L 51.147 169.764 L 51.147 169.764 Q 52.1 170.796 52.335 171.904 L 52.335 171.904 L 52.335 171.904 Q 52.57 173.012 52.281 174.127 L 52.281 174.127 L 52.281 174.127 Q 51.992 175.243 51.263 176.289 L 51.263 176.289 L 51.263 176.289 Q 50.533 177.335 49.546 178.246 L 49.546 178.246 L 49.546 178.246 Q 48.56 179.158 47.456 179.807 L 47.456 179.807 L 47.456 179.807 Q 46.353 180.456 45.238 180.654 L 45.238 180.654 L 45.238 180.654 Q 44.123 180.853 43.056 180.552 L 43.056 180.552 L 43.056 180.552 Q 41.99 180.252 41.063 179.249 L 41.063 179.249 L 41.063 179.249 Q 40.763 178.924 40.54 178.516 L 40.54 178.516 L 40.54 178.516 Q 40.316 178.108 40.221 177.665 L 40.221 177.665 L 40.221 177.665 Q 40.125 177.222 40.175 176.777 L 40.175 176.777 L 40.175 176.777 Q 40.225 176.332 40.465 175.943 L 40.465 175.943 L 39.306 177.014 L 38.011 175.613 L 41.732 172.176 L 43.026 173.577 L 43.026 173.577 Q 42.567 174.001 42.223 174.528 L 42.223 174.528 L 42.223 174.528 Q 41.879 175.055 41.762 175.624 L 41.762 175.624 L 41.762 175.624 Q 41.646 176.192 41.775 176.771 L 41.775 176.771 L 41.775 176.771 Q 41.905 177.349 42.378 177.861 L 42.378 177.861 L 42.378 177.861 Q 42.99 178.524 43.704 178.646 L 43.704 178.646 L 43.704 178.646 Q 44.418 178.769 45.182 178.537 L 45.182 178.537 L 45.182 178.537 Q 45.947 178.305 46.696 177.801 L 46.696 177.801 L 46.696 177.801 Q 47.446 177.297 48.11 176.684 L 48.11 176.684 L 48.11 176.684 Q 48.773 176.071 49.343 175.356 L 49.343 175.356 L 49.343 175.356 Q 49.913 174.642 50.208 173.91 L 50.208 173.91 L 50.208 173.91 Q 50.502 173.178 50.43 172.449 L 50.43 172.449 L 50.43 172.449 Q 50.358 171.721 49.746 171.059 L 49.746 171.059 L 49.746 171.059 Q 48.862 170.102 47.775 170.151 L 47.775 170.151 L 47.775 170.151 Q 46.687 170.2 45.369 170.845 L 45.369 170.845 L 45.369 170.845 Z  M 33.058 152.038 L 37.324 149.731 L 41.392 157.253 L 39.731 158.152 L 28.45 157.443 L 30.391 161.033 L 32.956 159.646 L 33.864 161.324 L 29.621 163.618 L 25.636 156.249 L 27.323 155.337 L 38.495 155.906 L 36.539 152.289 L 33.95 153.688 L 33.058 152.038 L 33.058 152.038 Z  M 18.2 134.939 L 17.637 132.787 L 31.639 133.441 L 32.251 135.783 L 20.359 143.203 L 19.797 141.051 L 29.244 135.307 L 18.2 134.939 L 18.2 134.939 Z  M 22.62 119.733 L 22.62 119.733 L 22.62 119.733 Q 21.277 119.755 20.022 119.488 L 20.022 119.488 L 20.022 119.488 Q 18.766 119.221 17.803 118.631 L 17.803 118.631 L 17.803 118.631 Q 16.84 118.042 16.245 117.072 L 16.245 117.072 L 16.245 117.072 Q 15.65 116.102 15.628 114.718 L 15.628 114.718 L 15.628 114.718 Q 15.606 113.334 16.169 112.345 L 16.169 112.345 L 16.169 112.345 Q 16.733 111.357 17.676 110.727 L 17.676 110.727 L 17.676 110.727 Q 18.62 110.096 19.866 109.799 L 19.866 109.799 L 19.866 109.799 Q 21.113 109.502 22.456 109.481 L 22.456 109.481 L 22.456 109.481 Q 23.799 109.459 25.049 109.716 L 25.049 109.716 L 25.049 109.716 Q 26.299 109.973 27.278 110.562 L 27.278 110.562 L 27.278 110.562 Q 28.256 111.152 28.851 112.122 L 28.851 112.122 L 28.851 112.122 Q 29.446 113.091 29.469 114.496 L 29.469 114.496 L 29.469 114.496 Q 29.491 115.901 28.928 116.889 L 28.928 116.889 L 28.928 116.889 Q 28.364 117.877 27.405 118.503 L 27.405 118.503 L 27.405 118.503 Q 26.446 119.129 25.205 119.42 L 25.205 119.42 L 25.205 119.42 Q 23.963 119.712 22.62 119.733 Z  M 22.591 117.611 L 22.591 117.611 L 22.591 117.611 Q 23.495 117.597 24.395 117.444 L 24.395 117.444 L 24.395 117.444 Q 25.296 117.291 26.004 116.946 L 26.004 116.946 L 26.004 116.946 Q 26.712 116.601 27.144 116.015 L 27.144 116.015 L 27.144 116.015 Q 27.576 115.429 27.562 114.527 L 27.562 114.527 L 27.562 114.527 Q 27.547 113.624 27.097 113.052 L 27.097 113.052 L 27.097 113.052 Q 26.646 112.48 25.928 112.158 L 25.928 112.158 L 25.928 112.158 Q 25.209 111.836 24.304 111.712 L 24.304 111.712 L 24.304 111.712 Q 23.398 111.589 22.495 111.603 L 22.495 111.603 L 22.495 111.603 Q 21.592 111.618 20.701 111.77 L 20.701 111.77 L 20.701 111.77 Q 19.811 111.923 19.097 112.268 L 19.097 112.268 L 19.097 112.268 Q 18.384 112.612 17.953 113.209 L 17.953 113.209 L 17.953 113.209 Q 17.521 113.806 17.535 114.687 L 17.535 114.687 L 17.535 114.687 Q 17.558 116.153 18.895 116.901 L 18.895 116.901 L 18.895 116.901 Q 20.231 117.649 22.591 117.611 Z  M 19.216 87.287 L 32.285 90.161 L 31.829 92.234 L 22.986 90.289 L 27.394 92.634 L 27.042 94.236 L 22.061 94.495 L 30.904 96.44 L 30.448 98.513 L 17.379 95.639 L 17.921 93.175 L 24.204 92.772 L 18.669 89.77 L 19.216 87.287 L 19.216 87.287 Z  M 38.587 70.608 L 40.282 71.482 L 36.362 79.082 L 24.47 72.948 L 25.443 71.062 L 35.64 76.322 L 38.587 70.608 L 38.587 70.608 Z  M 48.059 50.082 L 48.059 50.082 L 48.059 50.082 Q 49.065 50.973 49.787 51.989 L 49.787 51.989 L 49.787 51.989 Q 50.51 53.006 50.786 54.079 L 50.786 54.079 L 50.786 54.079 Q 51.061 55.152 50.819 56.245 L 50.819 56.245 L 50.819 56.245 Q 50.576 57.339 49.658 58.375 L 49.658 58.375 L 46.775 61.629 L 36.759 52.756 L 39.642 49.502 L 39.642 49.502 Q 40.546 48.481 41.606 48.112 L 41.606 48.112 L 41.606 48.112 Q 42.666 47.743 43.76 47.883 L 43.76 47.883 L 43.76 47.883 Q 44.855 48.024 45.954 48.608 L 45.954 48.608 L 45.954 48.608 Q 47.054 49.191 48.059 50.082 Z  M 46.648 51.667 L 46.648 51.667 L 46.648 51.667 Q 44.911 50.129 43.47 49.907 L 43.47 49.907 L 43.47 49.907 Q 42.028 49.684 41.069 50.767 L 41.069 50.767 L 39.594 52.432 L 46.755 58.776 L 48.231 57.11 L 48.231 57.11 Q 49.189 56.028 48.775 54.607 L 48.775 54.607 L 48.775 54.607 Q 48.361 53.185 46.648 51.667 Z " fill-rule="evenodd" fill="rgb(0,0,0)"/></g><g><g><path d=" M 117.653 96.96 C 123.528 86.848 134.333 80.617 146.028 80.598 C 157.723 80.579 168.549 86.773 174.458 96.866" fill="none" vector-effect="non-scaling-stroke" stroke-width="0.751" stroke="rgb(0,0,0)" stroke-linejoin="round" stroke-linecap="round" stroke-miterlimit="4"/><path d=" M 51.899 96.564 C 51.827 84.723 58.128 73.757 68.395 67.857 C 78.662 61.956 91.309 62.032 101.504 68.056 C 111.699 74.08 117.868 85.121 117.653 96.96" fill="none" vector-effect="non-scaling-stroke" stroke-width="0.751" stroke="rgb(0,0,0)" stroke-linejoin="round" stroke-linecap="round" stroke-miterlimit="4"/><path d=" M 108.712 96.947 C 108.498 85.042 114.738 73.952 125.024 67.954 C 135.31 61.956 148.035 61.988 158.291 68.038 C 168.547 74.087 174.731 85.208 174.458 97.112" fill="none" vector-effect="non-scaling-stroke" stroke-width="0.751" stroke="rgb(0,0,0)" stroke-linejoin="round" stroke-linecap="round" stroke-miterlimit="4"/><path d=" M 66.278 96.825 C 60.671 83.063 64.993 67.251 76.82 58.253 C 88.647 49.256 105.039 49.31 116.807 58.385 C 128.575 67.46 132.792 83.3 127.096 97.026" fill="none" vector-effect="non-scaling-stroke" stroke-width="0.751" stroke="rgb(0,0,0)" stroke-linejoin="round" stroke-linecap="round" stroke-miterlimit="4"/><path d=" M 99.185 96.995 C 93.269 83.194 97.455 67.138 109.356 57.981 C 121.257 48.824 137.85 48.894 149.674 58.151 C 161.497 67.407 165.548 83.498 159.515 97.249" fill="none" vector-effect="non-scaling-stroke" stroke-width="0.751" stroke="rgb(0,0,0)" stroke-linejoin="round" stroke-linecap="round" stroke-miterlimit="4"/><path d=" M 85.081 96.892 C 76.473 83.065 79.286 65.019 91.695 54.467 C 104.103 43.916 122.367 44.04 134.631 54.759 C 146.895 65.478 149.463 83.56 140.668 97.27" fill="none" vector-effect="non-scaling-stroke" stroke-width="0.751" stroke="rgb(0,0,0)" stroke-linejoin="round" stroke-linecap="round" stroke-miterlimit="4"/><line x1="51.548" y1="96.947" x2="174.949" y2="97.363" vector-effect="non-scaling-stroke" stroke-width="0.75" stroke="rgb(0,0,0)" stroke-linejoin="miter" stroke-linecap="butt" stroke-miterlimit="4"/><path d=" M 51.994 96.955 C 57.869 86.843 68.673 80.612 80.369 80.593 C 92.064 80.574 102.889 86.768 108.798 96.861" fill="none" vector-effect="non-scaling-stroke" stroke-width="0.751" stroke="rgb(0,0,0)" stroke-linejoin="round" stroke-linecap="round" stroke-miterlimit="4"/></g><g><path d=" M 117.653 130.039 C 123.528 140.151 134.333 146.382 146.028 146.401 C 157.723 146.421 168.549 140.226 174.458 130.133" fill="none" vector-effect="non-scaling-stroke" stroke-width="0.751" stroke="rgb(0,0,0)" stroke-linejoin="round" stroke-linecap="round" stroke-miterlimit="4"/><path d=" M 51.899 130.435 C 51.827 142.277 58.128 153.242 68.395 159.143 C 78.662 165.043 91.309 164.967 101.504 158.943 C 111.699 152.919 117.868 141.878 117.653 130.039" fill="none" vector-effect="non-scaling-stroke" stroke-width="0.751" stroke="rgb(0,0,0)" stroke-linejoin="round" stroke-linecap="round" stroke-miterlimit="4"/><path d=" M 108.712 130.052 C 108.498 141.957 114.738 153.047 125.024 159.045 C 135.31 165.043 148.035 165.011 158.291 158.962 C 168.547 152.912 174.731 141.791 174.458 129.887" fill="none" vector-effect="non-scaling-stroke" stroke-width="0.751" stroke="rgb(0,0,0)" stroke-linejoin="round" stroke-linecap="round" stroke-miterlimit="4"/><path d=" M 66.278 130.174 C 60.671 143.936 64.993 159.748 76.82 168.746 C 88.647 177.743 105.039 177.689 116.807 168.614 C 128.575 159.539 132.792 143.699 127.096 129.974" fill="none" vector-effect="non-scaling-stroke" stroke-width="0.751" stroke="rgb(0,0,0)" stroke-linejoin="round" stroke-linecap="round" stroke-miterlimit="4"/><path d=" M 99.185 130.004 C 93.269 143.805 97.455 159.862 109.356 169.018 C 121.257 178.175 137.85 178.105 149.674 168.849 C 161.497 159.592 165.548 143.501 159.515 129.75" fill="none" vector-effect="non-scaling-stroke" stroke-width="0.751" stroke="rgb(0,0,0)" stroke-linejoin="round" stroke-linecap="round" stroke-miterlimit="4"/><path d=" M 85.081 130.107 C 76.473 143.934 79.286 161.98 91.695 172.532 C 104.103 183.083 122.367 182.959 134.631 172.24 C 146.895 161.521 149.463 143.439 140.668 129.729" fill="none" vector-effect="non-scaling-stroke" stroke-width="0.751" stroke="rgb(0,0,0)" stroke-linejoin="round" stroke-linecap="round" stroke-miterlimit="4"/><line x1="51.512" y1="130.052" x2="174.811" y2="129.636" vector-effect="non-scaling-stroke" stroke-width="0.75" stroke="rgb(0,0,0)" stroke-linejoin="miter" stroke-linecap="butt" stroke-miterlimit="4"/><path d=" M 51.994 130.044 C 57.869 140.156 68.673 146.387 80.369 146.406 C 92.064 146.426 102.889 140.231 108.798 130.138" fill="none" vector-effect="non-scaling-stroke" stroke-width="0.751" stroke="rgb(0,0,0)" stroke-linejoin="round" stroke-linecap="round" stroke-miterlimit="4"/></g><path d=" M 143.847 98.917 C 143.47 98.953 143.108 99.107 142.816 99.359 C 142.426 99.694 142.187 100.182 142.126 100.764 C 142.11 100.922 142.115 101.243 142.137 101.4 C 142.217 101.984 142.442 102.491 142.874 103.059 C 142.979 103.198 143.302 103.561 143.459 103.717 C 143.691 103.947 143.788 104.035 144.474 104.649 C 144.694 104.844 144.881 105.02 145.009 105.149 C 145.145 105.287 145.351 105.523 145.429 105.632 C 145.503 105.735 145.594 105.889 145.631 105.974 C 145.645 106.007 145.66 106.033 145.662 106.033 C 145.665 106.034 145.668 106.026 145.671 106.016 C 145.678 105.986 145.777 105.803 145.833 105.719 C 145.913 105.599 146.007 105.481 146.151 105.323 C 146.362 105.089 146.514 104.945 147.064 104.455 C 147.693 103.895 147.939 103.656 148.225 103.329 C 148.796 102.674 149.09 102.083 149.186 101.396 C 149.208 101.239 149.21 100.84 149.189 100.692 C 149.122 100.219 148.958 99.845 148.68 99.533 C 148.387 99.203 148.005 98.995 147.572 98.929 C 147.445 98.909 147.204 98.91 147.083 98.929 C 146.552 99.014 146.133 99.318 145.871 99.805 C 145.793 99.951 145.719 100.138 145.682 100.288 C 145.673 100.327 145.663 100.357 145.661 100.357 C 145.659 100.357 145.649 100.327 145.64 100.288 C 145.553 99.941 145.359 99.593 145.124 99.367 C 144.876 99.128 144.584 98.983 144.244 98.93 C 144.142 98.914 143.944 98.908 143.847 98.917 Z " fill="none" vector-effect="non-scaling-stroke" stroke-width="1" stroke="rgb(0,0,0)" stroke-linejoin="miter" stroke-linecap="butt" stroke-miterlimit="4"/><path d=" M 93.273 126.133 L 96.133 118.923 L 99.003 126.133 L 96.133 118.923 L 93.273 126.133 L 93.273 126.133 Z  M 94.173 123.863 L 98.093 123.863 L 94.173 123.863 L 94.173 123.863 Z  M 102.236 120.983 L 102.236 124.793 L 102.236 124.793 Q 102.236 124.963 102.326 125.193 L 102.326 125.193 L 102.326 125.193 Q 102.416 125.423 102.621 125.628 L 102.621 125.628 L 102.621 125.628 Q 102.826 125.833 103.156 125.978 L 103.156 125.978 L 103.156 125.978 Q 103.486 126.123 103.966 126.123 L 103.966 126.123 L 103.966 126.123 Q 104.446 126.123 104.811 125.958 L 104.811 125.958 L 104.811 125.958 Q 105.176 125.793 105.426 125.523 L 105.426 125.523 L 105.426 125.523 Q 105.676 125.253 105.801 124.913 L 105.801 124.913 L 105.801 124.913 Q 105.926 124.573 105.926 124.223 L 105.926 124.223 L 105.926 124.223 Q 105.926 124.573 105.801 124.913 L 105.801 124.913 L 105.801 124.913 Q 105.676 125.253 105.426 125.523 L 105.426 125.523 L 105.426 125.523 Q 105.176 125.793 104.811 125.958 L 104.811 125.958 L 104.811 125.958 Q 104.446 126.123 103.966 126.123 L 103.966 126.123 L 103.966 126.123 Q 103.486 126.123 103.156 125.978 L 103.156 125.978 L 103.156 125.978 Q 102.826 125.833 102.621 125.628 L 102.621 125.628 L 102.621 125.628 Q 102.416 125.423 102.326 125.193 L 102.326 125.193 L 102.326 125.193 Q 102.236 124.963 102.236 124.793 L 102.236 124.793 L 102.236 120.983 L 102.236 120.983 Z  M 105.926 120.983 L 105.926 126.123 L 105.926 120.983 L 105.926 120.983 Z  M 113.18 121.923 L 113.18 121.923 L 113.18 121.923 Q 113.19 121.833 113.12 121.668 L 113.12 121.668 L 113.12 121.668 Q 113.05 121.503 112.875 121.348 L 112.875 121.348 L 112.875 121.348 Q 112.7 121.193 112.39 121.068 L 112.39 121.068 L 112.39 121.068 Q 112.08 120.943 111.61 120.923 L 111.61 120.923 L 111.61 120.923 Q 110.66 120.903 110.215 121.193 L 110.215 121.193 L 110.215 121.193 Q 109.77 121.483 109.77 122.063 L 109.77 122.063 L 109.77 122.063 Q 109.77 122.353 109.875 122.553 L 109.875 122.553 L 109.875 122.553 Q 109.98 122.753 110.125 122.878 L 110.125 122.878 L 110.125 122.878 Q 110.27 123.003 110.42 123.063 L 110.42 123.063 L 110.42 123.063 Q 110.57 123.123 110.66 123.153 L 110.66 123.153 L 112.55 123.713 L 112.55 123.713 Q 112.64 123.733 112.785 123.798 L 112.785 123.798 L 112.785 123.798 Q 112.93 123.863 113.065 123.993 L 113.065 123.993 L 113.065 123.993 Q 113.2 124.123 113.3 124.313 L 113.3 124.313 L 113.3 124.313 Q 113.4 124.503 113.4 124.783 L 113.4 124.783 L 113.4 124.783 Q 113.4 125.063 113.26 125.308 L 113.26 125.308 L 113.26 125.308 Q 113.12 125.553 112.88 125.738 L 112.88 125.738 L 112.88 125.738 Q 112.64 125.923 112.31 126.028 L 112.31 126.028 L 112.31 126.028 Q 111.98 126.133 111.61 126.133 L 111.61 126.133 L 111.61 126.133 Q 111.23 126.133 110.885 126.038 L 110.885 126.038 L 110.885 126.038 Q 110.54 125.943 110.28 125.773 L 110.28 125.773 L 110.28 125.773 Q 110.02 125.603 109.86 125.358 L 109.86 125.358 L 109.86 125.358 Q 109.7 125.113 109.7 124.823 L 109.7 124.823 L 109.7 124.823 Q 109.7 125.113 109.86 125.358 L 109.86 125.358 L 109.86 125.358 Q 110.02 125.603 110.28 125.773 L 110.28 125.773 L 110.28 125.773 Q 110.54 125.943 110.885 126.038 L 110.885 126.038 L 110.885 126.038 Q 111.23 126.133 111.61 126.133 L 111.61 126.133 L 111.61 126.133 Q 111.98 126.133 112.31 126.028 L 112.31 126.028 L 112.31 126.028 Q 112.64 125.923 112.88 125.738 L 112.88 125.738 L 112.88 125.738 Q 113.12 125.553 113.26 125.308 L 113.26 125.308 L 113.26 125.308 Q 113.4 125.063 113.4 124.783 L 113.4 124.783 L 113.4 124.783 Q 113.4 124.503 113.3 124.313 L 113.3 124.313 L 113.3 124.313 Q 113.2 124.123 113.065 123.993 L 113.065 123.993 L 113.065 123.993 Q 112.93 123.863 112.785 123.798 L 112.785 123.798 L 112.785 123.798 Q 112.64 123.733 112.55 123.713 L 112.55 123.713 L 110.66 123.153 L 110.66 123.153 Q 110.57 123.123 110.42 123.063 L 110.42 123.063 L 110.42 123.063 Q 110.27 123.003 110.125 122.878 L 110.125 122.878 L 110.125 122.878 Q 109.98 122.753 109.875 122.553 L 109.875 122.553 L 109.875 122.553 Q 109.77 122.353 109.77 122.063 L 109.77 122.063 L 109.77 122.063 Q 109.77 121.483 110.215 121.193 L 110.215 121.193 L 110.215 121.193 Q 110.66 120.903 111.61 120.923 L 111.61 120.923 L 111.61 120.923 Q 112.08 120.943 112.39 121.068 L 112.39 121.068 L 112.39 121.068 Q 112.7 121.193 112.875 121.348 L 112.875 121.348 L 112.875 121.348 Q 113.05 121.503 113.12 121.668 L 113.12 121.668 L 113.12 121.668 Q 113.19 121.833 113.18 121.923 Z  M 118.083 126.083 L 118.083 126.083 L 118.083 126.083 Q 117.903 126.093 117.718 126.093 L 117.718 126.093 L 117.718 126.093 Q 117.533 126.093 117.388 126.038 L 117.388 126.038 L 117.388 126.038 Q 117.243 125.983 117.153 125.848 L 117.153 125.848 L 117.153 125.848 Q 117.063 125.713 117.063 125.463 L 117.063 125.463 L 117.063 119.063 L 117.063 125.463 L 117.063 125.463 Q 117.063 125.713 117.153 125.848 L 117.153 125.848 L 117.153 125.848 Q 117.243 125.983 117.388 126.038 L 117.388 126.038 L 117.388 126.038 Q 117.533 126.093 117.718 126.093 L 117.718 126.093 L 117.718 126.093 Q 117.903 126.093 118.083 126.083 Z  M 116.013 120.953 L 118.103 120.953 L 116.013 120.953 L 116.013 120.953 Z  M 121.727 126.123 L 121.727 120.993 L 121.727 126.123 L 121.727 126.123 Z  M 121.727 119.093 L 121.727 118.913 L 121.727 119.093 L 121.727 119.093 Z  M 130.1 126.133 L 130.1 122.333 L 130.1 122.333 Q 130.1 122.163 130.01 121.933 L 130.01 121.933 L 130.01 121.933 Q 129.92 121.703 129.715 121.498 L 129.715 121.498 L 129.715 121.498 Q 129.51 121.293 129.18 121.148 L 129.18 121.148 L 129.18 121.148 Q 128.85 121.003 128.37 121.003 L 128.37 121.003 L 128.37 121.003 Q 127.89 121.003 127.525 121.168 L 127.525 121.168 L 127.525 121.168 Q 127.16 121.333 126.915 121.603 L 126.915 121.603 L 126.915 121.603 Q 126.67 121.873 126.545 122.218 L 126.545 122.218 L 126.545 122.218 Q 126.42 122.563 126.42 122.903 L 126.42 122.903 L 126.42 122.903 Q 126.42 122.563 126.545 122.218 L 126.545 122.218 L 126.545 122.218 Q 126.67 121.873 126.915 121.603 L 126.915 121.603 L 126.915 121.603 Q 127.16 121.333 127.525 121.168 L 127.525 121.168 L 127.525 121.168 Q 127.89 121.003 128.37 121.003 L 128.37 121.003 L 128.37 121.003 Q 128.85 121.003 129.18 121.148 L 129.18 121.148 L 129.18 121.148 Q 129.51 121.293 129.715 121.498 L 129.715 121.498 L 129.715 121.498 Q 129.92 121.703 130.01 121.933 L 130.01 121.933 L 130.01 121.933 Q 130.1 122.163 130.1 122.333 L 130.1 122.333 L 130.1 126.133 L 130.1 126.133 Z  M 126.42 126.133 L 126.42 121.003 L 126.42 126.133 L 126.42 126.133 Z  M 133.694 126.873 L 133.694 125.363 L 133.694 126.873 L 133.694 126.873 Z  M 140.847 126.133 L 140.847 118.923 L 143.457 118.923 L 138.257 118.923 L 140.847 118.923 L 140.847 126.133 L 140.847 126.133 Z  M 146.151 126.083 L 148.571 122.503 L 150.981 126.133 L 148.571 122.503 L 150.981 118.923 L 148.571 122.503 L 146.191 118.923 L 148.571 122.503 L 146.151 126.083 L 146.151 126.083 Z  M 76.442 126.123 L 76.442 120.993 L 76.442 126.123 L 76.442 126.123 Z  M 76.442 119.504 L 76.442 118.913 L 76.442 119.504 Z  M 84.816 126.133 L 84.816 122.333 L 84.816 122.333 Q 84.816 122.163 84.726 121.933 L 84.726 121.933 L 84.726 121.933 Q 84.636 121.703 84.431 121.498 L 84.431 121.498 L 84.431 121.498 Q 84.226 121.293 83.896 121.148 L 83.896 121.148 L 83.896 121.148 Q 83.566 121.003 83.086 121.003 L 83.086 121.003 L 83.086 121.003 Q 82.606 121.003 82.241 121.168 L 82.241 121.168 L 82.241 121.168 Q 81.876 121.333 81.631 121.603 L 81.631 121.603 L 81.631 121.603 Q 81.386 121.873 81.261 122.218 L 81.261 122.218 L 81.261 122.218 Q 81.136 122.563 81.136 122.903 L 81.136 122.903 L 81.136 122.903 Q 81.136 122.563 81.261 122.218 L 81.261 122.218 L 81.261 122.218 Q 81.386 121.873 81.631 121.603 L 81.631 121.603 L 81.631 121.603 Q 81.876 121.333 82.241 121.168 L 82.241 121.168 L 82.241 121.168 Q 82.606 121.003 83.086 121.003 L 83.086 121.003 L 83.086 121.003 Q 83.566 121.003 83.896 121.148 L 83.896 121.148 L 83.896 121.148 Q 84.226 121.293 84.431 121.498 L 84.431 121.498 L 84.431 121.498 Q 84.636 121.703 84.726 121.933 L 84.726 121.933 L 84.726 121.933 Q 84.816 122.163 84.816 122.333 L 84.816 122.333 L 84.816 126.133 L 84.816 126.133 Z  M 81.136 126.133 L 81.136 121.003 L 81.136 126.133 L 81.136 126.133 Z  M 121.042 113.733 L 121.042 113.733 L 121.042 113.733 Q 121.042 114.333 121.257 114.758 L 121.257 114.758 L 121.257 114.758 Q 121.472 115.183 121.832 115.453 L 121.832 115.453 L 121.832 115.453 Q 122.192 115.723 122.672 115.848 L 122.672 115.848 L 122.672 115.848 Q 123.152 115.973 123.692 115.973 L 123.692 115.973 L 123.692 115.973 Q 124.232 115.973 124.672 115.818 L 124.672 115.818 L 124.672 115.818 Q 125.112 115.663 125.422 115.408 L 125.422 115.408 L 125.422 115.408 Q 125.732 115.153 125.902 114.828 L 125.902 114.828 L 125.902 114.828 Q 126.072 114.503 126.082 114.173 L 126.082 114.173 L 126.082 114.173 Q 126.102 113.513 125.782 113.028 L 125.782 113.028 L 125.782 113.028 Q 125.462 112.543 124.772 112.403 L 124.772 112.403 L 122.322 111.873 L 122.322 111.873 Q 121.792 111.753 121.507 111.423 L 121.507 111.423 L 121.507 111.423 Q 121.222 111.093 121.222 110.383 L 121.222 110.383 L 121.222 110.383 Q 121.222 110.033 121.367 109.713 L 121.367 109.713 L 121.367 109.713 Q 121.512 109.393 121.797 109.153 L 121.797 109.153 L 121.797 109.153 Q 122.082 108.913 122.497 108.773 L 122.497 108.773 L 122.497 108.773 Q 122.912 108.633 123.452 108.633 L 123.452 108.633 L 123.452 108.633 Q 123.992 108.633 124.447 108.758 L 124.447 108.758 L 124.447 108.758 Q 124.902 108.883 125.232 109.123 L 125.232 109.123 L 125.232 109.123 Q 125.562 109.363 125.737 109.708 L 125.737 109.708 L 125.737 109.708 Q 125.912 110.053 125.902 110.503 L 125.902 110.503 L 125.902 110.503 Q 125.912 110.053 125.737 109.708 L 125.737 109.708 L 125.737 109.708 Q 125.562 109.363 125.232 109.123 L 125.232 109.123 L 125.232 109.123 Q 124.902 108.883 124.447 108.758 L 124.447 108.758 L 124.447 108.758 Q 123.992 108.633 123.452 108.633 L 123.452 108.633 L 123.452 108.633 Q 122.912 108.633 122.497 108.773 L 122.497 108.773 L 122.497 108.773 Q 122.082 108.913 121.797 109.153 L 121.797 109.153 L 121.797 109.153 Q 121.512 109.393 121.367 109.713 L 121.367 109.713 L 121.367 109.713 Q 121.222 110.033 121.222 110.383 L 121.222 110.383 L 121.222 110.383 Q 121.222 110.733 121.297 110.988 L 121.297 110.988 L 121.297 110.988 Q 121.372 111.243 121.512 111.423 L 121.512 111.423 L 121.512 111.423 Q 121.652 111.603 121.857 111.708 L 121.857 111.708 L 121.857 111.708 Q 122.062 111.813 122.322 111.873 L 122.322 111.873 L 124.772 112.403 L 124.772 112.403 Q 125.442 112.543 125.772 113.028 L 125.772 113.028 L 125.772 113.028 Q 126.102 113.513 126.082 114.173 L 126.082 114.173 L 126.082 114.173 Q 126.072 114.503 125.902 114.828 L 125.902 114.828 L 125.902 114.828 Q 125.732 115.153 125.422 115.408 L 125.422 115.408 L 125.422 115.408 Q 125.112 115.663 124.672 115.818 L 124.672 115.818 L 124.672 115.818 Q 124.232 115.973 123.692 115.973 L 123.692 115.973 L 123.692 115.973 Q 123.152 115.973 122.672 115.848 L 122.672 115.848 L 122.672 115.848 Q 122.192 115.723 121.832 115.453 L 121.832 115.453 L 121.832 115.453 Q 121.472 115.183 121.257 114.758 L 121.257 114.758 L 121.257 114.758 Q 121.042 114.333 121.042 113.733 Z  M 132.865 114.283 L 132.865 114.283 L 132.865 114.283 Q 132.855 114.603 132.695 114.893 L 132.695 114.893 L 132.695 114.893 Q 132.535 115.183 132.285 115.413 L 132.285 115.413 L 132.285 115.413 Q 132.035 115.643 131.72 115.778 L 131.72 115.778 L 131.72 115.778 Q 131.405 115.913 131.085 115.913 L 131.085 115.913 L 131.085 115.913 Q 130.875 115.913 130.625 115.893 L 130.625 115.893 L 130.625 115.893 Q 130.375 115.873 130.12 115.788 L 130.12 115.788 L 130.12 115.788 Q 129.865 115.703 129.625 115.533 L 129.625 115.533 L 129.625 115.533 Q 129.385 115.363 129.2 115.068 L 129.2 115.068 L 129.2 115.068 Q 129.015 114.773 128.905 114.333 L 128.905 114.333 L 128.905 114.333 Q 128.795 113.893 128.795 113.263 L 128.795 113.263 L 128.795 113.263 Q 128.795 112.643 128.92 112.208 L 128.92 112.208 L 128.92 112.208 Q 129.045 111.773 129.245 111.493 L 129.245 111.493 L 129.245 111.493 Q 129.445 111.213 129.695 111.058 L 129.695 111.058 L 129.695 111.058 Q 129.945 110.903 130.205 110.833 L 130.205 110.833 L 130.205 110.833 Q 130.465 110.763 130.705 110.748 L 130.705 110.748 L 130.705 110.748 Q 130.945 110.733 131.125 110.733 L 131.125 110.733 L 131.125 110.733 Q 131.395 110.733 131.685 110.828 L 131.685 110.828 L 131.685 110.828 Q 131.975 110.923 132.225 111.093 L 132.225 111.093 L 132.225 111.093 Q 132.475 111.263 132.645 111.493 L 132.645 111.493 L 132.645 111.493 Q 132.815 111.723 132.835 111.983 L 132.835 111.983 L 132.835 111.983 Q 132.815 111.723 132.645 111.493 L 132.645 111.493 L 132.645 111.493 Q 132.475 111.263 132.225 111.093 L 132.225 111.093 L 132.225 111.093 Q 131.975 110.923 131.685 110.828 L 131.685 110.828 L 131.685 110.828 Q 131.395 110.733 131.125 110.733 L 131.125 110.733 L 131.125 110.733 Q 130.945 110.733 130.705 110.748 L 130.705 110.748 L 130.705 110.748 Q 130.465 110.763 130.205 110.833 L 130.205 110.833 L 130.205 110.833 Q 129.945 110.903 129.695 111.058 L 129.695 111.058 L 129.695 111.058 Q 129.445 111.213 129.245 111.493 L 129.245 111.493 L 129.245 111.493 Q 129.045 111.773 128.92 112.208 L 128.92 112.208 L 128.92 112.208 Q 128.795 112.643 128.795 113.263 L 128.795 113.263 L 128.795 113.263 Q 128.795 113.893 128.905 114.333 L 128.905 114.333 L 128.905 114.333 Q 129.015 114.773 129.2 115.068 L 129.2 115.068 L 129.2 115.068 Q 129.385 115.363 129.625 115.533 L 129.625 115.533 L 129.625 115.533 Q 129.865 115.703 130.12 115.788 L 130.12 115.788 L 130.12 115.788 Q 130.375 115.873 130.625 115.893 L 130.625 115.893 L 130.625 115.893 Q 130.875 115.913 131.085 115.913 L 131.085 115.913 L 131.085 115.913 Q 131.405 115.913 131.72 115.778 L 131.72 115.778 L 131.72 115.778 Q 132.035 115.643 132.285 115.413 L 132.285 115.413 L 132.285 115.413 Q 132.535 115.183 132.695 114.893 L 132.695 114.893 L 132.695 114.893 Q 132.855 114.603 132.865 114.283 Z  M 140.319 112.403 L 140.319 115.913 L 140.319 112.403 L 140.319 112.403 Q 140.319 111.713 139.914 111.258 L 139.914 111.258 L 139.914 111.258 Q 139.509 110.803 138.699 110.783 L 138.699 110.783 L 138.699 110.783 Q 138.289 110.773 137.909 110.888 L 137.909 110.888 L 137.909 110.888 Q 137.529 111.003 137.234 111.203 L 137.234 111.203 L 137.234 111.203 Q 136.939 111.403 136.759 111.683 L 136.759 111.683 L 136.759 111.683 Q 136.579 111.963 136.579 112.293 L 136.579 112.293 L 136.579 112.293 Q 136.579 111.963 136.759 111.683 L 136.759 111.683 L 136.759 111.683 Q 136.939 111.403 137.234 111.203 L 137.234 111.203 L 137.234 111.203 Q 137.529 111.003 137.909 110.888 L 137.909 110.888 L 137.909 110.888 Q 138.289 110.773 138.699 110.783 L 138.699 110.783 L 138.699 110.783 Q 139.509 110.803 139.914 111.258 L 139.914 111.258 L 139.914 111.258 Q 140.319 111.713 140.319 112.403 L 140.319 112.403 L 140.319 112.403 Z  M 136.579 115.913 L 136.579 108.703 L 136.579 115.913 L 136.579 115.913 Z  M 145.762 115.913 L 145.762 115.913 L 145.762 115.913 Q 145.292 115.913 144.882 115.788 L 144.882 115.788 L 144.882 115.788 Q 144.472 115.663 144.162 115.363 L 144.162 115.363 L 144.162 115.363 Q 143.852 115.063 143.672 114.558 L 143.672 114.558 L 143.672 114.558 Q 143.492 114.053 143.492 113.293 L 143.492 113.293 L 143.492 113.293 Q 143.492 112.533 143.672 112.033 L 143.672 112.033 L 143.672 112.033 Q 143.852 111.533 144.162 111.233 L 144.162 111.233 L 144.162 111.233 Q 144.472 110.933 144.882 110.808 L 144.882 110.808 L 144.882 110.808 Q 145.292 110.683 145.762 110.683 L 145.762 110.683 L 145.762 110.683 Q 146.232 110.683 146.647 110.808 L 146.647 110.808 L 146.647 110.808 Q 147.062 110.933 147.367 111.233 L 147.367 111.233 L 147.367 111.233 Q 147.672 111.533 147.852 112.033 L 147.852 112.033 L 147.852 112.033 Q 148.032 112.533 148.032 113.293 L 148.032 113.293 L 148.032 113.293 Q 148.032 114.053 147.852 114.558 L 147.852 114.558 L 147.852 114.558 Q 147.672 115.063 147.367 115.363 L 147.367 115.363 L 147.367 115.363 Q 147.062 115.663 146.647 115.788 L 146.647 115.788 L 146.647 115.788 Q 146.232 115.913 145.762 115.913 Z  M 145.762 115.913 L 145.762 115.913 L 145.762 115.913 Q 145.292 115.913 144.882 115.788 L 144.882 115.788 L 144.882 115.788 Q 144.472 115.663 144.162 115.363 L 144.162 115.363 L 144.162 115.363 Q 143.852 115.063 143.672 114.558 L 143.672 114.558 L 143.672 114.558 Q 143.492 114.053 143.492 113.293 L 143.492 113.293 L 143.492 113.293 Q 143.492 112.533 143.672 112.033 L 143.672 112.033 L 143.672 112.033 Q 143.852 111.533 144.162 111.233 L 144.162 111.233 L 144.162 111.233 Q 144.472 110.933 144.882 110.808 L 144.882 110.808 L 144.882 110.808 Q 145.292 110.683 145.762 110.683 L 145.762 110.683 L 145.762 110.683 Q 146.232 110.683 146.647 110.808 L 146.647 110.808 L 146.647 110.808 Q 147.062 110.933 147.367 111.233 L 147.367 111.233 L 147.367 111.233 Q 147.672 111.533 147.852 112.033 L 147.852 112.033 L 147.852 112.033 Q 148.032 112.533 148.032 113.293 L 148.032 113.293 L 148.032 113.293 Q 148.032 114.053 147.852 114.558 L 147.852 114.558 L 147.852 114.558 Q 147.672 115.063 147.367 115.363 L 147.367 115.363 L 147.367 115.363 Q 147.062 115.663 146.647 115.788 L 146.647 115.788 L 146.647 115.788 Q 146.232 115.913 145.762 115.913 Z  M 151.776 115.913 L 151.776 108.703 L 151.776 115.913 L 151.776 115.913 Z  M 159.029 114.603 L 159.029 114.603 L 159.029 114.603 Q 158.919 114.763 158.684 115.003 L 158.684 115.003 L 158.684 115.003 Q 158.449 115.243 158.149 115.463 L 158.149 115.463 L 158.149 115.463 Q 157.849 115.683 157.519 115.833 L 157.519 115.833 L 157.519 115.833 Q 157.189 115.983 156.879 115.973 L 156.879 115.973 L 156.879 115.973 Q 156.569 115.963 156.299 115.903 L 156.299 115.903 L 156.299 115.903 Q 156.029 115.843 155.824 115.703 L 155.824 115.703 L 155.824 115.703 Q 155.619 115.563 155.504 115.338 L 155.504 115.338 L 155.504 115.338 Q 155.389 115.113 155.389 114.763 L 155.389 114.763 L 155.389 114.763 Q 155.389 114.063 155.799 113.743 L 155.799 113.743 L 155.799 113.743 Q 156.209 113.423 157.009 113.343 L 157.009 113.343 L 157.009 113.343 Q 157.399 113.303 157.694 113.258 L 157.694 113.258 L 157.694 113.258 Q 157.989 113.213 158.224 113.158 L 158.224 113.158 L 158.224 113.158 Q 158.459 113.103 158.649 113.048 L 158.649 113.048 L 158.649 113.048 Q 158.839 112.993 159.029 112.943 L 159.029 112.943 L 159.029 112.943 Q 158.839 112.993 158.649 113.048 L 158.649 113.048 L 158.649 113.048 Q 158.459 113.103 158.224 113.158 L 158.224 113.158 L 158.224 113.158 Q 157.989 113.213 157.694 113.258 L 157.694 113.258 L 157.694 113.258 Q 157.399 113.303 157.009 113.343 L 157.009 113.343 L 157.009 113.343 Q 156.209 113.423 155.799 113.743 L 155.799 113.743 L 155.799 113.743 Q 155.389 114.063 155.389 114.763 L 155.389 114.763 L 155.389 114.763 Q 155.389 115.113 155.504 115.338 L 155.504 115.338 L 155.504 115.338 Q 155.619 115.563 155.824 115.703 L 155.824 115.703 L 155.824 115.703 Q 156.029 115.843 156.299 115.903 L 156.299 115.903 L 156.299 115.903 Q 156.569 115.963 156.879 115.973 L 156.879 115.973 L 156.879 115.973 Q 157.189 115.983 157.519 115.833 L 157.519 115.833 L 157.519 115.833 Q 157.849 115.683 158.149 115.463 L 158.149 115.463 L 158.149 115.463 Q 158.449 115.243 158.684 115.003 L 158.684 115.003 L 158.684 115.003 Q 158.919 114.763 159.029 114.603 Z  M 159.739 115.913 L 159.739 115.913 L 159.739 115.913 Q 159.539 115.893 159.379 115.813 L 159.379 115.813 L 159.379 115.813 Q 159.239 115.743 159.134 115.618 L 159.134 115.618 L 159.134 115.618 Q 159.029 115.493 159.029 115.263 L 159.029 115.263 L 159.029 111.973 L 159.029 111.973 Q 159.029 111.813 158.974 111.603 L 158.974 111.603 L 158.974 111.603 Q 158.919 111.393 158.754 111.203 L 158.754 111.203 L 158.754 111.203 Q 158.589 111.013 158.284 110.883 L 158.284 110.883 L 158.284 110.883 Q 157.979 110.753 157.469 110.753 L 157.469 110.753 L 157.469 110.753 Q 156.959 110.753 156.609 110.858 L 156.609 110.858 L 156.609 110.858 Q 156.259 110.963 156.039 111.138 L 156.039 111.138 L 156.039 111.138 Q 155.819 111.313 155.719 111.533 L 155.719 111.533 L 155.719 111.533 Q 155.619 111.753 155.619 111.993 L 155.619 111.993 L 155.619 111.993 Q 155.619 111.753 155.719 111.533 L 155.719 111.533 L 155.719 111.533 Q 155.819 111.313 156.039 111.138 L 156.039 111.138 L 156.039 111.138 Q 156.259 110.963 156.609 110.858 L 156.609 110.858 L 156.609 110.858 Q 156.959 110.753 157.469 110.753 L 157.469 110.753 L 157.469 110.753 Q 157.979 110.753 158.284 110.883 L 158.284 110.883 L 158.284 110.883 Q 158.589 111.013 158.754 111.203 L 158.754 111.203 L 158.754 111.203 Q 158.919 111.393 158.974 111.603 L 158.974 111.603 L 158.974 111.603 Q 159.029 111.813 159.029 111.973 L 159.029 111.973 L 159.029 115.263 L 159.029 115.263 Q 159.029 115.493 159.134 115.618 L 159.134 115.618 L 159.134 115.618 Q 159.239 115.743 159.379 115.813 L 159.379 115.813 L 159.379 115.813 Q 159.539 115.893 159.739 115.913 Z  M 163.503 113.293 L 163.503 113.293 L 163.503 113.293 Q 163.493 112.863 163.668 112.413 L 163.668 112.413 L 163.668 112.413 Q 163.843 111.963 164.123 111.603 L 164.123 111.603 L 164.123 111.603 Q 164.403 111.243 164.758 111.013 L 164.758 111.013 L 164.758 111.013 Q 165.113 110.783 165.463 110.783 L 165.463 110.783 L 165.463 110.783 Q 165.113 110.783 164.758 111.013 L 164.758 111.013 L 164.758 111.013 Q 164.403 111.243 164.123 111.603 L 164.123 111.603 L 164.123 111.603 Q 163.843 111.963 163.668 112.413 L 163.668 112.413 L 163.668 112.413 Q 163.493 112.863 163.503 113.293 Z  M 163.503 115.913 L 163.503 110.783 L 163.503 115.913 L 163.503 115.913 Z  M 171.526 111.703 L 171.526 111.703 L 171.526 111.703 Q 171.536 111.613 171.466 111.448 L 171.466 111.448 L 171.466 111.448 Q 171.396 111.283 171.221 111.128 L 171.221 111.128 L 171.221 111.128 Q 171.046 110.973 170.736 110.848 L 170.736 110.848 L 170.736 110.848 Q 170.426 110.723 169.956 110.703 L 169.956 110.703 L 169.956 110.703 Q 169.006 110.683 168.561 110.973 L 168.561 110.973 L 168.561 110.973 Q 168.116 111.263 168.116 111.843 L 168.116 111.843 L 168.116 111.843 Q 168.116 112.133 168.221 112.333 L 168.221 112.333 L 168.221 112.333 Q 168.326 112.533 168.471 112.658 L 168.471 112.658 L 168.471 112.658 Q 168.616 112.783 168.766 112.843 L 168.766 112.843 L 168.766 112.843 Q 168.916 112.903 169.006 112.933 L 169.006 112.933 L 170.896 113.493 L 170.896 113.493 Q 170.986 113.513 171.131 113.578 L 171.131 113.578 L 171.131 113.578 Q 171.276 113.643 171.411 113.773 L 171.411 113.773 L 171.411 113.773 Q 171.546 113.903 171.646 114.093 L 171.646 114.093 L 171.646 114.093 Q 171.746 114.283 171.746 114.563 L 171.746 114.563 L 171.746 114.563 Q 171.746 114.843 171.606 115.088 L 171.606 115.088 L 171.606 115.088 Q 171.466 115.333 171.226 115.518 L 171.226 115.518 L 171.226 115.518 Q 170.986 115.703 170.656 115.808 L 170.656 115.808 L 170.656 115.808 Q 170.326 115.913 169.956 115.913 L 169.956 115.913 L 169.956 115.913 Q 169.576 115.913 169.231 115.818 L 169.231 115.818 L 169.231 115.818 Q 168.886 115.723 168.626 115.553 L 168.626 115.553 L 168.626 115.553 Q 168.366 115.383 168.206 115.138 L 168.206 115.138 L 168.206 115.138 Q 168.046 114.893 168.046 114.603 L 168.046 114.603 L 168.046 114.603 Q 168.046 114.893 168.206 115.138 L 168.206 115.138 L 168.206 115.138 Q 168.366 115.383 168.626 115.553 L 168.626 115.553 L 168.626 115.553 Q 168.886 115.723 169.231 115.818 L 169.231 115.818 L 169.231 115.818 Q 169.576 115.913 169.956 115.913 L 169.956 115.913 L 169.956 115.913 Q 170.326 115.913 170.656 115.808 L 170.656 115.808 L 170.656 115.808 Q 170.986 115.703 171.226 115.518 L 171.226 115.518 L 171.226 115.518 Q 171.466 115.333 171.606 115.088 L 171.606 115.088 L 171.606 115.088 Q 171.746 114.843 171.746 114.563 L 171.746 114.563 L 171.746 114.563 Q 171.746 114.283 171.646 114.093 L 171.646 114.093 L 171.646 114.093 Q 171.546 113.903 171.411 113.773 L 171.411 113.773 L 171.411 113.773 Q 171.276 113.643 171.131 113.578 L 171.131 113.578 L 171.131 113.578 Q 170.986 113.513 170.896 113.493 L 170.896 113.493 L 169.006 112.933 L 169.006 112.933 Q 168.916 112.903 168.766 112.843 L 168.766 112.843 L 168.766 112.843 Q 168.616 112.783 168.471 112.658 L 168.471 112.658 L 168.471 112.658 Q 168.326 112.533 168.221 112.333 L 168.221 112.333 L 168.221 112.333 Q 168.116 112.133 168.116 111.843 L 168.116 111.843 L 168.116 111.843 Q 168.116 111.263 168.561 110.973 L 168.561 110.973 L 168.561 110.973 Q 169.006 110.683 169.956 110.703 L 169.956 110.703 L 169.956 110.703 Q 170.426 110.723 170.736 110.848 L 170.736 110.848 L 170.736 110.848 Q 171.046 110.973 171.221 111.128 L 171.221 111.128 L 171.221 111.128 Q 171.396 111.283 171.466 111.448 L 171.466 111.448 L 171.466 111.448 Q 171.536 111.613 171.526 111.703 Z  M 77.317 115.913 L 77.317 108.703 L 79.927 108.703 L 74.727 108.703 L 77.317 108.703 L 77.317 115.913 L 77.317 115.913 Z  M 83.131 110.763 L 83.131 114.573 L 83.131 114.573 Q 83.131 114.743 83.221 114.973 L 83.221 114.973 L 83.221 114.973 Q 83.311 115.203 83.516 115.408 L 83.516 115.408 L 83.516 115.408 Q 83.721 115.613 84.051 115.758 L 84.051 115.758 L 84.051 115.758 Q 84.381 115.903 84.861 115.903 L 84.861 115.903 L 84.861 115.903 Q 85.341 115.903 85.706 115.738 L 85.706 115.738 L 85.706 115.738 Q 86.071 115.573 86.321 115.303 L 86.321 115.303 L 86.321 115.303 Q 86.571 115.033 86.696 114.693 L 86.696 114.693 L 86.696 114.693 Q 86.821 114.353 86.821 114.003 L 86.821 114.003 L 86.821 114.003 Q 86.821 114.353 86.696 114.693 L 86.696 114.693 L 86.696 114.693 Q 86.571 115.033 86.321 115.303 L 86.321 115.303 L 86.321 115.303 Q 86.071 115.573 85.706 115.738 L 85.706 115.738 L 85.706 115.738 Q 85.341 115.903 84.861 115.903 L 84.861 115.903 L 84.861 115.903 Q 84.381 115.903 84.051 115.758 L 84.051 115.758 L 84.051 115.758 Q 83.721 115.613 83.516 115.408 L 83.516 115.408 L 83.516 115.408 Q 83.311 115.203 83.221 114.973 L 83.221 114.973 L 83.221 114.973 Q 83.131 114.743 83.131 114.573 L 83.131 114.573 L 83.131 110.763 L 83.131 110.763 Z  M 86.821 110.763 L 86.821 115.903 L 86.821 110.763 L 86.821 110.763 Z  M 91.704 113.293 L 91.704 113.293 L 91.704 113.293 Q 91.694 112.863 91.869 112.413 L 91.869 112.413 L 91.869 112.413 Q 92.044 111.963 92.324 111.603 L 92.324 111.603 L 92.324 111.603 Q 92.604 111.243 92.959 111.013 L 92.959 111.013 L 92.959 111.013 Q 93.314 110.783 93.664 110.783 L 93.664 110.783 L 93.664 110.783 Q 93.314 110.783 92.959 111.013 L 92.959 111.013 L 92.959 111.013 Q 92.604 111.243 92.324 111.603 L 92.324 111.603 L 92.324 111.603 Q 92.044 111.963 91.869 112.413 L 91.869 112.413 L 91.869 112.413 Q 91.694 112.863 91.704 113.293 Z  M 91.704 115.913 L 91.704 110.783 L 91.704 115.913 L 91.704 115.913 Z  M 97.338 115.903 L 97.338 110.773 L 97.338 115.903 L 97.338 115.903 Z  M 97.338 109.463 L 97.338 108.693 L 97.338 109.463 Z  M 105.711 115.913 L 105.711 112.113 L 105.711 112.113 Q 105.711 111.943 105.621 111.713 L 105.621 111.713 L 105.621 111.713 Q 105.531 111.483 105.326 111.278 L 105.326 111.278 L 105.326 111.278 Q 105.121 111.073 104.791 110.928 L 104.791 110.928 L 104.791 110.928 Q 104.461 110.783 103.981 110.783 L 103.981 110.783 L 103.981 110.783 Q 103.501 110.783 103.136 110.948 L 103.136 110.948 L 103.136 110.948 Q 102.771 111.113 102.526 111.383 L 102.526 111.383 L 102.526 111.383 Q 102.281 111.653 102.156 111.998 L 102.156 111.998 L 102.156 111.998 Q 102.031 112.343 102.031 112.683 L 102.031 112.683 L 102.031 112.683 Q 102.031 112.343 102.156 111.998 L 102.156 111.998 L 102.156 111.998 Q 102.281 111.653 102.526 111.383 L 102.526 111.383 L 102.526 111.383 Q 102.771 111.113 103.136 110.948 L 103.136 110.948 L 103.136 110.948 Q 103.501 110.783 103.981 110.783 L 103.981 110.783 L 103.981 110.783 Q 104.461 110.783 104.791 110.928 L 104.791 110.928 L 104.791 110.928 Q 105.121 111.073 105.326 111.278 L 105.326 111.278 L 105.326 111.278 Q 105.531 111.483 105.621 111.713 L 105.621 111.713 L 105.621 111.713 Q 105.711 111.943 105.711 112.113 L 105.711 112.113 L 105.711 115.913 L 105.711 115.913 Z  M 102.031 115.913 L 102.031 110.783 L 102.031 115.913 L 102.031 115.913 Z  M 110.995 110.733 L 110.995 110.733 L 110.995 110.733 Q 111.425 110.733 111.815 110.853 L 111.815 110.853 L 111.815 110.853 Q 112.205 110.973 112.49 111.273 L 112.49 111.273 L 112.49 111.273 Q 112.775 111.573 112.945 112.068 L 112.945 112.068 L 112.945 112.068 Q 113.115 112.563 113.115 113.313 L 113.115 113.313 L 113.115 113.313 Q 113.115 114.063 112.945 114.558 L 112.945 114.558 L 112.945 114.558 Q 112.775 115.053 112.49 115.353 L 112.49 115.353 L 112.49 115.353 Q 112.205 115.653 111.815 115.773 L 111.815 115.773 L 111.815 115.773 Q 111.425 115.893 110.995 115.893 L 110.995 115.893 L 110.995 115.893 Q 110.555 115.893 110.175 115.773 L 110.175 115.773 L 110.175 115.773 Q 109.795 115.653 109.505 115.353 L 109.505 115.353 L 109.505 115.353 Q 109.215 115.053 109.05 114.558 L 109.05 114.558 L 109.05 114.558 Q 108.885 114.063 108.885 113.313 L 108.885 113.313 L 108.885 113.313 Q 108.885 112.563 109.05 112.068 L 109.05 112.068 L 109.05 112.068 Q 109.215 111.573 109.505 111.273 L 109.505 111.273 L 109.505 111.273 Q 109.795 110.973 110.175 110.853 L 110.175 110.853 L 110.175 110.853 Q 110.555 110.733 110.995 110.733 Z  M 110.995 110.733 L 110.995 110.733 L 110.995 110.733 Q 111.425 110.733 111.815 110.853 L 111.815 110.853 L 111.815 110.853 Q 112.205 110.973 112.49 111.273 L 112.49 111.273 L 112.49 111.273 Q 112.775 111.573 112.945 112.068 L 112.945 112.068 L 112.945 112.068 Q 113.115 112.563 113.115 113.313 L 113.115 113.313 L 113.115 113.313 Q 113.115 114.063 112.945 114.558 L 112.945 114.558 L 112.945 114.558 Q 112.775 115.053 112.49 115.353 L 112.49 115.353 L 112.49 115.353 Q 112.205 115.653 111.815 115.773 L 111.815 115.773 L 111.815 115.773 Q 111.425 115.893 110.995 115.893 L 110.995 115.893 L 110.995 115.893 Q 110.555 115.893 110.175 115.773 L 110.175 115.773 L 110.175 115.773 Q 109.795 115.653 109.505 115.353 L 109.505 115.353 L 109.505 115.353 Q 109.215 115.053 109.05 114.558 L 109.05 114.558 L 109.05 114.558 Q 108.885 114.063 108.885 113.313 L 108.885 113.313 L 108.885 113.313 Q 108.885 112.563 109.05 112.068 L 109.05 112.068 L 109.05 112.068 Q 109.215 111.573 109.505 111.273 L 109.505 111.273 L 109.505 111.273 Q 109.795 110.973 110.175 110.853 L 110.175 110.853 L 110.175 110.853 Q 110.555 110.733 110.995 110.733 Z  M 109.185 116.953 L 109.185 116.953 L 109.185 116.953 Q 109.265 117.403 109.77 117.653 L 109.77 117.653 L 109.77 117.653 Q 110.275 117.903 111.025 117.933 L 111.025 117.933 L 111.025 117.933 Q 111.405 117.943 111.78 117.818 L 111.78 117.818 L 111.78 117.818 Q 112.155 117.693 112.45 117.468 L 112.45 117.468 L 112.45 117.468 Q 112.745 117.243 112.93 116.938 L 112.93 116.938 L 112.93 116.938 Q 113.115 116.633 113.115 116.283 L 113.115 116.283 L 113.115 110.813 L 113.115 116.283 L 113.115 116.283 Q 113.115 116.633 112.93 116.938 L 112.93 116.938 L 112.93 116.938 Q 112.745 117.243 112.45 117.468 L 112.45 117.468 L 112.45 117.468 Q 112.155 117.693 111.78 117.818 L 111.78 117.818 L 111.78 117.818 Q 111.405 117.943 111.025 117.933 L 111.025 117.933 L 111.025 117.933 Q 110.275 117.903 109.77 117.653 L 109.77 117.653 L 109.77 117.653 Q 109.265 117.403 109.185 116.953 Z  M 55.727 108.673 L 55.727 115.913 L 55.727 108.673 L 55.727 108.673 Z  M 57.847 110.753 L 57.847 110.753 L 57.847 110.753 Q 58.287 110.753 58.672 110.873 L 58.672 110.873 L 58.672 110.873 Q 59.057 110.993 59.347 111.288 L 59.347 111.288 L 59.347 111.288 Q 59.637 111.583 59.802 112.083 L 59.802 112.083 L 59.802 112.083 Q 59.967 112.583 59.967 113.333 L 59.967 113.333 L 59.967 113.333 Q 59.967 114.083 59.802 114.578 L 59.802 114.578 L 59.802 114.578 Q 59.637 115.073 59.347 115.373 L 59.347 115.373 L 59.347 115.373 Q 59.057 115.673 58.672 115.793 L 58.672 115.793 L 58.672 115.793 Q 58.287 115.913 57.847 115.913 L 57.847 115.913 L 57.847 115.913 Q 57.407 115.913 57.022 115.793 L 57.022 115.793 L 57.022 115.793 Q 56.637 115.673 56.347 115.373 L 56.347 115.373 L 56.347 115.373 Q 56.057 115.073 55.892 114.578 L 55.892 114.578 L 55.892 114.578 Q 55.727 114.083 55.727 113.333 L 55.727 113.333 L 55.727 113.333 Q 55.727 112.583 55.892 112.083 L 55.892 112.083 L 55.892 112.083 Q 56.057 111.583 56.347 111.288 L 56.347 111.288 L 56.347 111.288 Q 56.637 110.993 57.022 110.873 L 57.022 110.873 L 57.022 110.873 Q 57.407 110.753 57.847 110.753 Z  M 57.847 110.753 L 57.847 110.753 L 57.847 110.753 Q 58.287 110.753 58.672 110.873 L 58.672 110.873 L 58.672 110.873 Q 59.057 110.993 59.347 111.288 L 59.347 111.288 L 59.347 111.288 Q 59.637 111.583 59.802 112.083 L 59.802 112.083 L 59.802 112.083 Q 59.967 112.583 59.967 113.333 L 59.967 113.333 L 59.967 113.333 Q 59.967 114.083 59.802 114.578 L 59.802 114.578 L 59.802 114.578 Q 59.637 115.073 59.347 115.373 L 59.347 115.373 L 59.347 115.373 Q 59.057 115.673 58.672 115.793 L 58.672 115.793 L 58.672 115.793 Q 58.287 115.913 57.847 115.913 L 57.847 115.913 L 57.847 115.913 Q 57.407 115.913 57.022 115.793 L 57.022 115.793 L 57.022 115.793 Q 56.637 115.673 56.347 115.373 L 56.347 115.373 L 56.347 115.373 Q 56.057 115.073 55.892 114.578 L 55.892 114.578 L 55.892 114.578 Q 55.727 114.083 55.727 113.333 L 55.727 113.333 L 55.727 113.333 Q 55.727 112.583 55.892 112.083 L 55.892 112.083 L 55.892 112.083 Q 56.057 111.583 56.347 111.288 L 56.347 111.288 L 56.347 111.288 Q 56.637 110.993 57.022 110.873 L 57.022 110.873 L 57.022 110.873 Q 57.407 110.753 57.847 110.753 Z  M 63.051 117.973 L 63.051 117.973 L 63.051 117.973 Q 63.561 118.133 63.906 117.908 L 63.906 117.908 L 63.906 117.908 Q 64.251 117.683 64.411 117.263 L 64.411 117.263 L 66.791 110.853 L 64.411 117.263 L 64.411 117.263 Q 64.251 117.683 63.906 117.908 L 63.906 117.908 L 63.906 117.908 Q 63.561 118.133 63.051 117.973 Z  M 62.671 110.813 L 64.901 115.943 L 62.671 110.813 L 62.671 110.813 Z  M 112.66 100.783 L 114.14 105.913 L 115.91 100.783 L 117.69 105.913 L 119.17 100.783 L 117.69 105.913 L 115.91 100.783 L 114.14 105.913 L 112.66 100.783 L 112.66 100.783 Z  M 123.013 106.033 L 123.013 100.773 L 123.013 106.033 Z  M 123.013 99.533 L 123.013 98.693 L 123.013 99.533 Z  M 128.697 105.863 L 128.697 105.863 L 128.697 105.863 Q 128.517 105.873 128.332 105.873 L 128.332 105.873 L 128.332 105.873 Q 128.147 105.873 128.002 105.818 L 128.002 105.818 L 128.002 105.818 Q 127.857 105.763 127.767 105.628 L 127.767 105.628 L 127.767 105.628 Q 127.677 105.493 127.677 105.243 L 127.677 105.243 L 127.677 98.843 L 127.677 105.243 L 127.677 105.243 Q 127.677 105.493 127.767 105.628 L 127.767 105.628 L 127.767 105.628 Q 127.857 105.763 128.002 105.818 L 128.002 105.818 L 128.002 105.818 Q 128.147 105.873 128.332 105.873 L 128.332 105.873 L 128.332 105.873 Q 128.517 105.873 128.697 105.863 Z  M 126.627 100.733 L 128.717 100.733 L 126.627 100.733 L 126.627 100.733 Z  M 136.07 102.403 L 136.07 105.913 L 136.07 102.403 L 136.07 102.403 Q 136.07 101.713 135.665 101.258 L 135.665 101.258 L 135.665 101.258 Q 135.26 100.803 134.45 100.783 L 134.45 100.783 L 134.45 100.783 Q 134.04 100.773 133.66 100.888 L 133.66 100.888 L 133.66 100.888 Q 133.28 101.003 132.985 101.203 L 132.985 101.203 L 132.985 101.203 Q 132.69 101.403 132.51 101.683 L 132.51 101.683 L 132.51 101.683 Q 132.33 101.963 132.33 102.293 L 132.33 102.293 L 132.33 102.293 Q 132.33 101.963 132.51 101.683 L 132.51 101.683 L 132.51 101.683 Q 132.69 101.403 132.985 101.203 L 132.985 101.203 L 132.985 101.203 Q 133.28 101.003 133.66 100.888 L 133.66 100.888 L 133.66 100.888 Q 134.04 100.773 134.45 100.783 L 134.45 100.783 L 134.45 100.783 Q 135.26 100.803 135.665 101.258 L 135.665 101.258 L 135.665 101.258 Q 136.07 101.713 136.07 102.403 L 136.07 102.403 L 136.07 102.403 Z  M 132.33 105.913 L 132.33 98.703 L 132.33 105.913 L 132.33 105.913 Z  M 74.992 105.913 L 74.992 98.703 L 78.092 105.913 L 81.202 98.703 L 81.202 105.913 L 81.202 98.703 L 78.092 105.913 L 74.992 98.703 L 74.992 105.913 L 74.992 105.913 Z  M 88.766 104.603 L 88.766 104.603 L 88.766 104.603 Q 88.656 104.763 88.421 105.003 L 88.421 105.003 L 88.421 105.003 Q 88.186 105.243 87.886 105.463 L 87.886 105.463 L 87.886 105.463 Q 87.586 105.683 87.256 105.833 L 87.256 105.833 L 87.256 105.833 Q 86.926 105.983 86.616 105.973 L 86.616 105.973 L 86.616 105.973 Q 86.306 105.963 86.036 105.903 L 86.036 105.903 L 86.036 105.903 Q 85.766 105.843 85.561 105.703 L 85.561 105.703 L 85.561 105.703 Q 85.356 105.563 85.241 105.338 L 85.241 105.338 L 85.241 105.338 Q 85.126 105.113 85.126 104.763 L 85.126 104.763 L 85.126 104.763 Q 85.126 104.063 85.536 103.743 L 85.536 103.743 L 85.536 103.743 Q 85.946 103.423 86.746 103.343 L 86.746 103.343 L 86.746 103.343 Q 87.136 103.303 87.431 103.258 L 87.431 103.258 L 87.431 103.258 Q 87.726 103.213 87.961 103.158 L 87.961 103.158 L 87.961 103.158 Q 88.196 103.103 88.386 103.048 L 88.386 103.048 L 88.386 103.048 Q 88.576 102.993 88.766 102.943 L 88.766 102.943 L 88.766 102.943 Q 88.576 102.993 88.386 103.048 L 88.386 103.048 L 88.386 103.048 Q 88.196 103.103 87.961 103.158 L 87.961 103.158 L 87.961 103.158 Q 87.726 103.213 87.431 103.258 L 87.431 103.258 L 87.431 103.258 Q 87.136 103.303 86.746 103.343 L 86.746 103.343 L 86.746 103.343 Q 85.946 103.423 85.536 103.743 L 85.536 103.743 L 85.536 103.743 Q 85.126 104.063 85.126 104.763 L 85.126 104.763 L 85.126 104.763 Q 85.126 105.113 85.241 105.338 L 85.241 105.338 L 85.241 105.338 Q 85.356 105.563 85.561 105.703 L 85.561 105.703 L 85.561 105.703 Q 85.766 105.843 86.036 105.903 L 86.036 105.903 L 86.036 105.903 Q 86.306 105.963 86.616 105.973 L 86.616 105.973 L 86.616 105.973 Q 86.926 105.983 87.256 105.833 L 87.256 105.833 L 87.256 105.833 Q 87.586 105.683 87.886 105.463 L 87.886 105.463 L 87.886 105.463 Q 88.186 105.243 88.421 105.003 L 88.421 105.003 L 88.421 105.003 Q 88.656 104.763 88.766 104.603 Z  M 89.476 105.913 L 89.476 105.913 L 89.476 105.913 Q 89.276 105.893 89.116 105.813 L 89.116 105.813 L 89.116 105.813 Q 88.976 105.743 88.871 105.618 L 88.871 105.618 L 88.871 105.618 Q 88.766 105.493 88.766 105.263 L 88.766 105.263 L 88.766 101.973 L 88.766 101.973 Q 88.766 101.813 88.711 101.603 L 88.711 101.603 L 88.711 101.603 Q 88.656 101.393 88.491 101.203 L 88.491 101.203 L 88.491 101.203 Q 88.326 101.013 88.021 100.883 L 88.021 100.883 L 88.021 100.883 Q 87.716 100.753 87.206 100.753 L 87.206 100.753 L 87.206 100.753 Q 86.696 100.753 86.346 100.858 L 86.346 100.858 L 86.346 100.858 Q 85.996 100.963 85.776 101.138 L 85.776 101.138 L 85.776 101.138 Q 85.556 101.313 85.456 101.533 L 85.456 101.533 L 85.456 101.533 Q 85.356 101.753 85.356 101.993 L 85.356 101.993 L 85.356 101.993 Q 85.356 101.753 85.456 101.533 L 85.456 101.533 L 85.456 101.533 Q 85.556 101.313 85.776 101.138 L 85.776 101.138 L 85.776 101.138 Q 85.996 100.963 86.346 100.858 L 86.346 100.858 L 86.346 100.858 Q 86.696 100.753 87.206 100.753 L 87.206 100.753 L 87.206 100.753 Q 87.716 100.753 88.021 100.883 L 88.021 100.883 L 88.021 100.883 Q 88.326 101.013 88.491 101.203 L 88.491 101.203 L 88.491 101.203 Q 88.656 101.393 88.711 101.603 L 88.711 101.603 L 88.711 101.603 Q 88.766 101.813 88.766 101.973 L 88.766 101.973 L 88.766 105.263 L 88.766 105.263 Q 88.766 105.493 88.871 105.618 L 88.871 105.618 L 88.871 105.618 Q 88.976 105.743 89.116 105.813 L 89.116 105.813 L 89.116 105.813 Q 89.276 105.893 89.476 105.913 Z  M 94.239 100.753 L 94.239 100.753 L 94.239 100.753 Q 94.669 100.753 95.059 100.873 L 95.059 100.873 L 95.059 100.873 Q 95.449 100.993 95.734 101.293 L 95.734 101.293 L 95.734 101.293 Q 96.019 101.593 96.189 102.088 L 96.189 102.088 L 96.189 102.088 Q 96.359 102.583 96.359 103.333 L 96.359 103.333 L 96.359 103.333 Q 96.359 104.083 96.189 104.578 L 96.189 104.578 L 96.189 104.578 Q 96.019 105.073 95.734 105.373 L 95.734 105.373 L 95.734 105.373 Q 95.449 105.673 95.059 105.793 L 95.059 105.793 L 95.059 105.793 Q 94.669 105.913 94.239 105.913 L 94.239 105.913 L 94.239 105.913 Q 93.799 105.913 93.419 105.793 L 93.419 105.793 L 93.419 105.793 Q 93.039 105.673 92.749 105.373 L 92.749 105.373 L 92.749 105.373 Q 92.459 105.073 92.294 104.578 L 92.294 104.578 L 92.294 104.578 Q 92.129 104.083 92.129 103.333 L 92.129 103.333 L 92.129 103.333 Q 92.129 102.583 92.294 102.088 L 92.294 102.088 L 92.294 102.088 Q 92.459 101.593 92.749 101.293 L 92.749 101.293 L 92.749 101.293 Q 93.039 100.993 93.419 100.873 L 93.419 100.873 L 93.419 100.873 Q 93.799 100.753 94.239 100.753 Z  M 94.239 100.753 L 94.239 100.753 L 94.239 100.753 Q 94.669 100.753 95.059 100.873 L 95.059 100.873 L 95.059 100.873 Q 95.449 100.993 95.734 101.293 L 95.734 101.293 L 95.734 101.293 Q 96.019 101.593 96.189 102.088 L 96.189 102.088 L 96.189 102.088 Q 96.359 102.583 96.359 103.333 L 96.359 103.333 L 96.359 103.333 Q 96.359 104.083 96.189 104.578 L 96.189 104.578 L 96.189 104.578 Q 96.019 105.073 95.734 105.373 L 95.734 105.373 L 95.734 105.373 Q 95.449 105.673 95.059 105.793 L 95.059 105.793 L 95.059 105.793 Q 94.669 105.913 94.239 105.913 L 94.239 105.913 L 94.239 105.913 Q 93.799 105.913 93.419 105.793 L 93.419 105.793 L 93.419 105.793 Q 93.039 105.673 92.749 105.373 L 92.749 105.373 L 92.749 105.373 Q 92.459 105.073 92.294 104.578 L 92.294 104.578 L 92.294 104.578 Q 92.129 104.083 92.129 103.333 L 92.129 103.333 L 92.129 103.333 Q 92.129 102.583 92.294 102.088 L 92.294 102.088 L 92.294 102.088 Q 92.459 101.593 92.749 101.293 L 92.749 101.293 L 92.749 101.293 Q 93.039 100.993 93.419 100.873 L 93.419 100.873 L 93.419 100.873 Q 93.799 100.753 94.239 100.753 Z  M 96.369 98.683 L 96.369 105.913 L 96.369 98.683 L 96.369 98.683 Z  M 100.153 103.173 L 104.623 103.173 L 104.623 103.173 Q 104.623 102.753 104.528 102.308 L 104.528 102.308 L 104.528 102.308 Q 104.433 101.863 104.203 101.493 L 104.203 101.493 L 104.203 101.493 Q 103.973 101.123 103.583 100.883 L 103.583 100.883 L 103.583 100.883 Q 103.193 100.643 102.593 100.643 L 102.593 100.643 L 102.593 100.643 Q 102.003 100.643 101.543 100.838 L 101.543 100.838 L 101.543 100.838 Q 101.083 101.033 100.773 101.388 L 100.773 101.388 L 100.773 101.388 Q 100.463 101.743 100.303 102.248 L 100.303 102.248 L 100.303 102.248 Q 100.143 102.753 100.143 103.373 L 100.143 103.373 L 100.143 103.373 Q 100.143 103.993 100.338 104.468 L 100.338 104.468 L 100.338 104.468 Q 100.533 104.943 100.868 105.258 L 100.868 105.258 L 100.868 105.258 Q 101.203 105.573 101.648 105.733 L 101.648 105.733 L 101.648 105.733 Q 102.093 105.893 102.593 105.873 L 102.593 105.873 L 102.593 105.873 Q 103.093 105.863 103.458 105.683 L 103.458 105.683 L 103.458 105.683 Q 103.823 105.503 104.063 105.273 L 104.063 105.273 L 104.063 105.273 Q 104.303 105.043 104.428 104.803 L 104.428 104.803 L 104.428 104.803 Q 104.553 104.563 104.583 104.423 L 104.583 104.423 L 104.583 104.423 Q 104.553 104.563 104.428 104.803 L 104.428 104.803 L 104.428 104.803 Q 104.303 105.043 104.063 105.273 L 104.063 105.273 L 104.063 105.273 Q 103.823 105.503 103.458 105.683 L 103.458 105.683 L 103.458 105.683 Q 103.093 105.863 102.593 105.873 L 102.593 105.873 L 102.593 105.873 Q 102.093 105.893 101.648 105.733 L 101.648 105.733 L 101.648 105.733 Q 101.203 105.573 100.868 105.258 L 100.868 105.258 L 100.868 105.258 Q 100.533 104.943 100.338 104.468 L 100.338 104.468 L 100.338 104.468 Q 100.143 103.993 100.143 103.373 L 100.143 103.373 L 100.143 103.373 Q 100.143 102.753 100.303 102.248 L 100.303 102.248 L 100.303 102.248 Q 100.463 101.743 100.773 101.388 L 100.773 101.388 L 100.773 101.388 Q 101.083 101.033 101.543 100.838 L 101.543 100.838 L 101.543 100.838 Q 102.003 100.643 102.593 100.643 L 102.593 100.643 L 102.593 100.643 Q 103.193 100.643 103.583 100.883 L 103.583 100.883 L 103.583 100.883 Q 103.973 101.123 104.203 101.493 L 104.203 101.493 L 104.203 101.493 Q 104.433 101.863 104.528 102.308 L 104.528 102.308 L 104.528 102.308 Q 104.623 102.753 104.623 103.173 L 104.623 103.173 L 100.153 103.173 L 100.153 103.173 Z " fill-rule="evenodd" fill="rgb(255,255,255)" vector-effect="non-scaling-stroke" stroke-width="1" stroke="rgb(0,0,0)" stroke-linejoin="miter" stroke-linecap="square" stroke-miterlimit="3"/></g></g></svg>