<?xml version="1.0" encoding="UTF-8" standalone="no"?>
<!-- Generator: Gravit.io -->
<svg xmlns="http://www.w3.org/2000/svg" xmlns:xlink="http://www.w3.org/1999/xlink" style="isolation:isolate" viewBox="0 0 396.85 226.772" width="396.85" height="226.772"><defs><clipPath id="_clipPath_VAgmyEGshFkwpcihn6AVTnuKGisMA7Dj"><rect width="396.85" height="226.772"/></clipPath></defs><g clip-path="url(#_clipPath_VAgmyEGshFkwpcihn6AVTnuKGisMA7Dj)"><g><circle vector-effect="non-scaling-stroke" cx="113.38582677165354" cy="113.38582677165354" r="100.62992125984252" fill="none" stroke-width="1" stroke="rgb(255,0,0)" stroke-linejoin="miter" stroke-linecap="square" stroke-miterlimit="3"/><path d=" M 34.685 56.536 C 66.061 13.099 126.8 3.308 170.236 34.685 C 213.672 66.061 223.463 126.8 192.087 170.236 C 160.711 213.672 99.972 223.463 56.536 192.087 C 13.099 160.711 3.308 99.972 34.685 56.536 Z " fill="none"/><path d=" M 61.486 30.687 L 64.221 34.722 L 62.643 35.792 L 60.978 33.336 L 59.484 34.348 L 64.852 42.267 L 66.609 41.076 L 67.679 42.655 L 62.417 46.222 L 61.347 44.643 L 63.095 43.458 L 57.727 35.539 L 56.216 36.564 L 57.881 39.02 L 56.32 40.078 L 53.584 36.044 L 61.486 30.687 Z  M 82.349 20.852 L 85.316 28.938 L 85.316 28.938 Q 85.708 30.007 85.79 30.96 L 85.79 30.96 L 85.79 30.96 Q 85.872 31.913 85.601 32.706 L 85.601 32.706 L 85.601 32.706 Q 85.329 33.499 84.692 34.115 L 84.692 34.115 L 84.692 34.115 Q 84.055 34.731 83.016 35.112 L 83.016 35.112 L 83.016 35.112 Q 81.966 35.497 81.097 35.434 L 81.097 35.434 L 81.097 35.434 Q 80.227 35.371 79.507 34.942 L 79.507 34.942 L 79.507 34.942 Q 78.787 34.512 78.23 33.723 L 78.23 33.723 L 78.23 33.723 Q 77.672 32.933 77.28 31.865 L 77.28 31.865 L 74.321 23.798 L 76.313 23.067 L 79.283 31.16 L 79.283 31.16 Q 79.456 31.632 79.709 32.113 L 79.709 32.113 L 79.709 32.113 Q 79.962 32.594 80.328 32.952 L 80.328 32.952 L 80.328 32.952 Q 80.694 33.31 81.199 33.436 L 81.199 33.436 L 81.199 33.436 Q 81.704 33.562 82.359 33.322 L 82.359 33.322 L 82.359 33.322 Q 83.004 33.085 83.307 32.662 L 83.307 32.662 L 83.307 32.662 Q 83.611 32.239 83.677 31.734 L 83.677 31.734 L 83.677 31.734 Q 83.743 31.229 83.621 30.689 L 83.621 30.689 L 83.621 30.689 Q 83.499 30.149 83.326 29.677 L 83.326 29.677 L 80.356 21.583 L 82.349 20.852 Z  M 103.127 24.268 L 107.537 29.333 L 104.867 29.634 L 100.817 24.642 L 99.859 24.75 L 100.465 30.13 L 98.356 30.367 L 96.858 17.07 L 101.239 16.577 L 101.239 16.577 Q 103.43 16.33 104.755 17.197 L 104.755 17.197 L 104.755 17.197 Q 106.081 18.064 106.303 20.03 L 106.303 20.03 L 106.303 20.03 Q 106.401 20.907 106.207 21.604 L 106.207 21.604 L 106.207 21.604 Q 106.012 22.302 105.572 22.837 L 105.572 22.837 L 105.572 22.837 Q 105.131 23.371 104.506 23.726 L 104.506 23.726 L 104.506 23.726 Q 103.88 24.08 103.127 24.268 L 103.127 24.268 Z  M 104.189 20.227 L 104.189 20.227 L 104.189 20.227 Q 104.074 19.208 103.349 18.774 L 103.349 18.774 L 103.349 18.774 Q 102.624 18.34 101.453 18.472 L 101.453 18.472 L 99.18 18.728 L 99.643 22.834 L 101.915 22.578 L 101.915 22.578 Q 103.087 22.446 103.697 21.861 L 103.697 21.861 L 103.697 21.861 Q 104.307 21.277 104.189 20.227 Z  M 126.276 28.032 L 126.123 29.933 L 119.725 29.419 L 119.878 27.518 L 121.983 27.687 L 122.748 18.151 L 120.643 17.982 L 120.795 16.081 L 127.193 16.594 L 127.041 18.495 L 124.864 18.321 L 124.099 27.857 L 126.276 28.032 Z  M 150.975 23.05 L 146.687 35.726 L 144.356 34.938 L 143.705 24.477 L 140.597 33.666 L 138.586 32.986 L 142.874 20.31 L 145.4 21.164 L 146.011 31.102 L 148.965 22.37 L 150.975 23.05 Z  M 168.932 40.679 L 168.747 40.963 L 168.747 40.963 Q 168.004 42.107 167.1 42.999 L 167.1 42.999 L 167.1 42.999 Q 166.196 43.891 165.156 44.353 L 165.156 44.353 L 165.156 44.353 Q 164.117 44.814 162.985 44.758 L 162.985 44.758 L 162.985 44.758 Q 161.854 44.701 160.677 43.936 L 160.677 43.936 L 160.677 43.936 Q 159.499 43.171 158.999 42.155 L 158.999 42.155 L 158.999 42.155 Q 158.499 41.139 158.496 39.999 L 158.496 39.999 L 158.496 39.999 Q 158.493 38.86 158.945 37.662 L 158.945 37.662 L 158.945 37.662 Q 159.398 36.465 160.13 35.338 L 160.13 35.338 L 160.13 35.338 Q 160.862 34.212 161.772 33.311 L 161.772 33.311 L 161.772 33.311 Q 162.682 32.411 163.728 31.941 L 163.728 31.941 L 163.728 31.941 Q 164.774 31.471 165.908 31.517 L 165.908 31.517 L 165.908 31.517 Q 167.041 31.563 168.221 32.329 L 168.221 32.329 L 168.221 32.329 Q 168.556 32.548 168.848 32.872 L 168.848 32.872 L 168.848 32.872 Q 169.139 33.196 169.332 33.596 L 169.332 33.596 L 169.332 33.596 Q 169.525 33.997 169.586 34.44 L 169.586 34.44 L 169.586 34.44 Q 169.647 34.883 169.51 35.32 L 169.51 35.32 L 170.37 33.996 L 171.97 35.035 L 169.382 39.016 L 167.783 37.976 L 167.783 37.976 Q 168.124 37.452 168.265 36.877 L 168.265 36.877 L 168.265 36.877 Q 168.406 36.303 168.335 35.754 L 168.335 35.754 L 168.335 35.754 Q 168.263 35.206 167.973 34.731 L 167.973 34.731 L 167.973 34.731 Q 167.683 34.255 167.184 33.931 L 167.184 33.931 L 167.184 33.931 Q 166.428 33.439 165.7 33.505 L 165.7 33.505 L 165.7 33.505 Q 164.972 33.57 164.289 33.983 L 164.289 33.983 L 164.289 33.983 Q 163.605 34.395 163.002 35.069 L 163.002 35.069 L 163.002 35.069 Q 162.399 35.742 161.907 36.499 L 161.907 36.499 L 161.907 36.499 Q 161.415 37.257 161.044 38.081 L 161.044 38.081 L 161.044 38.081 Q 160.673 38.904 160.567 39.687 L 160.567 39.687 L 160.567 39.687 Q 160.462 40.469 160.711 41.157 L 160.711 41.157 L 160.711 41.157 Q 160.96 41.845 161.716 42.337 L 161.716 42.337 L 161.716 42.337 Q 162.808 43.046 163.932 42.784 L 163.932 42.784 L 163.932 42.784 Q 165.057 42.521 166.259 41.217 L 166.259 41.217 L 163.895 39.681 L 164.934 38.081 L 168.932 40.679 Z  M 188.705 51.025 L 182.627 56.641 L 182.627 56.641 Q 180.759 58.367 178.997 58.522 L 178.997 58.522 L 178.997 58.522 Q 177.235 58.678 175.725 57.043 L 175.725 57.043 L 175.725 57.043 Q 174.514 55.733 174.378 54.211 L 174.378 54.211 L 174.378 54.211 Q 174.243 52.689 175.289 51.066 L 175.289 51.066 L 177.11 51.98 L 177.11 51.98 Q 176.431 53.013 176.392 53.963 L 176.392 53.963 L 176.392 53.963 Q 176.353 54.913 177.126 55.749 L 177.126 55.749 L 177.126 55.749 Q 177.592 56.254 178.099 56.386 L 178.099 56.386 L 178.099 56.386 Q 178.605 56.518 179.122 56.382 L 179.122 56.382 L 179.122 56.382 Q 179.64 56.246 180.162 55.897 L 180.162 55.897 L 180.162 55.897 Q 180.684 55.547 181.181 55.087 L 181.181 55.087 L 187.264 49.466 L 188.705 51.025 Z  M 192.984 75.716 L 192.984 75.716 L 192.984 75.716 Q 192.172 76.155 191.387 76.224 L 191.387 76.224 L 191.387 76.224 Q 190.603 76.292 189.905 76.058 L 189.905 76.058 L 189.905 76.058 Q 189.207 75.823 188.619 75.296 L 188.619 75.296 L 188.619 75.296 Q 188.031 74.768 187.631 74.029 L 187.631 74.029 L 187.631 74.029 Q 187.182 73.199 187.121 72.37 L 187.121 72.37 L 187.121 72.37 Q 187.06 71.54 187.49 70.69 L 187.49 70.69 L 186.41 71.274 L 185.503 69.596 L 189.352 67.516 L 190.258 69.194 L 190.258 69.194 Q 189.681 69.506 189.349 69.947 L 189.349 69.947 L 189.349 69.947 Q 189.017 70.389 188.896 70.886 L 188.896 70.886 L 188.896 70.886 Q 188.775 71.382 188.857 71.909 L 188.857 71.909 L 188.857 71.909 Q 188.938 72.436 189.206 72.933 L 189.206 72.933 L 189.206 72.933 Q 189.66 73.771 190.325 74.076 L 190.325 74.076 L 190.325 74.076 Q 190.991 74.381 191.838 73.923 L 191.838 73.923 L 191.838 73.923 Q 192.28 73.684 192.51 73.356 L 192.51 73.356 L 192.51 73.356 Q 192.74 73.028 192.829 72.601 L 192.829 72.601 L 192.829 72.601 Q 192.919 72.173 192.874 71.65 L 192.874 71.65 L 192.874 71.65 Q 192.83 71.126 192.745 70.472 L 192.745 70.472 L 192.745 70.472 Q 192.615 69.715 192.539 68.928 L 192.539 68.928 L 192.539 68.928 Q 192.463 68.142 192.587 67.422 L 192.587 67.422 L 192.587 67.422 Q 192.711 66.703 193.121 66.073 L 193.121 66.073 L 193.121 66.073 Q 193.532 65.443 194.415 64.966 L 194.415 64.966 L 194.415 64.966 Q 195.19 64.547 195.925 64.517 L 195.925 64.517 L 195.925 64.517 Q 196.66 64.487 197.313 64.746 L 197.313 64.746 L 197.313 64.746 Q 197.965 65.005 198.507 65.523 L 198.507 65.523 L 198.507 65.523 Q 199.049 66.04 199.429 66.744 L 199.429 66.744 L 199.429 66.744 Q 199.868 67.556 199.839 68.323 L 199.839 68.323 L 199.839 68.323 Q 199.811 69.09 199.413 69.713 L 199.413 69.713 L 200.469 69.142 L 201.375 70.82 L 197.713 72.799 L 196.806 71.122 L 196.806 71.122 Q 197.844 70.561 198.13 69.701 L 198.13 69.701 L 198.13 69.701 Q 198.417 68.84 197.92 67.92 L 197.92 67.92 L 197.92 67.92 Q 197.481 67.108 196.812 66.776 L 196.812 66.776 L 196.812 66.776 Q 196.143 66.444 195.458 66.815 L 195.458 66.815 L 195.458 66.815 Q 195.106 67.005 194.934 67.279 L 194.934 67.279 L 194.934 67.279 Q 194.761 67.553 194.702 67.929 L 194.702 67.929 L 194.702 67.929 Q 194.643 68.305 194.686 68.806 L 194.686 68.806 L 194.686 68.806 Q 194.73 69.307 194.81 69.951 L 194.81 69.951 L 194.81 69.951 Q 194.936 70.745 194.994 71.565 L 194.994 71.565 L 194.994 71.565 Q 195.052 72.384 194.902 73.141 L 194.902 73.141 L 194.902 73.141 Q 194.752 73.898 194.314 74.566 L 194.314 74.566 L 194.314 74.566 Q 193.877 75.234 192.984 75.716 Z  M 202.594 90.547 L 196.19 97.023 L 195.562 94.623 L 200.706 89.653 L 199.471 89.064 L 194.452 90.377 L 193.915 88.323 L 206.861 84.938 L 207.398 86.991 L 202.318 88.32 L 208.451 91.019 L 209.141 93.658 L 202.594 90.547 Z  M 199.628 117.523 L 197.721 117.553 L 197.652 113.186 L 199.559 113.156 L 199.571 113.914 L 202.573 112.462 L 199.526 111.105 L 199.538 111.854 L 197.631 111.884 L 197.563 107.557 L 199.47 107.527 L 199.488 108.686 L 204.384 111.213 L 209.054 108.575 L 209.039 107.612 L 210.946 107.582 L 211.013 111.826 L 209.106 111.856 L 209.093 110.995 L 206.141 112.406 L 209.136 113.743 L 209.123 112.902 L 211.03 112.872 L 211.097 117.137 L 209.19 117.167 L 209.174 116.132 L 204.422 113.653 L 199.609 116.334 L 199.628 117.523 Z  M 194.181 137.991 L 194.699 135.827 L 198.025 135.633 L 199.057 131.325 L 196.175 129.665 L 196.694 127.501 L 208.735 134.676 L 208.166 137.049 L 194.181 137.991 Z  M 205.728 135.211 L 200.75 132.31 L 199.981 135.521 L 205.728 135.211 Z  M 188.15 156.44 L 186.455 155.565 L 190.377 147.966 L 202.268 154.102 L 198.347 161.702 L 196.652 160.827 L 199.6 155.114 L 196.301 153.411 L 194.002 157.867 L 192.307 156.993 L 194.607 152.537 L 191.098 150.727 L 188.15 156.44 Z  M 184.253 180.653 L 174.236 171.781 L 175.643 170.192 L 180.026 174.074 L 182.881 170.85 L 178.498 166.968 L 179.906 165.379 L 189.923 174.251 L 188.516 175.84 L 184.309 172.114 L 181.454 175.338 L 185.66 179.064 L 184.253 180.653 Z  M 165.442 196.083 L 164.371 194.505 L 165.168 193.963 L 164.241 187.322 L 162.246 184.384 L 160.473 185.587 L 159.402 184.009 L 164.696 180.416 L 165.767 181.993 L 164.003 183.191 L 165.997 186.13 L 171.819 189.448 L 172.617 188.907 L 173.688 190.485 L 170.201 192.852 L 169.13 191.274 L 169.893 190.755 L 166.274 188.454 L 167.094 192.656 L 167.857 192.138 L 168.929 193.716 L 165.442 196.083 Z  M 145.458 205.826 L 144.716 204.069 L 150.638 201.567 L 149.193 198.147 L 144.574 200.099 L 143.832 198.342 L 148.451 196.391 L 146.172 190.997 L 148.128 190.171 L 153.335 202.497 L 145.458 205.826 Z  M 122.836 210.546 L 120.645 210.793 L 121.207 197.264 L 123.377 197.019 L 125.195 202.624 L 125.7 196.758 L 127.871 196.513 L 131.426 209.579 L 129.235 209.826 L 127.004 201.007 L 126.617 206.272 L 124.599 206.499 L 123.081 201.448 L 122.836 210.546 Z  M 98.316 205.834 L 98.316 205.834 L 98.316 205.834 Q 98.573 203.841 99.908 203.025 L 99.908 203.025 L 99.908 203.025 Q 101.243 202.21 103.409 202.488 L 103.409 202.488 L 105.698 202.783 L 106.388 197.413 L 108.494 197.684 L 106.786 210.956 L 102.413 210.393 L 102.413 210.393 Q 100.226 210.112 99.145 208.954 L 99.145 208.954 L 99.145 208.954 Q 98.064 207.797 98.316 205.834 Z  M 100.418 206.136 L 100.418 206.136 L 100.418 206.136 Q 100.286 207.158 100.886 207.754 L 100.886 207.754 L 100.886 207.754 Q 101.487 208.351 102.636 208.499 L 102.636 208.499 L 104.924 208.793 L 105.454 204.674 L 103.166 204.38 L 103.166 204.38 Q 102.017 204.232 101.285 204.658 L 101.285 204.658 L 101.285 204.658 Q 100.553 205.083 100.418 206.136 Z  M 86.792 200.648 L 86.792 200.648 L 86.792 200.648 Q 86.298 201.897 85.571 202.955 L 85.571 202.955 L 85.571 202.955 Q 84.844 204.013 83.931 204.677 L 83.931 204.677 L 83.931 204.677 Q 83.018 205.342 81.895 205.521 L 81.895 205.521 L 81.895 205.521 Q 80.771 205.7 79.484 205.191 L 79.484 205.191 L 79.484 205.191 Q 78.196 204.682 77.498 203.783 L 77.498 203.783 L 77.498 203.783 Q 76.801 202.884 76.579 201.771 L 76.579 201.771 L 76.579 201.771 Q 76.358 200.657 76.56 199.391 L 76.56 199.391 L 76.56 199.391 Q 76.763 198.125 77.257 196.875 L 77.257 196.875 L 77.257 196.875 Q 77.713 195.721 78.339 194.738 L 78.339 194.738 L 78.339 194.738 Q 78.964 193.755 79.776 193.082 L 79.776 193.082 L 79.776 193.082 Q 80.587 192.41 81.552 192.102 L 81.552 192.102 L 81.552 192.102 Q 82.517 191.794 83.644 192.04 L 83.644 192.04 L 83.644 192.04 Q 83.922 191.058 83.373 190.438 L 83.373 190.438 L 83.373 190.438 Q 82.824 189.819 81.555 189.317 L 81.555 189.317 L 81.555 189.317 Q 81.384 189.25 81.175 189.178 L 81.175 189.178 L 81.175 189.178 Q 80.966 189.107 80.747 189.02 L 80.747 189.02 L 81.44 187.265 L 81.44 187.265 Q 81.724 187.355 81.981 187.446 L 81.981 187.446 L 81.981 187.446 Q 82.237 187.536 82.476 187.63 L 82.476 187.63 L 82.476 187.63 Q 84.402 188.391 85.255 189.748 L 85.255 189.748 L 85.255 189.748 Q 86.108 191.105 85.668 192.916 L 85.668 192.916 L 85.668 192.916 Q 86.55 193.529 87.011 194.4 L 87.011 194.4 L 87.011 194.4 Q 87.472 195.272 87.565 196.29 L 87.565 196.29 L 87.565 196.29 Q 87.659 197.308 87.444 198.425 L 87.444 198.425 L 87.444 198.425 Q 87.229 199.542 86.792 200.648 Z  M 84.818 199.868 L 84.818 199.868 L 84.818 199.868 Q 85.149 199.029 85.352 198.138 L 85.352 198.138 L 85.352 198.138 Q 85.555 197.248 85.507 196.463 L 85.507 196.463 L 85.507 196.463 Q 85.459 195.678 85.082 195.055 L 85.082 195.055 L 85.082 195.055 Q 84.705 194.432 83.866 194.1 L 83.866 194.1 L 83.866 194.1 Q 83.027 193.769 82.326 193.966 L 82.326 193.966 L 82.326 193.966 Q 81.625 194.163 81.053 194.703 L 81.053 194.703 L 81.053 194.703 Q 80.482 195.244 80.021 196.032 L 80.021 196.032 L 80.021 196.032 Q 79.561 196.82 79.229 197.66 L 79.229 197.66 L 79.229 197.66 Q 78.898 198.499 78.699 199.379 L 78.699 199.379 L 78.699 199.379 Q 78.499 200.26 78.546 201.05 L 78.546 201.05 L 78.546 201.05 Q 78.592 201.84 78.978 202.467 L 78.978 202.467 L 78.978 202.467 Q 79.364 203.093 80.184 203.417 L 80.184 203.417 L 80.184 203.417 Q 81.548 203.956 82.75 203.009 L 82.75 203.009 L 82.75 203.009 Q 83.951 202.061 84.818 199.868 Z  M 60.442 183.788 L 60.442 183.788 L 60.442 183.788 Q 61.436 182.259 62.979 182.162 L 62.979 182.162 L 62.979 182.162 Q 64.522 182.064 66.439 183.311 L 66.439 183.311 L 70.015 185.635 L 62.724 196.855 L 59.345 194.659 L 59.345 194.659 Q 58.64 194.201 58.036 193.643 L 58.036 193.643 L 58.036 193.643 Q 57.432 193.086 57.102 192.418 L 57.102 192.418 L 57.102 192.418 Q 56.771 191.751 56.808 190.96 L 56.808 190.96 L 56.808 190.96 Q 56.844 190.17 57.437 189.258 L 57.437 189.258 L 57.437 189.258 Q 57.991 188.406 58.884 187.983 L 58.884 187.983 L 58.884 187.983 Q 59.776 187.56 60.855 187.82 L 60.855 187.82 L 60.855 187.82 Q 59.998 186.786 59.86 185.841 L 59.86 185.841 L 59.86 185.841 Q 59.722 184.896 60.442 183.788 Z  M 59.349 190.174 L 59.349 190.174 L 59.349 190.174 Q 59.029 190.667 59.011 191.098 L 59.011 191.098 L 59.011 191.098 Q 58.994 191.529 59.177 191.888 L 59.177 191.888 L 59.177 191.888 Q 59.36 192.247 59.687 192.533 L 59.687 192.533 L 59.687 192.533 Q 60.014 192.82 60.384 193.06 L 60.384 193.06 L 61.983 194.099 L 64.006 190.987 L 62.407 189.948 L 62.407 189.948 Q 62.037 189.707 61.642 189.524 L 61.642 189.524 L 61.642 189.524 Q 61.247 189.342 60.846 189.32 L 60.846 189.32 L 60.846 189.32 Q 60.444 189.299 60.057 189.49 L 60.057 189.49 L 60.057 189.49 Q 59.669 189.681 59.349 190.174 Z  M 62.086 185.116 L 62.086 185.116 L 62.086 185.116 Q 61.538 185.959 61.864 186.746 L 61.864 186.746 L 61.864 186.746 Q 62.191 187.533 63.248 188.22 L 63.248 188.22 L 65.045 189.388 L 67.196 186.078 L 65.4 184.91 L 65.4 184.91 Q 64.342 184.222 63.488 184.248 L 63.488 184.248 L 63.488 184.248 Q 62.633 184.274 62.086 185.116 Z  M 45.369 170.845 L 44.696 169.15 L 44.696 169.15 Q 45.587 168.662 46.453 168.42 L 46.453 168.42 L 46.453 168.42 Q 47.32 168.177 48.132 168.23 L 48.132 168.23 L 48.132 168.23 Q 48.944 168.282 49.701 168.65 L 49.701 168.65 L 49.701 168.65 Q 50.458 169.019 51.147 169.764 L 51.147 169.764 L 51.147 169.764 Q 52.1 170.796 52.335 171.904 L 52.335 171.904 L 52.335 171.904 Q 52.57 173.012 52.281 174.127 L 52.281 174.127 L 52.281 174.127 Q 51.992 175.243 51.263 176.289 L 51.263 176.289 L 51.263 176.289 Q 50.533 177.335 49.546 178.246 L 49.546 178.246 L 49.546 178.246 Q 48.56 179.158 47.456 179.807 L 47.456 179.807 L 47.456 179.807 Q 46.353 180.456 45.238 180.654 L 45.238 180.654 L 45.238 180.654 Q 44.123 180.853 43.056 180.552 L 43.056 180.552 L 43.056 180.552 Q 41.99 180.252 41.063 179.249 L 41.063 179.249 L 41.063 179.249 Q 40.763 178.924 40.54 178.516 L 40.54 178.516 L 40.54 178.516 Q 40.316 178.108 40.221 177.665 L 40.221 177.665 L 40.221 177.665 Q 40.125 177.221 40.175 176.777 L 40.175 176.777 L 40.175 176.777 Q 40.225 176.332 40.465 175.943 L 40.465 175.943 L 39.306 177.014 L 38.011 175.613 L 41.732 172.176 L 43.026 173.577 L 43.026 173.577 Q 42.567 174.001 42.223 174.528 L 42.223 174.528 L 42.223 174.528 Q 41.879 175.055 41.762 175.624 L 41.762 175.624 L 41.762 175.624 Q 41.646 176.192 41.775 176.771 L 41.775 176.771 L 41.775 176.771 Q 41.905 177.349 42.378 177.861 L 42.378 177.861 L 42.378 177.861 Q 42.99 178.524 43.704 178.646 L 43.704 178.646 L 43.704 178.646 Q 44.418 178.769 45.182 178.537 L 45.182 178.537 L 45.182 178.537 Q 45.947 178.305 46.696 177.801 L 46.696 177.801 L 46.696 177.801 Q 47.446 177.297 48.11 176.684 L 48.11 176.684 L 48.11 176.684 Q 48.773 176.071 49.343 175.356 L 49.343 175.356 L 49.343 175.356 Q 49.913 174.642 50.208 173.91 L 50.208 173.91 L 50.208 173.91 Q 50.502 173.178 50.43 172.449 L 50.43 172.449 L 50.43 172.449 Q 50.358 171.721 49.746 171.059 L 49.746 171.059 L 49.746 171.059 Q 48.862 170.102 47.775 170.151 L 47.775 170.151 L 47.775 170.151 Q 46.687 170.2 45.369 170.845 L 45.369 170.845 Z  M 33.058 152.038 L 37.324 149.731 L 41.392 157.253 L 39.731 158.152 L 28.45 157.443 L 30.391 161.033 L 32.956 159.646 L 33.864 161.324 L 29.621 163.618 L 25.636 156.249 L 27.323 155.337 L 38.495 155.906 L 36.539 152.289 L 33.95 153.688 L 33.058 152.038 Z  M 18.2 134.939 L 17.637 132.786 L 31.639 133.441 L 32.251 135.783 L 20.359 143.203 L 19.797 141.051 L 29.244 135.307 L 18.2 134.939 Z  M 22.62 119.733 L 22.62 119.733 L 22.62 119.733 Q 21.277 119.755 20.022 119.488 L 20.022 119.488 L 20.022 119.488 Q 18.766 119.221 17.803 118.631 L 17.803 118.631 L 17.803 118.631 Q 16.84 118.042 16.245 117.072 L 16.245 117.072 L 16.245 117.072 Q 15.65 116.102 15.628 114.718 L 15.628 114.718 L 15.628 114.718 Q 15.606 113.334 16.169 112.345 L 16.169 112.345 L 16.169 112.345 Q 16.733 111.357 17.676 110.727 L 17.676 110.727 L 17.676 110.727 Q 18.62 110.096 19.866 109.799 L 19.866 109.799 L 19.866 109.799 Q 21.113 109.502 22.456 109.481 L 22.456 109.481 L 22.456 109.481 Q 23.799 109.459 25.049 109.716 L 25.049 109.716 L 25.049 109.716 Q 26.299 109.973 27.278 110.562 L 27.278 110.562 L 27.278 110.562 Q 28.256 111.152 28.851 112.122 L 28.851 112.122 L 28.851 112.122 Q 29.446 113.091 29.469 114.496 L 29.469 114.496 L 29.469 114.496 Q 29.491 115.901 28.928 116.889 L 28.928 116.889 L 28.928 116.889 Q 28.364 117.877 27.405 118.503 L 27.405 118.503 L 27.405 118.503 Q 26.446 119.129 25.205 119.42 L 25.205 119.42 L 25.205 119.42 Q 23.963 119.712 22.62 119.733 Z  M 22.591 117.611 L 22.591 117.611 L 22.591 117.611 Q 23.495 117.597 24.395 117.444 L 24.395 117.444 L 24.395 117.444 Q 25.296 117.291 26.004 116.946 L 26.004 116.946 L 26.004 116.946 Q 26.712 116.601 27.144 116.015 L 27.144 116.015 L 27.144 116.015 Q 27.576 115.429 27.562 114.527 L 27.562 114.527 L 27.562 114.527 Q 27.547 113.624 27.097 113.052 L 27.097 113.052 L 27.097 113.052 Q 26.646 112.48 25.928 112.158 L 25.928 112.158 L 25.928 112.158 Q 25.209 111.836 24.304 111.712 L 24.304 111.712 L 24.304 111.712 Q 23.398 111.589 22.495 111.603 L 22.495 111.603 L 22.495 111.603 Q 21.592 111.618 20.701 111.77 L 20.701 111.77 L 20.701 111.77 Q 19.811 111.923 19.097 112.268 L 19.097 112.268 L 19.097 112.268 Q 18.384 112.612 17.953 113.209 L 17.953 113.209 L 17.953 113.209 Q 17.521 113.806 17.535 114.687 L 17.535 114.687 L 17.535 114.687 Q 17.558 116.153 18.895 116.901 L 18.895 116.901 L 18.895 116.901 Q 20.231 117.649 22.591 117.611 Z  M 19.216 87.287 L 32.285 90.161 L 31.829 92.234 L 22.986 90.289 L 27.394 92.634 L 27.042 94.236 L 22.061 94.495 L 30.904 96.44 L 30.448 98.513 L 17.379 95.639 L 17.921 93.175 L 24.204 92.772 L 18.669 89.77 L 19.216 87.287 Z  M 38.587 70.608 L 40.282 71.482 L 36.362 79.082 L 24.47 72.948 L 25.443 71.062 L 35.64 76.322 L 38.587 70.608 Z  M 48.059 50.082 L 48.059 50.082 L 48.059 50.082 Q 49.065 50.973 49.787 51.989 L 49.787 51.989 L 49.787 51.989 Q 50.51 53.006 50.786 54.079 L 50.786 54.079 L 50.786 54.079 Q 51.061 55.152 50.819 56.245 L 50.819 56.245 L 50.819 56.245 Q 50.576 57.339 49.658 58.375 L 49.658 58.375 L 46.775 61.629 L 36.759 52.756 L 39.642 49.502 L 39.642 49.502 Q 40.546 48.481 41.606 48.112 L 41.606 48.112 L 41.606 48.112 Q 42.666 47.743 43.76 47.883 L 43.76 47.883 L 43.76 47.883 Q 44.855 48.024 45.954 48.608 L 45.954 48.608 L 45.954 48.608 Q 47.054 49.191 48.059 50.082 Z  M 46.648 51.667 L 46.648 51.667 L 46.648 51.667 Q 44.911 50.129 43.47 49.907 L 43.47 49.907 L 43.47 49.907 Q 42.028 49.684 41.069 50.767 L 41.069 50.767 L 39.594 52.432 L 46.755 58.776 L 48.231 57.11 L 48.231 57.11 Q 49.189 56.028 48.775 54.607 L 48.775 54.607 L 48.775 54.607 Q 48.361 53.185 46.648 51.667 Z " fill-rule="evenodd" fill="rgb(0,0,0)"/></g><g><g><path d=" M 117.653 96.96 C 123.528 86.848 134.333 80.617 146.028 80.598 C 157.723 80.579 168.549 86.773 174.458 96.866" fill="none" vector-effect="non-scaling-stroke" stroke-width="0.751" stroke="rgb(0,0,0)" stroke-linejoin="round" stroke-linecap="round" stroke-miterlimit="4"/><path d=" M 51.899 96.564 C 51.827 84.723 58.128 73.757 68.395 67.857 C 78.662 61.956 91.309 62.032 101.504 68.056 C 111.699 74.08 117.868 85.121 117.653 96.96" fill="none" vector-effect="non-scaling-stroke" stroke-width="0.751" stroke="rgb(0,0,0)" stroke-linejoin="round" stroke-linecap="round" stroke-miterlimit="4"/><path d=" M 108.712 96.947 C 108.498 85.042 114.738 73.952 125.024 67.954 C 135.31 61.956 148.035 61.988 158.291 68.038 C 168.547 74.087 174.731 85.208 174.458 97.112" fill="none" vector-effect="non-scaling-stroke" stroke-width="0.751" stroke="rgb(0,0,0)" stroke-linejoin="round" stroke-linecap="round" stroke-miterlimit="4"/><path d=" M 66.278 96.825 C 60.671 83.063 64.993 67.251 76.82 58.253 C 88.647 49.256 105.039 49.31 116.807 58.385 C 128.575 67.46 132.792 83.3 127.096 97.026" fill="none" vector-effect="non-scaling-stroke" stroke-width="0.751" stroke="rgb(0,0,0)" stroke-linejoin="round" stroke-linecap="round" stroke-miterlimit="4"/><path d=" M 99.185 96.995 C 93.269 83.194 97.455 67.138 109.356 57.981 C 121.257 48.824 137.85 48.894 149.674 58.151 C 161.497 67.407 165.548 83.498 159.515 97.249" fill="none" vector-effect="non-scaling-stroke" stroke-width="0.751" stroke="rgb(0,0,0)" stroke-linejoin="round" stroke-linecap="round" stroke-miterlimit="4"/><path d=" M 85.081 96.892 C 76.473 83.065 79.286 65.019 91.695 54.467 C 104.103 43.916 122.367 44.04 134.631 54.759 C 146.895 65.478 149.463 83.56 140.668 97.27" fill="none" vector-effect="non-scaling-stroke" stroke-width="0.751" stroke="rgb(0,0,0)" stroke-linejoin="round" stroke-linecap="round" stroke-miterlimit="4"/><path d=" M 51.994 96.955 C 57.869 86.843 68.673 80.612 80.369 80.593 C 92.064 80.574 102.889 86.768 108.798 96.861" fill="none" vector-effect="non-scaling-stroke" stroke-width="0.751" stroke="rgb(0,0,0)" stroke-linejoin="round" stroke-linecap="round" stroke-miterlimit="4"/></g><g><path d=" M 117.653 130.039 C 123.528 140.151 134.333 146.382 146.028 146.401 C 157.723 146.421 168.549 140.226 174.458 130.133" fill="none" vector-effect="non-scaling-stroke" stroke-width="0.751" stroke="rgb(0,0,0)" stroke-linejoin="round" stroke-linecap="round" stroke-miterlimit="4"/><path d=" M 51.899 130.435 C 51.827 142.277 58.128 153.242 68.395 159.143 C 78.662 165.043 91.309 164.967 101.504 158.943 C 111.699 152.919 117.868 141.878 117.653 130.039" fill="none" vector-effect="non-scaling-stroke" stroke-width="0.751" stroke="rgb(0,0,0)" stroke-linejoin="round" stroke-linecap="round" stroke-miterlimit="4"/><path d=" M 108.712 130.052 C 108.498 141.957 114.738 153.047 125.024 159.045 C 135.31 165.043 148.035 165.011 158.291 158.962 C 168.547 152.912 174.731 141.791 174.458 129.887" fill="none" vector-effect="non-scaling-stroke" stroke-width="0.751" stroke="rgb(0,0,0)" stroke-linejoin="round" stroke-linecap="round" stroke-miterlimit="4"/><path d=" M 66.278 130.174 C 60.671 143.936 64.993 159.748 76.82 168.746 C 88.647 177.743 105.039 177.689 116.807 168.614 C 128.575 159.539 132.792 143.699 127.096 129.974" fill="none" vector-effect="non-scaling-stroke" stroke-width="0.751" stroke="rgb(0,0,0)" stroke-linejoin="round" stroke-linecap="round" stroke-miterlimit="4"/><path d=" M 99.185 130.004 C 93.269 143.805 97.455 159.862 109.356 169.018 C 121.257 178.175 137.85 178.105 149.674 168.849 C 161.497 159.592 165.548 143.501 159.515 129.75" fill="none" vector-effect="non-scaling-stroke" stroke-width="0.751" stroke="rgb(0,0,0)" stroke-linejoin="round" stroke-linecap="round" stroke-miterlimit="4"/><path d=" M 85.081 130.107 C 76.473 143.934 79.286 161.98 91.695 172.532 C 104.103 183.083 122.367 182.959 134.631 172.24 C 146.895 161.521 149.463 143.439 140.668 129.729" fill="none" vector-effect="non-scaling-stroke" stroke-width="0.751" stroke="rgb(0,0,0)" stroke-linejoin="round" stroke-linecap="round" stroke-miterlimit="4"/><path d=" M 51.994 130.044 C 57.869 140.156 68.673 146.387 80.369 146.406 C 92.064 146.426 102.889 140.231 108.798 130.138" fill="none" vector-effect="non-scaling-stroke" stroke-width="0.751" stroke="rgb(0,0,0)" stroke-linejoin="round" stroke-linecap="round" stroke-miterlimit="4"/></g></g><g><path d=" M 143.771 100.378 C 143.436 100.41 143.115 100.547 142.856 100.77 C 142.511 101.067 142.298 101.5 142.245 102.017 C 142.23 102.156 142.235 102.441 142.254 102.58 C 142.325 103.099 142.525 103.548 142.907 104.051 C 143.001 104.175 143.287 104.497 143.427 104.635 C 143.633 104.839 143.718 104.917 144.327 105.462 C 144.522 105.635 144.688 105.791 144.802 105.906 C 144.922 106.027 145.104 106.237 145.174 106.334 C 145.239 106.425 145.32 106.562 145.353 106.637 C 145.366 106.666 145.378 106.69 145.38 106.69 C 145.383 106.691 145.386 106.683 145.389 106.674 C 145.395 106.647 145.483 106.486 145.532 106.411 C 145.603 106.304 145.687 106.2 145.814 106.059 C 146.001 105.852 146.136 105.724 146.624 105.29 C 147.182 104.793 147.4 104.582 147.653 104.291 C 148.16 103.71 148.42 103.186 148.506 102.576 C 148.525 102.438 148.527 102.083 148.508 101.953 C 148.45 101.533 148.304 101.201 148.057 100.924 C 147.797 100.632 147.459 100.447 147.074 100.389 C 146.962 100.371 146.748 100.372 146.641 100.389 C 146.17 100.465 145.798 100.733 145.566 101.166 C 145.497 101.295 145.431 101.461 145.398 101.594 C 145.39 101.628 145.382 101.656 145.38 101.656 C 145.378 101.656 145.369 101.628 145.361 101.594 C 145.284 101.286 145.111 100.978 144.903 100.777 C 144.683 100.565 144.424 100.436 144.123 100.39 C 144.032 100.375 143.857 100.37 143.771 100.378 Z " fill="none" vector-effect="non-scaling-stroke" stroke-width="1" stroke="rgb(0,0,0)" stroke-linejoin="miter" stroke-linecap="butt" stroke-miterlimit="4"/><g><line x1="137.006" y1="126.966" x2="137.006" y2="120.408" vector-effect="non-scaling-stroke" stroke-width="1" stroke="rgb(0,0,0)" stroke-linejoin="miter" stroke-linecap="square" stroke-miterlimit="3"/><line x1="134.464" y1="119.342" x2="139.547" y2="119.342" vector-effect="non-scaling-stroke" stroke-width="1" stroke="rgb(0,0,0)" stroke-linejoin="miter" stroke-linecap="square" stroke-miterlimit="3"/><line x1="141.976" y1="127.376" x2="146.921" y2="119.752" vector-effect="non-scaling-stroke" stroke-width="1" stroke="rgb(0,0,0)" stroke-linejoin="miter" stroke-linecap="square" stroke-miterlimit="3"/><line x1="141.976" y1="119.752" x2="146.921" y2="127.376" vector-effect="non-scaling-stroke" stroke-width="1" stroke="rgb(0,0,0)" stroke-linejoin="miter" stroke-linecap="square" stroke-miterlimit="3"/></g><g><path d=" M 114.981 118.905 L 114.981 125.682 C 115.151 126.213 115.439 126.502 115.828 126.529" fill="none" vector-effect="non-scaling-stroke" stroke-width="1" stroke="rgb(0,0,0)" stroke-linejoin="miter" stroke-linecap="square" stroke-miterlimit="3"/><line x1="116.168" y1="121.599" x2="113.647" y2="121.599" vector-effect="non-scaling-stroke" stroke-width="1" stroke="rgb(0,0,0)" stroke-linejoin="miter" stroke-linecap="square" stroke-miterlimit="3"/><line x1="118.37" y1="122.293" x2="118.37" y2="126.529" vector-effect="non-scaling-stroke" stroke-width="1" stroke="rgb(0,0,0)" stroke-linejoin="miter" stroke-linecap="square" stroke-miterlimit="3"/><line x1="118.37" y1="119.752" x2="118.37" y2="120.599" vector-effect="non-scaling-stroke" stroke-width="1" stroke="rgb(0,0,0)" stroke-linejoin="miter" stroke-linecap="square" stroke-miterlimit="3"/><path d=" M 101.47 121.538 L 101.47 126.621 C 102.733 127.072 104.163 127.09 105.706 126.621 L 105.706 121.538" fill="none" vector-effect="non-scaling-stroke" stroke-width="1" stroke="rgb(0,0,0)" stroke-linejoin="miter" stroke-linecap="square" stroke-miterlimit="3"/><path d=" M 121.064 126.793 L 121.064 121.711 L 125.299 121.711 L 125.299 126.793" fill="none" vector-effect="non-scaling-stroke" stroke-width="1" stroke="rgb(0,0,0)" stroke-linejoin="miter" stroke-linecap="square" stroke-miterlimit="3"/><path d=" M 111.788 121.711 L 108.4 121.711 L 108.4 124.252 L 111.788 124.252 L 111.788 126.793 L 108.4 126.793" fill="none" vector-effect="non-scaling-stroke" stroke-width="1" stroke="rgb(0,0,0)" stroke-linejoin="miter" stroke-linecap="square" stroke-miterlimit="3"/><path d=" M 93.249 126.529 L 96.637 118.905 L 100.025 126.529" fill="none" vector-effect="non-scaling-stroke" stroke-width="1" stroke="rgb(0,0,0)" stroke-linejoin="miter" stroke-linecap="square" stroke-miterlimit="3"/><line x1="94.943" y1="123.141" x2="98.331" y2="123.141" vector-effect="non-scaling-stroke" stroke-width="1" stroke="rgb(0,0,0)" stroke-linejoin="miter" stroke-linecap="square" stroke-miterlimit="3"/></g><g><line x1="78.119" y1="122.293" x2="78.119" y2="126.529" vector-effect="non-scaling-stroke" stroke-width="1" stroke="rgb(0,0,0)" stroke-linejoin="miter" stroke-linecap="square" stroke-miterlimit="3"/><line x1="78.119" y1="119.752" x2="78.119" y2="120.599" vector-effect="non-scaling-stroke" stroke-width="1" stroke="rgb(0,0,0)" stroke-linejoin="miter" stroke-linecap="square" stroke-miterlimit="3"/><path d=" M 81.606 126.793 L 81.606 121.711 L 85.841 121.711 L 85.841 126.793" fill="none" vector-effect="non-scaling-stroke" stroke-width="1" stroke="rgb(0,0,0)" stroke-linejoin="miter" stroke-linecap="square" stroke-miterlimit="3"/></g><g><g><line x1="159.74" y1="116.265" x2="159.74" y2="111.086" vector-effect="non-scaling-stroke" stroke-width="1" stroke="rgb(0,0,0)" stroke-linejoin="miter" stroke-linecap="square" stroke-miterlimit="3"/><line x1="162.282" y1="111.086" x2="160.588" y2="111.933" vector-effect="non-scaling-stroke" stroke-width="1" stroke="rgb(0,0,0)" stroke-linejoin="miter" stroke-linecap="square" stroke-miterlimit="3"/><path d=" M 125.092 109.488 L 125.092 108.641 L 120.01 108.641 L 120.01 111.182 L 125.092 112.877 L 125.092 116.265 L 120.01 116.265 L 120.01 115.418" fill="none" vector-effect="non-scaling-stroke" stroke-width="1" stroke="rgb(0,0,0)" stroke-linejoin="miter" stroke-linecap="square" stroke-miterlimit="3"/><path d=" M 132.62 111.182 L 128.384 111.182 L 128.384 116.265 L 132.62 116.265" fill="none" vector-effect="non-scaling-stroke" stroke-width="1" stroke="rgb(0,0,0)" stroke-linejoin="miter" stroke-linecap="square" stroke-miterlimit="3"/><line x1="135.813" y1="108.641" x2="135.813" y2="116.265" vector-effect="non-scaling-stroke" stroke-width="1" stroke="rgb(0,0,0)" stroke-linejoin="miter" stroke-linecap="square" stroke-miterlimit="3"/><path d=" M 136.66 112.03 L 140.048 112.03 L 140.048 116.265" fill="none" vector-effect="non-scaling-stroke" stroke-width="1" stroke="rgb(0,0,0)" stroke-linejoin="miter" stroke-linecap="square" stroke-miterlimit="3"/><ellipse vector-effect="non-scaling-stroke" cx="145.22945314945278" cy="113.77176844007914" rx="2.487257596220843" ry="2.5893166792359352" fill="none" stroke-width="1" stroke="rgb(0,0,0)" stroke-linejoin="miter" stroke-linecap="butt" stroke-miterlimit="3"/><circle vector-effect="non-scaling-stroke" cx="154.66930019339102" cy="114.3429770726687" r="1.6941840958228056" fill="none" stroke-width="1" stroke="rgb(0,0,0)" stroke-linejoin="miter" stroke-linecap="square" stroke-miterlimit="3"/><path d=" M 153.442 111.086 C 154.701 110.447 155.902 110.77 156.363 111.828 C 156.474 112.082 156.48 113.499 156.363 116.064" fill="none" vector-effect="non-scaling-stroke" stroke-width="1" stroke="rgb(0,0,0)" stroke-linejoin="miter" stroke-linecap="square" stroke-miterlimit="3"/><line x1="150.117" y1="108.641" x2="150.117" y2="116.361" vector-effect="non-scaling-stroke" stroke-width="1" stroke="rgb(0,0,0)" stroke-linejoin="miter" stroke-linecap="square" stroke-miterlimit="3"/><path d=" M 168.364 111.182 L 164.976 111.182 L 164.976 113.724 L 168.364 113.724 L 168.364 116.265 L 164.976 116.265" fill="none" vector-effect="non-scaling-stroke" stroke-width="1" stroke="rgb(0,0,0)" stroke-linejoin="miter" stroke-linecap="square" stroke-miterlimit="3"/></g><g><line x1="96.637" y1="112.03" x2="96.637" y2="116.265" vector-effect="non-scaling-stroke" stroke-width="1" stroke="rgb(0,0,0)" stroke-linejoin="miter" stroke-linecap="square" stroke-miterlimit="3"/><line x1="96.637" y1="109.488" x2="96.637" y2="110.335" vector-effect="non-scaling-stroke" stroke-width="1" stroke="rgb(0,0,0)" stroke-linejoin="miter" stroke-linecap="square" stroke-miterlimit="3"/><line x1="78.043" y1="116.265" x2="78.043" y2="109.707" vector-effect="non-scaling-stroke" stroke-width="1" stroke="rgb(0,0,0)" stroke-linejoin="miter" stroke-linecap="square" stroke-miterlimit="3"/><line x1="74.904" y1="108.641" x2="80.834" y2="108.641" vector-effect="non-scaling-stroke" stroke-width="1" stroke="rgb(0,0,0)" stroke-linejoin="miter" stroke-linecap="square" stroke-miterlimit="3"/><path d=" M 83.279 111.182 L 83.279 116.265 C 84.542 116.716 85.971 116.734 87.514 116.265 L 87.514 111.182" fill="none" vector-effect="non-scaling-stroke" stroke-width="1" stroke="rgb(0,0,0)" stroke-linejoin="miter" stroke-linecap="square" stroke-miterlimit="3"/><line x1="91.402" y1="116.361" x2="91.402" y2="111.182" vector-effect="non-scaling-stroke" stroke-width="1" stroke="rgb(0,0,0)" stroke-linejoin="miter" stroke-linecap="square" stroke-miterlimit="3"/><line x1="93.943" y1="111.182" x2="92.249" y2="112.03" vector-effect="non-scaling-stroke" stroke-width="1" stroke="rgb(0,0,0)" stroke-linejoin="miter" stroke-linecap="square" stroke-miterlimit="3"/><path d=" M 100.677 116.265 L 100.677 111.182 L 104.913 111.182 L 104.913 116.265" fill="none" vector-effect="non-scaling-stroke" stroke-width="1" stroke="rgb(0,0,0)" stroke-linejoin="miter" stroke-linecap="square" stroke-miterlimit="3"/><ellipse vector-effect="non-scaling-stroke" cx="109.4736665140774" cy="113.72372790457736" rx="1.9209687814788197" ry="2.5412761437342226" fill="none" stroke-width="1" stroke="rgb(0,0,0)" stroke-linejoin="miter" stroke-linecap="square" stroke-miterlimit="3"/><path d=" M 111.539 111.51 L 111.539 116.306 L 111.539 117.44 C 111.342 117.988 110.968 118.48 110.406 118.695 C 109.844 118.91 109.096 118.847 108.15 118.287" fill="none" vector-effect="non-scaling-stroke" stroke-width="1" stroke="rgb(0,0,0)" stroke-linejoin="miter" stroke-linecap="square" stroke-miterlimit="3"/></g><g><line x1="58.407" y1="108.641" x2="58.407" y2="116.265" vector-effect="non-scaling-stroke" stroke-width="1" stroke="rgb(0,0,0)" stroke-linejoin="miter" stroke-linecap="square" stroke-miterlimit="3"/><ellipse vector-effect="non-scaling-stroke" cx="60.52512776563209" cy="113.72372790457737" rx="2.117730119778514" ry="2.5412761437342084" fill="none" stroke-width="1" stroke="rgb(0,0,0)" stroke-linejoin="miter" stroke-linecap="butt" stroke-miterlimit="3"/><path d=" M 69.573 111.182 L 67.031 117.112 C 66.755 117.533 66.485 117.827 66.184 117.959" fill="none" vector-effect="non-scaling-stroke" stroke-width="1" stroke="rgb(0,0,0)" stroke-linejoin="miter" stroke-linecap="square" stroke-miterlimit="3"/><line x1="65.337" y1="111.182" x2="67.031" y2="114.571" vector-effect="non-scaling-stroke" stroke-width="1" stroke="rgb(0,0,0)" stroke-linejoin="miter" stroke-linecap="square" stroke-miterlimit="3"/></g></g><g><path d=" M 116.819 102.712 L 117.666 106.947 L 119.36 102.712 L 121.054 106.947 L 121.901 102.712" fill="none" vector-effect="non-scaling-stroke" stroke-width="1" stroke="rgb(0,0,0)" stroke-linejoin="miter" stroke-linecap="square" stroke-miterlimit="3"/><line x1="125.443" y1="102.712" x2="125.443" y2="106.947" vector-effect="non-scaling-stroke" stroke-width="1" stroke="rgb(0,0,0)" stroke-linejoin="miter" stroke-linecap="square" stroke-miterlimit="3"/><line x1="125.443" y1="100.17" x2="125.443" y2="101.017" vector-effect="non-scaling-stroke" stroke-width="1" stroke="rgb(0,0,0)" stroke-linejoin="miter" stroke-linecap="square" stroke-miterlimit="3"/><path d=" M 128.984 99.728 L 128.984 106.1 C 129.154 106.631 129.442 106.92 129.831 106.947" fill="none" vector-effect="non-scaling-stroke" stroke-width="1" stroke="rgb(0,0,0)" stroke-linejoin="miter" stroke-linecap="square" stroke-miterlimit="3"/><line x1="130.144" y1="102.017" x2="127.901" y2="102.017" vector-effect="non-scaling-stroke" stroke-width="1" stroke="rgb(0,0,0)" stroke-linejoin="miter" stroke-linecap="square" stroke-miterlimit="3"/><line x1="133.525" y1="100.17" x2="133.525" y2="106.947" vector-effect="non-scaling-stroke" stroke-width="1" stroke="rgb(0,0,0)" stroke-linejoin="miter" stroke-linecap="square" stroke-miterlimit="3"/><path d=" M 134.372 103.559 C 135.24 103.278 136.093 103.284 136.914 103.559 C 136.968 104.66 136.98 105.801 136.914 106.947" fill="none" vector-effect="non-scaling-stroke" stroke-width="1" stroke="rgb(0,0,0)" stroke-linejoin="miter" stroke-linecap="square" stroke-miterlimit="3"/></g><g><path d=" M 82.521 106.947 L 82.521 100.17 L 85.91 106.947 L 89.298 100.17 L 89.298 106.947" fill="none" vector-effect="non-scaling-stroke" stroke-width="1" stroke="rgb(0,0,0)" stroke-linejoin="miter" stroke-linecap="square" stroke-miterlimit="3"/><ellipse vector-effect="non-scaling-stroke" cx="101.61603352004823" cy="104.81597637569239" rx="1.6941840958228056" ry="2.104445093963335" fill="none" stroke-width="1" stroke="rgb(0,0,0)" stroke-linejoin="miter" stroke-linecap="square" stroke-miterlimit="3"/><g><circle vector-effect="non-scaling-stroke" cx="94.68638918466843" cy="105.22623737383292" r="1.6941840958228056" fill="none" stroke-width="1" stroke="rgb(0,0,0)" stroke-linejoin="miter" stroke-linecap="square" stroke-miterlimit="3"/><path d=" M 93.235 102.337 C 94.493 101.698 95.919 101.653 96.381 102.712 C 96.491 102.965 96.497 104.383 96.381 106.947" fill="none" vector-effect="non-scaling-stroke" stroke-width="1" stroke="rgb(0,0,0)" stroke-linejoin="miter" stroke-linecap="square" stroke-miterlimit="3"/></g><line x1="103.31" y1="100.17" x2="103.31" y2="106.947" vector-effect="non-scaling-stroke" stroke-width="1" stroke="rgb(0,0,0)" stroke-linejoin="miter" stroke-linecap="square" stroke-miterlimit="3"/><path d=" M 109.16 106.742 C 108.455 107.456 107.521 107.106 106.619 105.895 C 105.794 104.457 105.806 103.339 106.619 102.506 C 107.187 102.069 109.458 102.139 110.007 102.506 C 110.257 103.031 110.269 103.608 110.007 104.201 C 109.257 104.411 108.416 104.417 107.466 104.201" fill="none" vector-effect="non-scaling-stroke" stroke-width="1" stroke="rgb(0,0,0)" stroke-linejoin="miter" stroke-linecap="square" stroke-miterlimit="3"/></g><line x1="128.24" y1="126.487" x2="128.24" y2="128.181" vector-effect="non-scaling-stroke" stroke-width="1" stroke="rgb(0,0,0)" stroke-linejoin="miter" stroke-linecap="square" stroke-miterlimit="3"/></g><g><circle vector-effect="non-scaling-stroke" cx="300.7480314960629" cy="108.74803149606315" r="66.61417322834643" fill="none" stroke-width="1" stroke="rgb(0,0,255)" stroke-linejoin="miter" stroke-linecap="square" stroke-miterlimit="3"/><polygon points="272.158,70.386,278.035,73.007,272.827,76.787" fill="rgb(0,0,0)"/><path d=" M 259.47 60.128 C 286.304 37.346 326.586 40.636 349.368 67.47 C 372.15 94.304 368.861 134.586 342.026 157.368 C 315.192 180.15 274.91 176.861 252.128 150.026 C 229.346 123.192 232.636 82.91 259.47 60.128 Z " fill="none"/><path d=" M 251.122 50.987 C 283.09 23.978 330.971 28.004 357.98 59.972 C 384.989 91.94 380.962 139.822 348.994 166.83 C 317.027 193.839 269.145 189.813 242.136 157.845 C 215.128 125.877 219.154 77.995 251.122 50.987 Z " fill="none"/><circle vector-effect="non-scaling-stroke" cx="300.748031496063" cy="108.74803149606271" r="80.07874015748034" fill="none" stroke-width="1" stroke="rgb(0,255,0)" stroke-linejoin="miter" stroke-linecap="square" stroke-miterlimit="3"/><path d=" M 273.209 61.554 L 273.209 61.554 L 273.209 61.554 Q 273.734 62.313 273.888 63.085 L 273.888 63.085 L 273.888 63.085 Q 274.042 63.858 273.885 64.577 L 273.885 64.577 L 273.885 64.577 Q 273.728 65.296 273.268 65.938 L 273.268 65.938 L 273.268 65.938 Q 272.808 66.581 272.116 67.059 L 272.116 67.059 L 272.116 67.059 Q 271.34 67.595 270.523 67.747 L 270.523 67.747 L 270.523 67.747 Q 269.705 67.899 268.813 67.563 L 268.813 67.563 L 269.511 68.574 L 267.942 69.658 L 265.454 66.06 L 267.023 64.975 L 267.023 64.975 Q 267.396 65.515 267.872 65.797 L 267.872 65.797 L 267.872 65.797 Q 268.347 66.078 268.854 66.145 L 268.854 66.145 L 268.854 66.145 Q 269.361 66.211 269.876 66.072 L 269.876 66.072 L 269.876 66.072 Q 270.391 65.933 270.855 65.613 L 270.855 65.613 L 270.855 65.613 Q 271.639 65.07 271.869 64.375 L 271.869 64.375 L 271.869 64.375 Q 272.099 63.681 271.552 62.889 L 271.552 62.889 L 271.552 62.889 Q 271.266 62.476 270.915 62.283 L 270.915 62.283 L 270.915 62.283 Q 270.563 62.09 270.129 62.048 L 270.129 62.048 L 270.129 62.048 Q 269.694 62.005 269.178 62.107 L 269.178 62.107 L 269.178 62.107 Q 268.663 62.208 268.023 62.364 L 268.023 62.364 L 268.023 62.364 Q 267.284 62.576 266.51 62.737 L 266.51 62.737 L 266.51 62.737 Q 265.737 62.899 265.008 62.854 L 265.008 62.854 L 265.008 62.854 Q 264.279 62.81 263.608 62.471 L 263.608 62.471 L 263.608 62.471 Q 262.937 62.131 262.366 61.306 L 262.366 61.306 L 262.366 61.306 Q 261.865 60.581 261.755 59.854 L 261.755 59.854 L 261.755 59.854 Q 261.645 59.126 261.831 58.449 L 261.831 58.449 L 261.831 58.449 Q 262.018 57.772 262.473 57.178 L 262.473 57.178 L 262.473 57.178 Q 262.928 56.583 263.586 56.128 L 263.586 56.128 L 263.586 56.128 Q 264.345 55.603 265.11 55.547 L 265.11 55.547 L 265.11 55.547 Q 265.876 55.492 266.538 55.819 L 266.538 55.819 L 265.856 54.832 L 267.425 53.747 L 269.793 57.172 L 268.224 58.256 L 268.224 58.256 Q 267.553 57.286 266.667 57.095 L 266.667 57.095 L 266.667 57.095 Q 265.78 56.904 264.92 57.499 L 264.92 57.499 L 264.92 57.499 Q 264.161 58.024 263.904 58.725 L 263.904 58.725 L 263.904 58.725 Q 263.647 59.426 264.09 60.067 L 264.09 60.067 L 264.09 60.067 Q 264.318 60.396 264.609 60.538 L 264.609 60.538 L 264.609 60.538 Q 264.9 60.679 265.28 60.697 L 265.28 60.697 L 265.28 60.697 Q 265.66 60.715 266.153 60.617 L 266.153 60.617 L 266.153 60.617 Q 266.647 60.519 267.278 60.369 L 267.278 60.369 L 267.278 60.369 Q 268.054 60.156 268.862 60.009 L 268.862 60.009 L 268.862 60.009 Q 269.67 59.861 270.44 59.928 L 270.44 59.928 L 270.44 59.928 Q 271.209 59.995 271.92 60.357 L 271.92 60.357 L 271.92 60.357 Q 272.632 60.719 273.209 61.554 Z  M 283.594 55.652 L 285.417 55.585 L 285.417 55.585 Q 285.579 56.588 285.517 57.485 L 285.517 57.485 L 285.517 57.485 Q 285.455 58.383 285.134 59.131 L 285.134 59.131 L 285.134 59.131 Q 284.813 59.878 284.212 60.468 L 284.212 60.468 L 284.212 60.468 Q 283.612 61.058 282.679 61.458 L 282.679 61.458 L 282.679 61.458 Q 281.388 62.01 280.265 61.861 L 280.265 61.861 L 280.265 61.861 Q 279.143 61.711 278.188 61.066 L 278.188 61.066 L 278.188 61.066 Q 277.234 60.421 276.492 59.383 L 276.492 59.383 L 276.492 59.383 Q 275.751 58.345 275.222 57.11 L 275.222 57.11 L 275.222 57.11 Q 274.693 55.875 274.451 54.618 L 274.451 54.618 L 274.451 54.618 Q 274.209 53.361 274.395 52.244 L 274.395 52.244 L 274.395 52.244 Q 274.581 51.127 275.222 50.223 L 275.222 50.223 L 275.222 50.223 Q 275.862 49.318 277.117 48.781 L 277.117 48.781 L 277.117 48.781 Q 277.523 48.607 277.983 48.533 L 277.983 48.533 L 277.983 48.533 Q 278.443 48.459 278.892 48.517 L 278.892 48.517 L 278.892 48.517 Q 279.342 48.576 279.744 48.772 L 279.744 48.772 L 279.744 48.772 Q 280.146 48.968 280.433 49.324 L 280.433 49.324 L 279.811 47.873 L 281.565 47.122 L 283.558 51.779 L 281.805 52.529 L 281.805 52.529 Q 281.559 51.954 281.177 51.454 L 281.177 51.454 L 281.177 51.454 Q 280.796 50.954 280.299 50.653 L 280.299 50.653 L 280.299 50.653 Q 279.802 50.353 279.214 50.281 L 279.214 50.281 L 279.214 50.281 Q 278.626 50.21 277.985 50.484 L 277.985 50.484 L 277.985 50.484 Q 277.155 50.839 276.801 51.471 L 276.801 51.471 L 276.801 51.471 Q 276.447 52.103 276.409 52.901 L 276.409 52.901 L 276.409 52.901 Q 276.371 53.698 276.596 54.574 L 276.596 54.574 L 276.596 54.574 Q 276.82 55.449 277.175 56.279 L 277.175 56.279 L 277.175 56.279 Q 277.531 57.11 278.013 57.886 L 278.013 57.886 L 278.013 57.886 Q 278.496 58.662 279.087 59.185 L 279.087 59.185 L 279.087 59.185 Q 279.678 59.708 280.389 59.884 L 280.389 59.884 L 280.389 59.884 Q 281.099 60.059 281.928 59.704 L 281.928 59.704 L 281.928 59.704 Q 283.125 59.192 283.443 58.151 L 283.443 58.151 L 283.443 58.151 Q 283.761 57.109 283.594 55.652 L 283.594 55.652 Z  M 297.094 44.555 L 298.57 57.855 L 296.46 58.089 L 295.814 52.269 L 291.534 52.744 L 292.18 58.564 L 290.07 58.798 L 288.595 45.498 L 290.704 45.264 L 291.324 50.849 L 295.604 50.374 L 294.985 44.789 L 297.094 44.555 Z  M 302.132 51.05 L 302.132 51.05 L 302.132 51.05 Q 302.263 49.714 302.67 48.497 L 302.67 48.497 L 302.67 48.497 Q 303.078 47.279 303.773 46.389 L 303.773 46.389 L 303.773 46.389 Q 304.468 45.499 305.499 45.018 L 305.499 45.018 L 305.499 45.018 Q 306.53 44.537 307.908 44.671 L 307.908 44.671 L 307.908 44.671 Q 309.285 44.806 310.204 45.478 L 310.204 45.478 L 310.204 45.478 Q 311.122 46.15 311.641 47.159 L 311.641 47.159 L 311.641 47.159 Q 312.161 48.168 312.314 49.44 L 312.314 49.44 L 312.314 49.44 Q 312.468 50.712 312.337 52.049 L 312.337 52.049 L 312.337 52.049 Q 312.206 53.386 311.81 54.599 L 311.81 54.599 L 311.81 54.599 Q 311.413 55.812 310.716 56.717 L 310.716 56.717 L 310.716 56.717 Q 310.02 57.623 308.989 58.104 L 308.989 58.104 L 308.989 58.104 Q 307.958 58.585 306.56 58.448 L 306.56 58.448 L 306.56 58.448 Q 305.161 58.312 304.243 57.64 L 304.243 57.64 L 304.243 57.64 Q 303.325 56.968 302.812 55.944 L 302.812 55.944 L 302.812 55.944 Q 302.299 54.92 302.15 53.654 L 302.15 53.654 L 302.15 53.654 Q 302.001 52.387 302.132 51.05 Z  M 304.244 51.262 L 304.244 51.262 L 304.244 51.262 Q 304.156 52.161 304.206 53.074 L 304.206 53.074 L 304.206 53.074 Q 304.256 53.986 304.518 54.729 L 304.518 54.729 L 304.518 54.729 Q 304.78 55.471 305.314 55.967 L 305.314 55.967 L 305.314 55.967 Q 305.847 56.462 306.745 56.55 L 306.745 56.55 L 306.745 56.55 Q 307.643 56.638 308.263 56.255 L 308.263 56.255 L 308.263 56.255 Q 308.882 55.872 309.284 55.195 L 309.284 55.195 L 309.284 55.195 Q 309.685 54.517 309.911 53.632 L 309.911 53.632 L 309.911 53.632 Q 310.136 52.746 310.224 51.847 L 310.224 51.847 L 310.224 51.847 Q 310.312 50.948 310.261 50.046 L 310.261 50.046 L 310.261 50.046 Q 310.211 49.144 309.949 48.396 L 309.949 48.396 L 309.949 48.396 Q 309.687 47.649 309.143 47.152 L 309.143 47.152 L 309.143 47.152 Q 308.6 46.656 307.722 46.57 L 307.722 46.57 L 307.722 46.57 Q 306.263 46.427 305.368 47.67 L 305.368 47.67 L 305.368 47.67 Q 304.474 48.913 304.244 51.262 Z  M 323.16 60.846 L 322.471 62.624 L 314.497 59.532 L 319.336 47.056 L 321.315 47.823 L 317.166 58.521 L 323.16 60.846 Z  M 333.941 69.572 L 332.065 68.376 L 332.966 65.169 L 329.23 62.788 L 326.721 64.971 L 324.844 63.775 L 335.555 54.733 L 337.613 56.044 L 333.941 69.572 Z  M 335.08 57.749 L 330.714 61.509 L 333.499 63.283 L 335.08 57.749 Z  M 343.544 71.93 L 341.899 78.44 L 340.129 76.419 L 341.919 70.245 L 341.284 69.52 L 337.211 73.087 L 335.813 71.49 L 345.88 62.674 L 348.785 65.991 L 348.785 65.991 Q 350.237 67.65 350.281 69.233 L 350.281 69.233 L 350.281 69.233 Q 350.325 70.817 348.836 72.12 L 348.836 72.12 L 348.836 72.12 Q 348.173 72.701 347.489 72.939 L 347.489 72.939 L 347.489 72.939 Q 346.804 73.177 346.114 73.121 L 346.114 73.121 L 346.114 73.121 Q 345.424 73.064 344.776 72.752 L 344.776 72.752 L 344.776 72.752 Q 344.128 72.441 343.544 71.93 L 343.544 71.93 Z  M 347.469 70.497 L 347.469 70.497 L 347.469 70.497 Q 348.24 69.821 348.183 68.978 L 348.183 68.978 L 348.183 68.978 Q 348.127 68.135 347.35 67.248 L 347.35 67.248 L 345.843 65.528 L 342.735 68.25 L 344.241 69.97 L 344.241 69.97 Q 345.018 70.857 345.846 71.025 L 345.846 71.025 L 345.846 71.025 Q 346.674 71.192 347.469 70.497 Z  M 349.044 77.027 L 349.044 77.027 L 349.044 77.027 Q 350.219 76.377 351.453 76.024 L 351.453 76.024 L 351.453 76.024 Q 352.687 75.67 353.814 75.739 L 353.814 75.739 L 353.814 75.739 Q 354.942 75.807 355.922 76.385 L 355.922 76.385 L 355.922 76.385 Q 356.903 76.962 357.572 78.173 L 357.572 78.173 L 357.572 78.173 Q 358.241 79.385 358.207 80.523 L 358.207 80.523 L 358.207 80.523 Q 358.173 81.66 357.635 82.66 L 357.635 82.66 L 357.635 82.66 Q 357.098 83.66 356.136 84.507 L 356.136 84.507 L 356.136 84.507 Q 355.174 85.355 353.997 86.005 L 353.997 86.005 L 353.997 86.005 Q 352.91 86.605 351.802 86.965 L 351.802 86.965 L 351.802 86.965 Q 350.694 87.325 349.641 87.328 L 349.641 87.328 L 349.641 87.328 Q 348.587 87.33 347.646 86.953 L 347.646 86.953 L 347.646 86.953 Q 346.706 86.577 345.994 85.67 L 345.994 85.67 L 345.994 85.67 Q 345.154 86.25 345.183 87.078 L 345.183 87.078 L 345.183 87.078 Q 345.212 87.905 345.872 89.099 L 345.872 89.099 L 345.872 89.099 Q 345.961 89.26 346.076 89.448 L 346.076 89.448 L 346.076 89.448 Q 346.192 89.636 346.306 89.843 L 346.306 89.843 L 344.654 90.755 L 344.654 90.755 Q 344.493 90.505 344.352 90.272 L 344.352 90.272 L 344.352 90.272 Q 344.212 90.039 344.088 89.815 L 344.088 89.815 L 344.088 89.815 Q 343.087 88.001 343.292 86.412 L 343.292 86.412 L 343.292 86.412 Q 343.498 84.822 344.989 83.706 L 344.989 83.706 L 344.989 83.706 Q 344.699 82.671 344.898 81.706 L 344.898 81.706 L 344.898 81.706 Q 345.097 80.741 345.673 79.896 L 345.673 79.896 L 345.673 79.896 Q 346.249 79.051 347.126 78.326 L 347.126 78.326 L 347.126 78.326 Q 348.002 77.602 349.044 77.027 Z  M 350.07 78.885 L 350.07 78.885 L 350.07 78.885 Q 349.28 79.321 348.557 79.879 L 348.557 79.879 L 348.557 79.879 Q 347.834 80.436 347.371 81.072 L 347.371 81.072 L 347.371 81.072 Q 346.909 81.709 346.803 82.429 L 346.803 82.429 L 346.803 82.429 Q 346.697 83.149 347.133 83.939 L 347.133 83.939 L 347.133 83.939 Q 347.569 84.729 348.236 85.023 L 348.236 85.023 L 348.236 85.023 Q 348.902 85.317 349.687 85.264 L 349.687 85.264 L 349.687 85.264 Q 350.471 85.211 351.328 84.896 L 351.328 84.896 L 351.328 84.896 Q 352.185 84.581 352.975 84.145 L 352.975 84.145 L 352.975 84.145 Q 353.765 83.708 354.479 83.156 L 354.479 83.156 L 354.479 83.156 Q 355.193 82.603 355.66 81.965 L 355.66 81.965 L 355.66 81.965 Q 356.127 81.326 356.228 80.597 L 356.228 80.597 L 356.228 80.597 Q 356.329 79.867 355.903 79.095 L 355.903 79.095 L 355.903 79.095 Q 355.194 77.812 353.664 77.778 L 353.664 77.778 L 353.664 77.778 Q 352.134 77.745 350.07 78.885 Z  M 353.21 99.694 L 351.381 100.236 L 348.952 92.036 L 361.783 88.236 L 364.212 96.436 L 362.383 96.977 L 360.557 90.813 L 356.998 91.867 L 358.422 96.675 L 356.593 97.216 L 355.169 92.409 L 351.384 93.53 L 353.21 99.694 Z  M 355.421 113.002 L 355.421 113.002 L 355.421 113.002 Q 353.598 113.028 352.658 111.801 L 352.658 111.801 L 352.658 111.801 Q 351.718 110.573 351.685 108.287 L 351.685 108.287 L 351.624 104.022 L 365.004 103.83 L 365.062 107.859 L 365.062 107.859 Q 365.074 108.7 364.947 109.512 L 364.947 109.512 L 364.947 109.512 Q 364.82 110.324 364.45 110.97 L 364.45 110.97 L 364.45 110.97 Q 364.079 111.616 363.403 112.026 L 363.403 112.026 L 363.403 112.026 Q 362.726 112.436 361.638 112.451 L 361.638 112.451 L 361.638 112.451 Q 360.622 112.466 359.774 111.96 L 359.774 111.96 L 359.774 111.96 Q 358.925 111.454 358.54 110.414 L 358.54 110.414 L 358.54 110.414 Q 358.159 111.701 357.451 112.342 L 357.451 112.342 L 357.451 112.342 Q 356.743 112.983 355.421 113.002 Z  M 361.334 110.353 L 361.334 110.353 L 361.334 110.353 Q 361.922 110.345 362.29 110.119 L 362.29 110.119 L 362.29 110.119 Q 362.658 109.893 362.854 109.542 L 362.854 109.542 L 362.854 109.542 Q 363.05 109.19 363.105 108.759 L 363.105 108.759 L 363.105 108.759 Q 363.161 108.327 363.155 107.887 L 363.155 107.887 L 363.128 105.98 L 359.416 106.033 L 359.443 107.94 L 359.443 107.94 Q 359.45 108.381 359.518 108.81 L 359.518 108.81 L 359.518 108.81 Q 359.586 109.24 359.792 109.586 L 359.792 109.586 L 359.792 109.586 Q 359.998 109.932 360.372 110.147 L 360.372 110.147 L 360.372 110.147 Q 360.746 110.362 361.334 110.353 Z  M 355.609 110.897 L 355.609 110.897 L 355.609 110.897 Q 356.614 110.883 357.086 110.173 L 357.086 110.173 L 357.086 110.173 Q 357.558 109.464 357.54 108.203 L 357.54 108.203 L 357.509 106.06 L 353.562 106.117 L 353.592 108.26 L 353.592 108.26 Q 353.61 109.521 354.107 110.216 L 354.107 110.216 L 354.107 110.216 Q 354.605 110.911 355.609 110.897 Z  M 358.794 126.845 L 358.794 126.845 L 358.794 126.845 Q 356.816 126.49 356.068 125.116 L 356.068 125.116 L 356.068 125.116 Q 355.319 123.742 355.705 121.592 L 355.705 121.592 L 356.113 119.321 L 350.784 118.365 L 351.159 116.276 L 364.33 118.639 L 363.551 122.979 L 363.551 122.979 Q 363.161 125.149 361.952 126.172 L 361.952 126.172 L 361.952 126.172 Q 360.742 127.194 358.794 126.845 Z  M 359.2 124.761 L 359.2 124.761 L 359.2 124.761 Q 360.214 124.943 360.84 124.373 L 360.84 124.373 L 360.84 124.373 Q 361.465 123.803 361.67 122.663 L 361.67 122.663 L 362.077 120.392 L 357.99 119.658 L 357.582 121.929 L 357.582 121.929 Q 357.378 123.07 357.766 123.822 L 357.766 123.822 L 357.766 123.822 Q 358.155 124.574 359.2 124.761 Z  M 355.682 142.631 L 353.995 141.742 L 354.444 140.89 L 350.501 135.465 L 347.358 133.811 L 346.36 135.707 L 344.672 134.819 L 347.653 129.157 L 349.341 130.045 L 348.347 131.933 L 351.49 133.587 L 358.188 133.776 L 358.637 132.923 L 360.325 133.811 L 358.362 137.541 L 356.674 136.652 L 357.104 135.836 L 352.827 135.508 L 355.528 138.83 L 355.958 138.013 L 357.645 138.902 L 355.682 142.631 Z  M 347.181 153.8 L 345.683 152.62 L 349.664 147.571 L 346.749 145.273 L 343.644 149.21 L 342.147 148.029 L 345.251 144.092 L 340.654 140.467 L 341.968 138.8 L 352.476 147.085 L 347.181 153.8 Z  M 335.161 163.19 L 333.346 164.443 L 327.45 152.253 L 329.247 151.013 L 333.497 155.094 L 331.171 149.685 L 332.969 148.444 L 342.275 158.28 L 340.46 159.532 L 334.328 152.814 L 336.473 157.637 L 334.802 158.79 L 331.079 155.056 L 335.161 163.19 Z  M 320.332 170.37 L 318.412 165.89 L 320.164 165.138 L 321.334 167.866 L 322.992 167.155 L 319.223 158.362 L 317.272 159.198 L 316.521 157.445 L 322.364 154.94 L 323.115 156.693 L 321.174 157.525 L 324.943 166.318 L 326.621 165.599 L 325.452 162.872 L 327.186 162.129 L 329.106 166.609 L 320.332 170.37 Z  M 304.807 173.021 L 303.895 164.796 L 303.895 164.796 Q 303.615 162.269 304.536 160.758 L 304.536 160.758 L 304.536 160.758 Q 305.457 159.248 307.668 159.003 L 307.668 159.003 L 307.668 159.003 Q 309.442 158.806 310.747 159.601 L 310.747 159.601 L 310.747 159.601 Q 312.052 160.395 312.737 162.2 L 312.737 162.2 L 310.921 163.124 L 310.921 163.124 Q 310.493 161.963 309.751 161.368 L 309.751 161.368 L 309.751 161.368 Q 309.01 160.773 307.878 160.899 L 307.878 160.899 L 307.878 160.899 Q 307.196 160.974 306.788 161.303 L 306.788 161.303 L 306.788 161.303 Q 306.381 161.632 306.184 162.129 L 306.184 162.129 L 306.184 162.129 Q 305.986 162.626 305.958 163.254 L 305.958 163.254 L 305.958 163.254 Q 305.929 163.882 306.004 164.555 L 306.004 164.555 L 306.916 172.787 L 304.807 173.021 Z  M 294.496 167.213 L 290.636 158.965 L 293.105 159.206 L 295.989 165.752 L 296.968 164.797 L 297.473 159.633 L 299.586 159.84 L 298.284 173.157 L 296.171 172.951 L 296.682 167.726 L 292.028 172.546 L 289.313 172.28 L 294.496 167.213 Z  M 274.573 167.566 L 279.413 155.091 L 281.708 155.981 L 281.899 166.46 L 285.407 157.416 L 287.386 158.184 L 282.546 170.659 L 280.061 169.695 L 279.886 159.74 L 276.552 168.334 L 274.573 167.566 Z  M 267.246 150.029 L 268.271 148.421 L 271.955 150.768 L 270.93 152.376 L 270.29 151.969 L 269.849 155.275 L 272.66 153.478 L 272.028 153.076 L 273.053 151.468 L 276.702 153.793 L 275.678 155.401 L 274.7 154.778 L 269.895 157.474 L 269.525 162.825 L 270.338 163.343 L 269.314 164.951 L 265.733 162.67 L 266.758 161.062 L 267.485 161.525 L 267.932 158.284 L 265.167 160.048 L 265.876 160.5 L 264.851 162.108 L 261.254 159.816 L 262.278 158.208 L 263.152 158.764 L 267.837 156.163 L 268.249 150.668 L 267.246 150.029 Z  M 250.291 148.721 L 260.358 139.905 L 261.756 141.502 L 254.945 147.467 L 259.447 145.309 L 260.528 146.543 L 257.782 150.707 L 264.593 144.742 L 265.992 146.339 L 255.925 155.154 L 254.263 153.257 L 257.666 147.96 L 251.966 150.634 L 250.291 148.721 Z  M 242.317 135.847 L 249.857 131.683 L 249.857 131.683 Q 250.853 131.133 251.782 130.907 L 251.782 130.907 L 251.782 130.907 Q 252.712 130.68 253.537 130.828 L 253.537 130.828 L 253.537 130.828 Q 254.362 130.975 255.068 131.511 L 255.068 131.511 L 255.068 131.511 Q 255.774 132.046 256.309 133.016 L 256.309 133.016 L 256.309 133.016 Q 256.85 133.994 256.92 134.863 L 256.92 134.863 L 256.92 134.863 Q 256.99 135.732 256.675 136.509 L 256.675 136.509 L 256.675 136.509 Q 256.36 137.286 255.665 137.957 L 255.665 137.957 L 255.665 137.957 Q 254.97 138.629 253.973 139.179 L 253.973 139.179 L 246.452 143.333 L 245.426 141.475 L 252.972 137.307 L 252.972 137.307 Q 253.412 137.064 253.849 136.741 L 253.849 136.741 L 253.849 136.741 Q 254.286 136.417 254.584 136.001 L 254.584 136.001 L 254.584 136.001 Q 254.881 135.585 254.929 135.067 L 254.929 135.067 L 254.929 135.067 Q 254.977 134.548 254.64 133.938 L 254.64 133.938 L 254.64 133.938 Q 254.308 133.336 253.843 133.101 L 253.843 133.101 L 253.843 133.101 Q 253.379 132.865 252.87 132.877 L 252.87 132.877 L 252.87 132.877 Q 252.36 132.889 251.845 133.092 L 251.845 133.092 L 251.845 133.092 Q 251.33 133.294 250.89 133.537 L 250.89 133.537 L 243.343 137.705 L 242.317 135.847 Z  M 248.781 119.186 L 250.61 118.645 L 252.43 124.8 L 250.601 125.341 L 250.002 123.315 L 240.828 126.028 L 241.427 128.053 L 239.598 128.594 L 237.778 122.439 L 239.607 121.898 L 240.226 123.992 L 249.401 121.28 L 248.781 119.186 Z  M 243.16 104.482 L 243.16 104.482 L 243.16 104.482 Q 244.503 104.463 245.722 104.727 L 245.722 104.727 L 245.722 104.727 Q 246.941 104.991 247.868 105.598 L 247.868 105.598 L 247.868 105.598 Q 248.794 106.205 249.352 107.176 L 249.352 107.176 L 249.352 107.176 Q 249.91 108.147 249.93 109.531 L 249.93 109.531 L 249.994 113.878 L 236.614 114.074 L 236.55 109.727 L 236.55 109.727 Q 236.53 108.363 237.064 107.376 L 237.064 107.376 L 237.064 107.376 Q 237.599 106.389 238.502 105.755 L 238.502 105.755 L 238.502 105.755 Q 239.405 105.122 240.611 104.812 L 240.611 104.812 L 240.611 104.812 Q 241.817 104.502 243.16 104.482 Z  M 243.186 106.605 L 243.186 106.605 L 243.186 106.605 Q 240.866 106.639 239.651 107.446 L 239.651 107.446 L 239.651 107.446 Q 238.436 108.253 238.457 109.699 L 238.457 109.699 L 238.49 111.924 L 248.056 111.784 L 248.023 109.559 L 248.023 109.559 Q 248.002 108.113 246.738 107.342 L 246.738 107.342 L 246.738 107.342 Q 245.474 106.571 243.186 106.605 Z  M 239.123 90.753 L 239.725 88.61 L 251.48 96.245 L 250.826 98.575 L 236.815 98.976 L 237.416 96.834 L 248.47 96.646 L 239.123 90.753 Z  M 252.817 79.922 L 257.184 82.033 L 253.461 89.732 L 251.761 88.91 L 245.738 79.346 L 243.961 83.02 L 246.587 84.289 L 245.756 86.006 L 241.414 83.906 L 245.061 76.364 L 246.787 77.199 L 252.86 86.594 L 254.65 82.892 L 252.001 81.611 L 252.817 79.922 Z  M 259.907 67.183 L 260.173 67.392 L 260.173 67.392 Q 261.244 68.237 262.05 69.218 L 262.05 69.218 L 262.05 69.218 Q 262.856 70.2 263.221 71.277 L 263.221 71.277 L 263.221 71.277 Q 263.585 72.355 263.426 73.476 L 263.426 73.476 L 263.426 73.476 Q 263.267 74.597 262.397 75.7 L 262.397 75.7 L 262.397 75.7 Q 261.528 76.803 260.471 77.208 L 260.471 77.208 L 260.471 77.208 Q 259.413 77.614 258.278 77.513 L 258.278 77.513 L 258.278 77.513 Q 257.143 77.412 255.992 76.852 L 255.992 76.852 L 255.992 76.852 Q 254.84 76.292 253.786 75.461 L 253.786 75.461 L 253.786 75.461 Q 252.731 74.629 251.917 73.641 L 251.917 73.641 L 251.917 73.641 Q 251.103 72.653 250.73 71.568 L 250.73 71.568 L 250.73 71.568 Q 250.358 70.484 250.507 69.359 L 250.507 69.359 L 250.507 69.359 Q 250.656 68.234 251.527 67.13 L 251.527 67.13 L 251.527 67.13 Q 251.775 66.815 252.124 66.554 L 252.124 66.554 L 252.124 66.554 Q 252.473 66.294 252.889 66.138 L 252.889 66.138 L 252.889 66.138 Q 253.306 65.983 253.753 65.962 L 253.753 65.962 L 253.753 65.962 Q 254.2 65.942 254.622 66.118 L 254.622 66.118 L 253.382 65.141 L 254.563 63.643 L 258.291 66.582 L 257.11 68.08 L 257.11 68.08 Q 256.619 67.693 256.06 67.5 L 256.06 67.5 L 256.06 67.5 Q 255.5 67.307 254.948 67.328 L 254.948 67.328 L 254.948 67.328 Q 254.396 67.35 253.895 67.595 L 253.895 67.595 L 253.895 67.595 Q 253.395 67.841 253.027 68.308 L 253.027 68.308 L 253.027 68.308 Q 252.468 69.016 252.467 69.747 L 252.467 69.747 L 252.467 69.747 Q 252.466 70.477 252.815 71.196 L 252.815 71.196 L 252.815 71.196 Q 253.163 71.915 253.779 72.576 L 253.779 72.576 L 253.779 72.576 Q 254.394 73.238 255.104 73.797 L 255.104 73.797 L 255.104 73.797 Q 255.813 74.356 256.6 74.801 L 256.6 74.801 L 256.6 74.801 Q 257.386 75.245 258.156 75.422 L 258.156 75.422 L 258.156 75.422 Q 258.925 75.598 259.633 75.413 L 259.633 75.413 L 259.633 75.413 Q 260.341 75.228 260.9 74.519 L 260.9 74.519 L 260.9 74.519 Q 261.706 73.497 261.547 72.353 L 261.547 72.353 L 261.547 72.353 Q 261.387 71.209 260.198 69.893 L 260.198 69.893 L 258.453 72.107 L 256.955 70.927 L 259.907 67.183 Z " fill-rule="evenodd" fill="rgb(0,0,0)"/></g><g><path d=" M 253.93 50.931 C 252.717 49.444 252.556 47.565 253.571 46.736 C 254.587 45.908 256.396 46.443 257.609 47.93 C 258.822 49.417 258.982 51.297 257.967 52.125 C 256.952 52.953 255.143 52.418 253.93 50.931 Z " fill="none" vector-effect="non-scaling-stroke" stroke-width="1" stroke="rgb(0,0,0)" stroke-linejoin="miter" stroke-linecap="square" stroke-miterlimit="3"/><path d=" M 259.343 46.758 C 258.38 45.098 258.517 43.217 259.65 42.559 C 260.783 41.901 262.486 42.714 263.449 44.373 C 264.413 46.033 264.275 47.914 263.142 48.572 C 262.009 49.23 260.307 48.417 259.343 46.758 Z " fill="none" vector-effect="non-scaling-stroke" stroke-width="1" stroke="rgb(0,0,0)" stroke-linejoin="miter" stroke-linecap="square" stroke-miterlimit="3"/><path d=" M 268.914 41.73 C 268.25 39.929 268.709 38.099 269.938 37.646 C 271.167 37.193 272.705 38.286 273.369 40.087 C 274.033 41.887 273.574 43.717 272.345 44.17 C 271.115 44.624 269.578 43.53 268.914 41.73 Z " fill="none" vector-effect="non-scaling-stroke" stroke-width="1" stroke="rgb(0,0,0)" stroke-linejoin="miter" stroke-linecap="square" stroke-miterlimit="3"/><path d=" M 285.114 36.549 C 284.71 34.673 285.423 32.926 286.703 32.651 C 287.984 32.375 289.352 33.675 289.756 35.551 C 290.159 37.427 289.447 39.174 288.166 39.449 C 286.885 39.725 285.517 38.425 285.114 36.549 Z " fill="none" vector-effect="non-scaling-stroke" stroke-width="1" stroke="rgb(0,0,0)" stroke-linejoin="miter" stroke-linecap="square" stroke-miterlimit="3"/><path d=" M 285.114 36.549 C 284.71 34.673 285.423 32.926 286.703 32.651 C 287.984 32.375 289.352 33.675 289.756 35.551 C 290.159 37.427 289.447 39.174 288.166 39.449 C 286.885 39.725 285.517 38.425 285.114 36.549 Z " fill="none" vector-effect="non-scaling-stroke" stroke-width="1" stroke="rgb(0,0,0)" stroke-linejoin="miter" stroke-linecap="square" stroke-miterlimit="3"/><path d=" M 303.821 35.082 C 304.029 33.175 305.256 31.741 306.558 31.884 C 307.861 32.026 308.749 33.69 308.541 35.598 C 308.332 37.505 307.106 38.939 305.803 38.796 C 304.501 38.654 303.612 36.99 303.821 35.082 Z " fill="none" vector-effect="non-scaling-stroke" stroke-width="1" stroke="rgb(0,0,0)" stroke-linejoin="miter" stroke-linecap="square" stroke-miterlimit="3"/><path d=" M 321.752 38.315 C 322.149 36.438 323.512 35.133 324.794 35.404 C 326.076 35.675 326.794 37.42 326.397 39.297 C 326 41.174 324.637 42.479 323.355 42.208 C 322.074 41.937 321.355 40.192 321.752 38.315 Z " fill="none" vector-effect="non-scaling-stroke" stroke-width="1" stroke="rgb(0,0,0)" stroke-linejoin="miter" stroke-linecap="square" stroke-miterlimit="3"/><path d=" M 338.602 45.031 C 339.723 43.473 341.496 42.83 342.56 43.595 C 343.623 44.36 343.577 46.246 342.456 47.804 C 341.336 49.362 339.562 50.005 338.499 49.24 C 337.435 48.475 337.481 46.589 338.602 45.031 Z " fill="none" vector-effect="non-scaling-stroke" stroke-width="1" stroke="rgb(0,0,0)" stroke-linejoin="miter" stroke-linecap="square" stroke-miterlimit="3"/><path d=" M 353.125 56.343 C 354.556 55.064 356.426 54.818 357.3 55.795 C 358.173 56.772 357.72 58.603 356.29 59.882 C 354.859 61.161 352.989 61.407 352.116 60.43 C 351.242 59.453 351.695 57.622 353.125 56.343 Z " fill="none" vector-effect="non-scaling-stroke" stroke-width="1" stroke="rgb(0,0,0)" stroke-linejoin="miter" stroke-linecap="square" stroke-miterlimit="3"/><path d=" M 363.751 70.584 C 365.354 69.529 367.24 69.561 367.96 70.655 C 368.681 71.749 367.965 73.494 366.362 74.55 C 364.76 75.605 362.873 75.574 362.153 74.479 C 361.432 73.385 362.148 71.64 363.751 70.584 Z " fill="none" vector-effect="non-scaling-stroke" stroke-width="1" stroke="rgb(0,0,0)" stroke-linejoin="miter" stroke-linecap="square" stroke-miterlimit="3"/><path d=" M 370.409 85.957 C 372.291 85.58 374.028 86.318 374.285 87.602 C 374.542 88.887 373.223 90.236 371.341 90.613 C 369.46 90.989 367.723 90.252 367.466 88.967 C 367.209 87.683 368.528 86.334 370.409 85.957 Z " fill="none" vector-effect="non-scaling-stroke" stroke-width="1" stroke="rgb(0,0,0)" stroke-linejoin="miter" stroke-linecap="square" stroke-miterlimit="3"/><path d=" M 373.7 103.328 C 375.618 103.284 377.2 104.311 377.231 105.621 C 377.261 106.931 375.728 108.03 373.81 108.075 C 371.891 108.119 370.309 107.092 370.279 105.782 C 370.249 104.472 371.781 103.372 373.7 103.328 Z " fill="none" vector-effect="non-scaling-stroke" stroke-width="1" stroke="rgb(0,0,0)" stroke-linejoin="miter" stroke-linecap="square" stroke-miterlimit="3"/><path d=" M 373.153 126.735 C 374.925 127.473 375.954 129.054 375.451 130.264 C 374.947 131.473 373.1 131.856 371.328 131.118 C 369.557 130.381 368.527 128.8 369.031 127.59 C 369.535 126.381 371.382 125.998 373.153 126.735 Z " fill="none" vector-effect="non-scaling-stroke" stroke-width="1" stroke="rgb(0,0,0)" stroke-linejoin="miter" stroke-linecap="square" stroke-miterlimit="3"/><path d=" M 234.954 143.248 C 233.248 144.125 231.376 143.891 230.777 142.726 C 230.178 141.561 231.077 139.902 232.784 139.025 C 234.491 138.148 236.362 138.382 236.961 139.547 C 237.56 140.712 236.661 142.37 234.954 143.248 Z " fill="none" vector-effect="non-scaling-stroke" stroke-width="1" stroke="rgb(0,0,0)" stroke-linejoin="miter" stroke-linecap="square" stroke-miterlimit="3"/><path d=" M 278.384 42.331 L 276.116 35.42 L 275.144 36.824" fill="none" vector-effect="non-scaling-stroke" stroke-width="1" stroke="rgb(0,0,0)" stroke-linejoin="miter" stroke-linecap="square" stroke-miterlimit="3"/><path d=" M 231.647 123.322 L 224.537 124.854 L 225.831 125.967" fill="none" vector-effect="non-scaling-stroke" stroke-width="1" stroke="rgb(0,0,0)" stroke-linejoin="miter" stroke-linecap="square" stroke-miterlimit="3"/><path d=" M 369.96 122.186 L 376.806 124.641 L 376.295 123.012" fill="none" vector-effect="non-scaling-stroke" stroke-width="1" stroke="rgb(0,0,0)" stroke-linejoin="miter" stroke-linecap="square" stroke-miterlimit="3"/><path d=" M 363.893 138.779 L 370.278 142.261 L 370.025 140.572" fill="none" vector-effect="non-scaling-stroke" stroke-width="1" stroke="rgb(0,0,0)" stroke-linejoin="miter" stroke-linecap="square" stroke-miterlimit="3"/><path d=" M 361.506 143.122 L 367.434 147.337 L 367.383 145.63" fill="none" vector-effect="non-scaling-stroke" stroke-width="1" stroke="rgb(0,0,0)" stroke-linejoin="miter" stroke-linecap="square" stroke-miterlimit="3"/><path d=" M 355.93 151.753 L 361.376 156.574 L 361.506 154.872" fill="none" vector-effect="non-scaling-stroke" stroke-width="1" stroke="rgb(0,0,0)" stroke-linejoin="miter" stroke-linecap="square" stroke-miterlimit="3"/><path d=" M 343.229 163.502 L 347.158 169.623 L 347.746 168.02" fill="none" vector-effect="non-scaling-stroke" stroke-width="1" stroke="rgb(0,0,0)" stroke-linejoin="miter" stroke-linecap="square" stroke-miterlimit="3"/><path d=" M 328.32 172.109 L 330.545 179.033 L 331.526 177.635" fill="none" vector-effect="non-scaling-stroke" stroke-width="1" stroke="rgb(0,0,0)" stroke-linejoin="miter" stroke-linecap="square" stroke-miterlimit="3"/><path d=" M 310.899 178.013 L 312.824 185.027 L 313.863 183.672" fill="none" vector-effect="non-scaling-stroke" stroke-width="1" stroke="rgb(0,0,0)" stroke-linejoin="miter" stroke-linecap="square" stroke-miterlimit="3"/><path d=" M 294.968 178.839 L 294.447 186.093 L 295.878 185.162" fill="none" vector-effect="non-scaling-stroke" stroke-width="1" stroke="rgb(0,0,0)" stroke-linejoin="miter" stroke-linecap="square" stroke-miterlimit="3"/><path d=" M 277.801 175.494 L 275.727 182.466 L 277.326 181.866" fill="none" vector-effect="non-scaling-stroke" stroke-width="1" stroke="rgb(0,0,0)" stroke-linejoin="miter" stroke-linecap="square" stroke-miterlimit="3"/><path d=" M 263.307 168.62 L 259.219 174.635 L 260.924 174.548" fill="none" vector-effect="non-scaling-stroke" stroke-width="1" stroke="rgb(0,0,0)" stroke-linejoin="miter" stroke-linecap="square" stroke-miterlimit="3"/><path d=" M 250.079 157.872 L 244.698 162.764 L 246.376 163.078" fill="none" vector-effect="non-scaling-stroke" stroke-width="1" stroke="rgb(0,0,0)" stroke-linejoin="miter" stroke-linecap="square" stroke-miterlimit="3"/><path d=" M 292.097 33.615 C 292.057 33.292 292.221 32.805 292.56 32.124 C 293.416 31.451 294.318 31.358 295.234 31.815 C 295.644 32.296 295.938 32.796 296.056 33.255 C 296.049 33.926 296.12 34.419 295.789 34.643 C 294.546 35.688 293.599 36.606 292.92 37.369 C 292.391 38.075 292.261 38.463 292.232 39.084 L 296.879 38.637" fill="none" vector-effect="non-scaling-stroke" stroke-width="1" stroke="rgb(0,0,0)" stroke-linejoin="miter" stroke-linecap="square" stroke-miterlimit="3"/><path d=" M 358.012 157.992 C 358.266 158.196 358.487 158.66 358.718 159.385 C 358.573 160.464 357.991 161.159 357.015 161.469 C 356.386 161.41 355.826 161.256 355.422 161.009 C 354.96 160.523 354.565 160.219 354.646 159.827 C 354.811 158.211 354.85 156.893 354.806 155.873 C 354.694 154.998 354.517 154.629 354.105 154.163 L 351.082 157.721" fill="none" vector-effect="non-scaling-stroke" stroke-width="1" stroke="rgb(0,0,0)" stroke-linejoin="miter" stroke-linecap="square" stroke-miterlimit="3"/><path d=" M 236.674 150.381 C 236.4 150.557 235.89 150.621 235.129 150.611 C 234.151 150.132 233.676 149.36 233.691 148.336 C 233.946 147.758 234.268 147.276 234.631 146.97 C 235.238 146.686 235.651 146.407 235.997 146.608 C 237.478 147.275 238.716 147.729 239.698 148.01 C 240.564 148.181 240.969 148.129 241.541 147.885 L 239.122 143.893" fill="none" vector-effect="non-scaling-stroke" stroke-width="1" stroke="rgb(0,0,0)" stroke-linejoin="miter" stroke-linecap="square" stroke-miterlimit="3"/><path d=" M 228.281 132.235 C 227.971 132.336 227.462 132.267 226.729 132.063 C 225.906 131.35 225.643 130.483 225.919 129.497 C 226.313 129.003 226.748 128.619 227.176 128.416 C 227.836 128.296 228.306 128.132 228.59 128.415 C 229.851 129.437 230.932 130.192 231.81 130.714 C 232.604 131.1 233.009 131.153 233.624 131.064 L 232.304 126.586" fill="none" vector-effect="non-scaling-stroke" stroke-width="1" stroke="rgb(0,0,0)" stroke-linejoin="miter" stroke-linecap="square" stroke-miterlimit="3"/><path d=" M 225.132 115.629 C 224.811 115.682 224.318 115.537 223.624 115.225 C 222.918 114.395 222.791 113.498 223.212 112.565 C 223.677 112.136 224.165 111.823 224.619 111.687 C 225.29 111.668 225.779 111.578 226.017 111.9 C 227.108 113.102 228.063 114.012 228.851 114.662 C 229.577 115.163 229.97 115.277 230.591 115.283 L 229.965 110.656" fill="none" vector-effect="non-scaling-stroke" stroke-width="1" stroke="rgb(0,0,0)" stroke-linejoin="miter" stroke-linecap="square" stroke-miterlimit="3"/><path d=" M 224.254 108.495 C 223.929 108.513 223.455 108.314 222.8 107.928 C 222.188 107.027 222.159 106.121 222.68 105.24 C 223.188 104.864 223.708 104.606 224.174 104.52 C 224.842 104.575 225.339 104.538 225.54 104.884 C 226.494 106.198 227.344 107.207 228.057 107.939 C 228.724 108.516 229.102 108.672 229.719 108.745 L 229.601 104.078" fill="none" vector-effect="non-scaling-stroke" stroke-width="1" stroke="rgb(0,0,0)" stroke-linejoin="miter" stroke-linecap="square" stroke-miterlimit="3"/><path d=" M 225.301 96.732 C 224.983 96.661 224.581 96.341 224.055 95.791 C 223.712 94.757 223.93 93.878 224.671 93.171 C 225.263 92.948 225.833 92.841 226.305 92.886 C 226.933 93.12 227.421 93.22 227.52 93.608 C 228.081 95.132 228.624 96.333 229.111 97.231 C 229.596 97.969 229.917 98.222 230.491 98.46 L 231.647 93.937" fill="none" vector-effect="non-scaling-stroke" stroke-width="1" stroke="rgb(0,0,0)" stroke-linejoin="miter" stroke-linecap="square" stroke-miterlimit="3"/><path d=" M 230.695 78.273 C 230.403 78.128 230.088 77.722 229.709 77.063 C 229.622 75.977 230.043 75.175 230.931 74.665 C 231.559 74.589 232.138 74.621 232.586 74.776 C 233.14 75.154 233.59 75.367 233.594 75.767 C 233.776 77.381 234.017 78.677 234.276 79.665 C 234.572 80.497 234.823 80.819 235.324 81.187 L 237.524 77.069" fill="none" vector-effect="non-scaling-stroke" stroke-width="1" stroke="rgb(0,0,0)" stroke-linejoin="miter" stroke-linecap="square" stroke-miterlimit="3"/><path d=" M 240.415 61.987 C 240.15 61.798 239.903 61.347 239.632 60.636 C 239.718 59.55 240.26 58.824 241.217 58.461 C 241.849 58.485 242.416 58.607 242.834 58.832 C 243.322 59.292 243.732 59.573 243.673 59.969 C 243.598 61.591 243.632 62.91 243.732 63.926 C 243.893 64.794 244.09 65.152 244.527 65.594 L 247.348 61.875" fill="none" vector-effect="non-scaling-stroke" stroke-width="1" stroke="rgb(0,0,0)" stroke-linejoin="miter" stroke-linecap="square" stroke-miterlimit="3"/><path d=" M 349.526 49.1 L 347.186 46.948 L 344.218 49.411 L 345.59 50.029 L 346.458 50.626 L 346.989 51.368 L 346.993 52.305 L 346.469 53.388 L 345.84 53.799 L 344.647 54.165 L 343.659 54.049 L 342.866 53.404 L 342.383 52.613 L 342.186 51.677" fill="none" vector-effect="non-scaling-stroke" stroke-width="1" stroke="rgb(0,0,0)" stroke-linejoin="miter" stroke-linecap="square" stroke-miterlimit="3"/><path d=" M 245.967 53.275 L 243.767 55.569 L 246.168 58.588 L 246.815 57.229 L 247.429 56.375 L 248.183 55.859 L 249.119 55.874 L 250.191 56.42 L 250.589 57.058 L 250.93 58.258 L 250.793 59.244 L 250.132 60.023 L 249.331 60.49 L 248.391 60.667" fill="none" vector-effect="non-scaling-stroke" stroke-width="1" stroke="rgb(0,0,0)" stroke-linejoin="miter" stroke-linecap="square" stroke-miterlimit="3"/><path d=" M 305.664 186.566 L 308.821 186.199 L 308.893 182.343 L 307.529 182.978 L 306.511 183.245 L 305.601 183.163 L 304.889 182.554 L 304.411 181.45 L 304.511 180.705 L 305.013 179.563 L 305.746 178.89 L 306.752 178.711 L 307.666 178.861 L 308.503 179.324" fill="none" vector-effect="non-scaling-stroke" stroke-width="1" stroke="rgb(0,0,0)" stroke-linejoin="miter" stroke-linecap="square" stroke-miterlimit="3"/><path d=" M 311.47 33.615 L 312.045 32.798 C 312.361 32.692 312.729 32.597 313.119 32.482 C 313.631 32.533 314.051 32.648 314.35 32.798 L 315.013 33.615 L 315.265 34.643 L 315.013 35.42 L 314.034 35.796 L 312.66 35.796 L 314.034 36.428 L 314.697 37.369 L 314.697 38.164 L 314.35 39.084 L 313.497 39.805 L 312.66 39.805 L 311.47 39.458 L 310.625 38.858 L 310.372 37.943 L 310.372 37.369" fill="none" vector-effect="non-scaling-stroke" stroke-width="1" stroke="rgb(0,0,0)" stroke-linejoin="miter" stroke-linecap="square" stroke-miterlimit="3"/><path d=" M 343.154 170.686 L 343.229 171.682 C 343.052 171.964 342.829 172.271 342.601 172.608 C 342.173 172.894 341.775 173.072 341.449 173.146 L 340.418 172.936 L 339.57 172.302 L 339.272 171.542 L 339.788 170.63 L 340.849 169.757 L 339.387 170.142 L 338.278 169.836 L 337.772 169.222 L 337.456 168.291 L 337.656 167.192 L 338.303 166.661 L 339.442 166.173 L 340.476 166.099 L 341.253 166.645 L 341.618 167.089" fill="none" vector-effect="non-scaling-stroke" stroke-width="1" stroke="rgb(0,0,0)" stroke-linejoin="miter" stroke-linecap="square" stroke-miterlimit="3"/><path d=" M 226.757 90.064 L 226.008 89.402 C 225.939 89.077 225.885 88.701 225.813 88.301 C 225.921 87.797 226.082 87.392 226.263 87.112 L 227.149 86.544 L 228.199 86.407 L 228.943 86.744 L 229.209 87.758 L 229.057 89.123 L 229.836 87.828 L 230.845 87.273 L 231.635 87.361 L 232.511 87.808 L 233.134 88.735 L 233.041 89.567 L 232.564 90.711 L 231.875 91.485 L 230.937 91.635 L 230.366 91.572" fill="none" vector-effect="non-scaling-stroke" stroke-width="1" stroke="rgb(0,0,0)" stroke-linejoin="miter" stroke-linecap="square" stroke-miterlimit="3"/><path d=" M 330.232 45.641 L 333.232 38.637 L 327.919 42.331 L 332.075 43.891" fill="none" vector-effect="non-scaling-stroke" stroke-width="1" stroke="rgb(0,0,0)" stroke-linejoin="miter" stroke-linecap="square" stroke-miterlimit="3"/><path d=" M 323.652 174.901 L 326.393 182.01 L 327.618 175.657 L 323.553 177.441" fill="none" vector-effect="non-scaling-stroke" stroke-width="1" stroke="rgb(0,0,0)" stroke-linejoin="miter" stroke-linecap="square" stroke-miterlimit="3"/><path d=" M 240.429 72.74 L 233.742 69.089 L 236.915 74.728 L 238.862 70.738" fill="none" vector-effect="non-scaling-stroke" stroke-width="1" stroke="rgb(0,0,0)" stroke-linejoin="miter" stroke-linecap="square" stroke-miterlimit="3"/><path d=" M 362.893 62.878 L 362.107 61.232 L 360.77 60.667 L 358.302 61.232 L 356.015 62.878 L 355.576 64.163 L 355.576 64.986 L 356.348 66.323 L 357.325 66.734 L 358.764 66.734 L 359.947 65.654 L 359.947 64.163 L 359.227 62.878 L 358.302 62.466" fill="none" vector-effect="non-scaling-stroke" stroke-width="1" stroke="rgb(0,0,0)" stroke-linejoin="miter" stroke-linecap="square" stroke-miterlimit="3"/><path d=" M 287.816 185.43 L 289.596 185.83 L 290.867 185.129 L 291.949 182.84 L 292.071 180.025 L 291.332 178.886 L 290.686 178.377 L 289.158 178.156 L 288.231 178.669 L 287.34 179.8 L 287.457 181.397 L 288.629 182.32 L 290.084 182.549 L 290.98 182.077" fill="none" vector-effect="non-scaling-stroke" stroke-width="1" stroke="rgb(0,0,0)" stroke-linejoin="miter" stroke-linecap="square" stroke-miterlimit="3"/><path d=" M 364.321 78.665 C 367.198 77.819 368.691 77.963 371.445 78.799 L 369.288 73.934" fill="none" vector-effect="non-scaling-stroke" stroke-width="1" stroke="rgb(0,0,0)" stroke-linejoin="miter" stroke-linecap="square" stroke-miterlimit="3"/><path d=" M 273.824 174.548 C 272.159 177.041 270.769 178.242 268.12 179.366 L 272.894 181.716" fill="none" vector-effect="non-scaling-stroke" stroke-width="1" stroke="rgb(0,0,0)" stroke-linejoin="miter" stroke-linecap="square" stroke-miterlimit="3"/><g><path d=" M 372.947 93.975 C 372.758 92.909 373.372 91.908 374.317 91.741 C 375.262 91.575 376.182 92.304 376.37 93.37 C 376.558 94.436 375.944 95.437 374.999 95.604 C 374.055 95.771 373.135 95.041 372.947 93.975 Z " fill="none" vector-effect="non-scaling-stroke" stroke-width="1" stroke="rgb(0,0,0)" stroke-linejoin="miter" stroke-linecap="square" stroke-miterlimit="3"/><path d=" M 368.941 94.861 C 368.725 93.64 369.455 92.489 370.568 92.293 C 371.682 92.096 372.761 92.927 372.977 94.148 C 373.193 95.369 372.464 96.52 371.35 96.716 C 370.236 96.913 369.157 96.082 368.941 94.861 Z " fill="none" vector-effect="non-scaling-stroke" stroke-width="1" stroke="rgb(0,0,0)" stroke-linejoin="miter" stroke-linecap="square" stroke-miterlimit="3"/></g><g><path d=" M 256.851 169.441 C 257.749 170.046 258.042 171.183 257.506 171.978 C 256.969 172.774 255.805 172.928 254.908 172.323 C 254.011 171.718 253.717 170.581 254.254 169.786 C 254.79 168.99 255.954 168.836 256.851 169.441 Z " fill="none" vector-effect="non-scaling-stroke" stroke-width="1" stroke="rgb(0,0,0)" stroke-linejoin="miter" stroke-linecap="square" stroke-miterlimit="3"/><path d=" M 258.997 165.944 C 260.025 166.637 260.346 167.961 259.714 168.899 C 259.081 169.837 257.734 170.035 256.706 169.342 C 255.678 168.649 255.357 167.325 255.989 166.388 C 256.621 165.45 257.969 165.251 258.997 165.944 Z " fill="none" vector-effect="non-scaling-stroke" stroke-width="1" stroke="rgb(0,0,0)" stroke-linejoin="miter" stroke-linecap="square" stroke-miterlimit="3"/></g><path d=" M 370.69 109.856 L 370.278 110.933 L 370.278 111.897 L 370.944 112.917 L 372.829 113.881 L 374.984 113.881 L 376.457 113.881 L 377.761 112.464 L 377.471 110.648 L 376.457 109.856 L 375.375 109.493 L 374.247 109.856 L 373.51 110.933 L 373.51 111.897 L 374.247 112.917" fill="none" vector-effect="non-scaling-stroke" stroke-width="1" stroke="rgb(0,0,0)" stroke-linejoin="miter" stroke-linecap="square" stroke-miterlimit="3"/><path d=" M 247.886 156.022 L 247.493 154.937 L 246.862 154.209 L 245.691 153.873 L 243.635 154.378 L 242.006 155.788 L 240.892 156.752 L 240.833 158.677 L 242.241 159.86 L 243.525 159.796 L 244.581 159.362 L 245.197 158.349 L 245.05 157.052 L 244.419 156.323 L 243.194 156.034" fill="none" vector-effect="non-scaling-stroke" stroke-width="1" stroke="rgb(0,0,0)" stroke-linejoin="miter" stroke-linecap="square" stroke-miterlimit="3"/></g></g></svg>