<?xml version="1.0" encoding="UTF-8" standalone="no"?>
<!-- Generator: Gravit.io -->
<svg xmlns="http://www.w3.org/2000/svg" xmlns:xlink="http://www.w3.org/1999/xlink" style="isolation:isolate" viewBox="0 0 226.772 226.772" width="226.772" height="226.772"><defs><clipPath id="_clipPath_RZ2VGL3N7WTdyo578gVurl3k2EzODi96"><rect width="226.772" height="226.772"/></clipPath></defs><g clip-path="url(#_clipPath_RZ2VGL3N7WTdyo578gVurl3k2EzODi96)"><g><circle vector-effect="non-scaling-stroke" cx="113.38582677165354" cy="113.38582677165354" r="100.62992125984252" fill="none" stroke-width="1" stroke="rgb(255,0,0)" stroke-linejoin="miter" stroke-linecap="square" stroke-miterlimit="3"/><path d=" M 34.685 56.536 C 66.061 13.099 126.8 3.308 170.236 34.685 C 213.672 66.061 223.463 126.8 192.087 170.236 C 160.711 213.672 99.972 223.463 56.536 192.087 C 13.099 160.711 3.308 99.972 34.685 56.536 Z " fill="none"/><path d=" M 61.486 30.687 L 64.221 34.722 L 62.643 35.792 L 60.978 33.336 L 59.484 34.348 L 64.852 42.267 L 66.609 41.076 L 67.679 42.655 L 62.417 46.222 L 61.347 44.643 L 63.095 43.458 L 57.727 35.539 L 56.216 36.564 L 57.881 39.02 L 56.32 40.078 L 53.584 36.044 L 61.486 30.687 Z  M 82.349 20.852 L 85.316 28.938 L 85.316 28.938 Q 85.708 30.007 85.79 30.96 L 85.79 30.96 L 85.79 30.96 Q 85.872 31.913 85.601 32.706 L 85.601 32.706 L 85.601 32.706 Q 85.329 33.499 84.692 34.115 L 84.692 34.115 L 84.692 34.115 Q 84.055 34.731 83.016 35.112 L 83.016 35.112 L 83.016 35.112 Q 81.966 35.497 81.097 35.434 L 81.097 35.434 L 81.097 35.434 Q 80.227 35.371 79.507 34.942 L 79.507 34.942 L 79.507 34.942 Q 78.787 34.512 78.23 33.723 L 78.23 33.723 L 78.23 33.723 Q 77.672 32.933 77.28 31.865 L 77.28 31.865 L 74.321 23.798 L 76.313 23.067 L 79.283 31.16 L 79.283 31.16 Q 79.456 31.632 79.709 32.113 L 79.709 32.113 L 79.709 32.113 Q 79.962 32.594 80.328 32.952 L 80.328 32.952 L 80.328 32.952 Q 80.694 33.31 81.199 33.436 L 81.199 33.436 L 81.199 33.436 Q 81.704 33.562 82.359 33.322 L 82.359 33.322 L 82.359 33.322 Q 83.004 33.085 83.307 32.662 L 83.307 32.662 L 83.307 32.662 Q 83.611 32.239 83.677 31.734 L 83.677 31.734 L 83.677 31.734 Q 83.743 31.229 83.621 30.689 L 83.621 30.689 L 83.621 30.689 Q 83.499 30.149 83.326 29.677 L 83.326 29.677 L 80.356 21.583 L 82.349 20.852 Z  M 103.127 24.268 L 107.537 29.333 L 104.867 29.634 L 100.817 24.642 L 99.859 24.75 L 100.465 30.13 L 98.356 30.367 L 96.858 17.07 L 101.239 16.577 L 101.239 16.577 Q 103.43 16.33 104.755 17.197 L 104.755 17.197 L 104.755 17.197 Q 106.081 18.064 106.303 20.03 L 106.303 20.03 L 106.303 20.03 Q 106.401 20.907 106.207 21.604 L 106.207 21.604 L 106.207 21.604 Q 106.012 22.302 105.572 22.837 L 105.572 22.837 L 105.572 22.837 Q 105.131 23.371 104.506 23.726 L 104.506 23.726 L 104.506 23.726 Q 103.88 24.08 103.127 24.268 L 103.127 24.268 Z  M 104.189 20.227 L 104.189 20.227 L 104.189 20.227 Q 104.074 19.208 103.349 18.774 L 103.349 18.774 L 103.349 18.774 Q 102.624 18.34 101.453 18.472 L 101.453 18.472 L 99.18 18.728 L 99.643 22.834 L 101.915 22.578 L 101.915 22.578 Q 103.087 22.446 103.697 21.861 L 103.697 21.861 L 103.697 21.861 Q 104.307 21.277 104.189 20.227 Z  M 126.276 28.032 L 126.123 29.933 L 119.725 29.419 L 119.878 27.518 L 121.983 27.687 L 122.748 18.151 L 120.643 17.982 L 120.795 16.081 L 127.193 16.594 L 127.041 18.495 L 124.864 18.321 L 124.099 27.857 L 126.276 28.032 Z  M 150.975 23.05 L 146.687 35.726 L 144.356 34.938 L 143.705 24.477 L 140.597 33.666 L 138.586 32.986 L 142.874 20.31 L 145.4 21.164 L 146.011 31.102 L 148.965 22.37 L 150.975 23.05 Z  M 168.932 40.679 L 168.747 40.963 L 168.747 40.963 Q 168.004 42.107 167.1 42.999 L 167.1 42.999 L 167.1 42.999 Q 166.196 43.891 165.156 44.353 L 165.156 44.353 L 165.156 44.353 Q 164.117 44.814 162.985 44.758 L 162.985 44.758 L 162.985 44.758 Q 161.854 44.701 160.677 43.936 L 160.677 43.936 L 160.677 43.936 Q 159.499 43.171 158.999 42.155 L 158.999 42.155 L 158.999 42.155 Q 158.499 41.139 158.496 39.999 L 158.496 39.999 L 158.496 39.999 Q 158.493 38.86 158.945 37.662 L 158.945 37.662 L 158.945 37.662 Q 159.398 36.465 160.13 35.338 L 160.13 35.338 L 160.13 35.338 Q 160.862 34.212 161.772 33.311 L 161.772 33.311 L 161.772 33.311 Q 162.682 32.411 163.728 31.941 L 163.728 31.941 L 163.728 31.941 Q 164.774 31.471 165.908 31.517 L 165.908 31.517 L 165.908 31.517 Q 167.041 31.563 168.221 32.329 L 168.221 32.329 L 168.221 32.329 Q 168.556 32.548 168.848 32.872 L 168.848 32.872 L 168.848 32.872 Q 169.139 33.196 169.332 33.596 L 169.332 33.596 L 169.332 33.596 Q 169.525 33.997 169.586 34.44 L 169.586 34.44 L 169.586 34.44 Q 169.647 34.883 169.51 35.32 L 169.51 35.32 L 170.37 33.996 L 171.97 35.035 L 169.382 39.016 L 167.783 37.976 L 167.783 37.976 Q 168.124 37.452 168.265 36.877 L 168.265 36.877 L 168.265 36.877 Q 168.406 36.303 168.335 35.754 L 168.335 35.754 L 168.335 35.754 Q 168.263 35.206 167.973 34.731 L 167.973 34.731 L 167.973 34.731 Q 167.683 34.255 167.184 33.931 L 167.184 33.931 L 167.184 33.931 Q 166.428 33.439 165.7 33.505 L 165.7 33.505 L 165.7 33.505 Q 164.972 33.57 164.289 33.983 L 164.289 33.983 L 164.289 33.983 Q 163.605 34.395 163.002 35.069 L 163.002 35.069 L 163.002 35.069 Q 162.399 35.742 161.907 36.499 L 161.907 36.499 L 161.907 36.499 Q 161.415 37.257 161.044 38.081 L 161.044 38.081 L 161.044 38.081 Q 160.673 38.904 160.567 39.687 L 160.567 39.687 L 160.567 39.687 Q 160.462 40.469 160.711 41.157 L 160.711 41.157 L 160.711 41.157 Q 160.96 41.845 161.716 42.337 L 161.716 42.337 L 161.716 42.337 Q 162.808 43.046 163.932 42.784 L 163.932 42.784 L 163.932 42.784 Q 165.057 42.521 166.259 41.217 L 166.259 41.217 L 163.895 39.681 L 164.934 38.081 L 168.932 40.679 Z  M 188.705 51.025 L 182.627 56.641 L 182.627 56.641 Q 180.759 58.367 178.997 58.522 L 178.997 58.522 L 178.997 58.522 Q 177.235 58.678 175.725 57.043 L 175.725 57.043 L 175.725 57.043 Q 174.514 55.733 174.378 54.211 L 174.378 54.211 L 174.378 54.211 Q 174.243 52.689 175.289 51.066 L 175.289 51.066 L 177.11 51.98 L 177.11 51.98 Q 176.431 53.013 176.392 53.963 L 176.392 53.963 L 176.392 53.963 Q 176.353 54.913 177.126 55.749 L 177.126 55.749 L 177.126 55.749 Q 177.592 56.254 178.099 56.386 L 178.099 56.386 L 178.099 56.386 Q 178.605 56.518 179.122 56.382 L 179.122 56.382 L 179.122 56.382 Q 179.64 56.246 180.162 55.897 L 180.162 55.897 L 180.162 55.897 Q 180.684 55.547 181.181 55.087 L 181.181 55.087 L 187.264 49.466 L 188.705 51.025 Z  M 192.984 75.716 L 192.984 75.716 L 192.984 75.716 Q 192.172 76.155 191.387 76.224 L 191.387 76.224 L 191.387 76.224 Q 190.603 76.292 189.905 76.058 L 189.905 76.058 L 189.905 76.058 Q 189.207 75.823 188.619 75.296 L 188.619 75.296 L 188.619 75.296 Q 188.031 74.768 187.631 74.029 L 187.631 74.029 L 187.631 74.029 Q 187.182 73.199 187.121 72.37 L 187.121 72.37 L 187.121 72.37 Q 187.06 71.54 187.49 70.69 L 187.49 70.69 L 186.41 71.274 L 185.503 69.596 L 189.352 67.516 L 190.258 69.194 L 190.258 69.194 Q 189.681 69.506 189.349 69.947 L 189.349 69.947 L 189.349 69.947 Q 189.017 70.389 188.896 70.886 L 188.896 70.886 L 188.896 70.886 Q 188.775 71.382 188.857 71.909 L 188.857 71.909 L 188.857 71.909 Q 188.938 72.436 189.206 72.933 L 189.206 72.933 L 189.206 72.933 Q 189.66 73.771 190.325 74.076 L 190.325 74.076 L 190.325 74.076 Q 190.991 74.381 191.838 73.923 L 191.838 73.923 L 191.838 73.923 Q 192.28 73.684 192.51 73.356 L 192.51 73.356 L 192.51 73.356 Q 192.74 73.028 192.829 72.601 L 192.829 72.601 L 192.829 72.601 Q 192.919 72.173 192.874 71.65 L 192.874 71.65 L 192.874 71.65 Q 192.83 71.126 192.745 70.472 L 192.745 70.472 L 192.745 70.472 Q 192.615 69.715 192.539 68.928 L 192.539 68.928 L 192.539 68.928 Q 192.463 68.142 192.587 67.422 L 192.587 67.422 L 192.587 67.422 Q 192.711 66.703 193.121 66.073 L 193.121 66.073 L 193.121 66.073 Q 193.532 65.443 194.415 64.966 L 194.415 64.966 L 194.415 64.966 Q 195.19 64.547 195.925 64.517 L 195.925 64.517 L 195.925 64.517 Q 196.66 64.487 197.313 64.746 L 197.313 64.746 L 197.313 64.746 Q 197.965 65.005 198.507 65.523 L 198.507 65.523 L 198.507 65.523 Q 199.049 66.04 199.429 66.744 L 199.429 66.744 L 199.429 66.744 Q 199.868 67.556 199.839 68.323 L 199.839 68.323 L 199.839 68.323 Q 199.811 69.09 199.413 69.713 L 199.413 69.713 L 200.469 69.142 L 201.375 70.82 L 197.713 72.799 L 196.806 71.122 L 196.806 71.122 Q 197.844 70.561 198.13 69.701 L 198.13 69.701 L 198.13 69.701 Q 198.417 68.84 197.92 67.92 L 197.92 67.92 L 197.92 67.92 Q 197.481 67.108 196.812 66.776 L 196.812 66.776 L 196.812 66.776 Q 196.143 66.444 195.458 66.815 L 195.458 66.815 L 195.458 66.815 Q 195.106 67.005 194.934 67.279 L 194.934 67.279 L 194.934 67.279 Q 194.761 67.553 194.702 67.929 L 194.702 67.929 L 194.702 67.929 Q 194.643 68.305 194.686 68.806 L 194.686 68.806 L 194.686 68.806 Q 194.73 69.307 194.81 69.951 L 194.81 69.951 L 194.81 69.951 Q 194.936 70.745 194.994 71.565 L 194.994 71.565 L 194.994 71.565 Q 195.052 72.384 194.902 73.141 L 194.902 73.141 L 194.902 73.141 Q 194.752 73.898 194.314 74.566 L 194.314 74.566 L 194.314 74.566 Q 193.877 75.234 192.984 75.716 Z  M 202.594 90.547 L 196.19 97.023 L 195.562 94.623 L 200.706 89.653 L 199.471 89.064 L 194.452 90.377 L 193.915 88.323 L 206.861 84.938 L 207.398 86.991 L 202.318 88.32 L 208.451 91.019 L 209.141 93.658 L 202.594 90.547 Z  M 199.628 117.523 L 197.721 117.553 L 197.652 113.186 L 199.559 113.156 L 199.571 113.914 L 202.573 112.462 L 199.526 111.105 L 199.538 111.854 L 197.631 111.884 L 197.563 107.557 L 199.47 107.527 L 199.488 108.686 L 204.384 111.213 L 209.054 108.575 L 209.039 107.612 L 210.946 107.582 L 211.013 111.826 L 209.106 111.856 L 209.093 110.995 L 206.141 112.406 L 209.136 113.743 L 209.123 112.902 L 211.03 112.872 L 211.097 117.137 L 209.19 117.167 L 209.174 116.132 L 204.422 113.653 L 199.609 116.334 L 199.628 117.523 Z  M 194.181 137.991 L 194.699 135.827 L 198.025 135.633 L 199.057 131.325 L 196.175 129.665 L 196.694 127.501 L 208.735 134.676 L 208.166 137.049 L 194.181 137.991 Z  M 205.728 135.211 L 200.75 132.31 L 199.981 135.521 L 205.728 135.211 Z  M 188.15 156.44 L 186.455 155.565 L 190.377 147.966 L 202.268 154.102 L 198.347 161.702 L 196.652 160.827 L 199.6 155.114 L 196.301 153.411 L 194.002 157.867 L 192.307 156.993 L 194.607 152.537 L 191.098 150.727 L 188.15 156.44 Z  M 184.253 180.653 L 174.236 171.781 L 175.643 170.192 L 180.026 174.074 L 182.881 170.85 L 178.498 166.968 L 179.906 165.379 L 189.923 174.251 L 188.516 175.84 L 184.309 172.114 L 181.454 175.338 L 185.66 179.064 L 184.253 180.653 Z  M 165.442 196.083 L 164.371 194.505 L 165.168 193.963 L 164.241 187.322 L 162.246 184.384 L 160.473 185.587 L 159.402 184.009 L 164.696 180.416 L 165.767 181.993 L 164.003 183.191 L 165.997 186.13 L 171.819 189.448 L 172.617 188.907 L 173.688 190.485 L 170.201 192.852 L 169.13 191.274 L 169.893 190.755 L 166.274 188.454 L 167.094 192.656 L 167.857 192.138 L 168.929 193.716 L 165.442 196.083 Z  M 145.458 205.826 L 144.716 204.069 L 150.638 201.567 L 149.193 198.147 L 144.574 200.099 L 143.832 198.342 L 148.451 196.391 L 146.172 190.997 L 148.128 190.171 L 153.335 202.497 L 145.458 205.826 Z  M 122.836 210.546 L 120.645 210.793 L 121.207 197.264 L 123.377 197.019 L 125.195 202.624 L 125.7 196.758 L 127.871 196.513 L 131.426 209.579 L 129.235 209.826 L 127.004 201.007 L 126.617 206.272 L 124.599 206.499 L 123.081 201.448 L 122.836 210.546 Z  M 98.316 205.834 L 98.316 205.834 L 98.316 205.834 Q 98.573 203.841 99.908 203.025 L 99.908 203.025 L 99.908 203.025 Q 101.243 202.21 103.409 202.488 L 103.409 202.488 L 105.698 202.783 L 106.388 197.413 L 108.494 197.684 L 106.786 210.956 L 102.413 210.393 L 102.413 210.393 Q 100.226 210.112 99.145 208.954 L 99.145 208.954 L 99.145 208.954 Q 98.064 207.797 98.316 205.834 Z  M 100.418 206.136 L 100.418 206.136 L 100.418 206.136 Q 100.286 207.158 100.886 207.754 L 100.886 207.754 L 100.886 207.754 Q 101.487 208.351 102.636 208.499 L 102.636 208.499 L 104.924 208.793 L 105.454 204.674 L 103.166 204.38 L 103.166 204.38 Q 102.017 204.232 101.285 204.658 L 101.285 204.658 L 101.285 204.658 Q 100.553 205.083 100.418 206.136 Z  M 86.792 200.648 L 86.792 200.648 L 86.792 200.648 Q 86.298 201.897 85.571 202.955 L 85.571 202.955 L 85.571 202.955 Q 84.844 204.013 83.931 204.677 L 83.931 204.677 L 83.931 204.677 Q 83.018 205.342 81.895 205.521 L 81.895 205.521 L 81.895 205.521 Q 80.771 205.7 79.484 205.191 L 79.484 205.191 L 79.484 205.191 Q 78.196 204.682 77.498 203.783 L 77.498 203.783 L 77.498 203.783 Q 76.801 202.884 76.579 201.771 L 76.579 201.771 L 76.579 201.771 Q 76.358 200.657 76.56 199.391 L 76.56 199.391 L 76.56 199.391 Q 76.763 198.125 77.257 196.875 L 77.257 196.875 L 77.257 196.875 Q 77.713 195.721 78.339 194.738 L 78.339 194.738 L 78.339 194.738 Q 78.964 193.755 79.776 193.082 L 79.776 193.082 L 79.776 193.082 Q 80.587 192.41 81.552 192.102 L 81.552 192.102 L 81.552 192.102 Q 82.517 191.794 83.644 192.04 L 83.644 192.04 L 83.644 192.04 Q 83.922 191.058 83.373 190.438 L 83.373 190.438 L 83.373 190.438 Q 82.824 189.819 81.555 189.317 L 81.555 189.317 L 81.555 189.317 Q 81.384 189.25 81.175 189.178 L 81.175 189.178 L 81.175 189.178 Q 80.966 189.107 80.747 189.02 L 80.747 189.02 L 81.44 187.265 L 81.44 187.265 Q 81.724 187.355 81.981 187.446 L 81.981 187.446 L 81.981 187.446 Q 82.237 187.536 82.476 187.63 L 82.476 187.63 L 82.476 187.63 Q 84.402 188.391 85.255 189.748 L 85.255 189.748 L 85.255 189.748 Q 86.108 191.105 85.668 192.916 L 85.668 192.916 L 85.668 192.916 Q 86.55 193.529 87.011 194.4 L 87.011 194.4 L 87.011 194.4 Q 87.472 195.272 87.565 196.29 L 87.565 196.29 L 87.565 196.29 Q 87.659 197.308 87.444 198.425 L 87.444 198.425 L 87.444 198.425 Q 87.229 199.542 86.792 200.648 Z  M 84.818 199.868 L 84.818 199.868 L 84.818 199.868 Q 85.149 199.029 85.352 198.138 L 85.352 198.138 L 85.352 198.138 Q 85.555 197.248 85.507 196.463 L 85.507 196.463 L 85.507 196.463 Q 85.459 195.678 85.082 195.055 L 85.082 195.055 L 85.082 195.055 Q 84.705 194.432 83.866 194.1 L 83.866 194.1 L 83.866 194.1 Q 83.027 193.769 82.326 193.966 L 82.326 193.966 L 82.326 193.966 Q 81.625 194.163 81.053 194.703 L 81.053 194.703 L 81.053 194.703 Q 80.482 195.244 80.021 196.032 L 80.021 196.032 L 80.021 196.032 Q 79.561 196.82 79.229 197.66 L 79.229 197.66 L 79.229 197.66 Q 78.898 198.499 78.699 199.379 L 78.699 199.379 L 78.699 199.379 Q 78.499 200.26 78.546 201.05 L 78.546 201.05 L 78.546 201.05 Q 78.592 201.84 78.978 202.467 L 78.978 202.467 L 78.978 202.467 Q 79.364 203.093 80.184 203.417 L 80.184 203.417 L 80.184 203.417 Q 81.548 203.956 82.75 203.009 L 82.75 203.009 L 82.75 203.009 Q 83.951 202.061 84.818 199.868 Z  M 60.442 183.788 L 60.442 183.788 L 60.442 183.788 Q 61.436 182.259 62.979 182.162 L 62.979 182.162 L 62.979 182.162 Q 64.522 182.064 66.439 183.311 L 66.439 183.311 L 70.015 185.635 L 62.724 196.855 L 59.345 194.659 L 59.345 194.659 Q 58.64 194.201 58.036 193.643 L 58.036 193.643 L 58.036 193.643 Q 57.432 193.086 57.102 192.418 L 57.102 192.418 L 57.102 192.418 Q 56.771 191.751 56.808 190.96 L 56.808 190.96 L 56.808 190.96 Q 56.844 190.17 57.437 189.258 L 57.437 189.258 L 57.437 189.258 Q 57.991 188.406 58.884 187.983 L 58.884 187.983 L 58.884 187.983 Q 59.776 187.56 60.855 187.82 L 60.855 187.82 L 60.855 187.82 Q 59.998 186.786 59.86 185.841 L 59.86 185.841 L 59.86 185.841 Q 59.722 184.896 60.442 183.788 Z  M 59.349 190.174 L 59.349 190.174 L 59.349 190.174 Q 59.029 190.667 59.011 191.098 L 59.011 191.098 L 59.011 191.098 Q 58.994 191.529 59.177 191.888 L 59.177 191.888 L 59.177 191.888 Q 59.36 192.247 59.687 192.533 L 59.687 192.533 L 59.687 192.533 Q 60.014 192.82 60.384 193.06 L 60.384 193.06 L 61.983 194.099 L 64.006 190.987 L 62.407 189.948 L 62.407 189.948 Q 62.037 189.707 61.642 189.524 L 61.642 189.524 L 61.642 189.524 Q 61.247 189.342 60.846 189.32 L 60.846 189.32 L 60.846 189.32 Q 60.444 189.299 60.057 189.49 L 60.057 189.49 L 60.057 189.49 Q 59.669 189.681 59.349 190.174 Z  M 62.086 185.116 L 62.086 185.116 L 62.086 185.116 Q 61.538 185.959 61.864 186.746 L 61.864 186.746 L 61.864 186.746 Q 62.191 187.533 63.248 188.22 L 63.248 188.22 L 65.045 189.388 L 67.196 186.078 L 65.4 184.91 L 65.4 184.91 Q 64.342 184.222 63.488 184.248 L 63.488 184.248 L 63.488 184.248 Q 62.633 184.274 62.086 185.116 Z  M 45.369 170.845 L 44.696 169.15 L 44.696 169.15 Q 45.587 168.662 46.453 168.42 L 46.453 168.42 L 46.453 168.42 Q 47.32 168.177 48.132 168.23 L 48.132 168.23 L 48.132 168.23 Q 48.944 168.282 49.701 168.65 L 49.701 168.65 L 49.701 168.65 Q 50.458 169.019 51.147 169.764 L 51.147 169.764 L 51.147 169.764 Q 52.1 170.796 52.335 171.904 L 52.335 171.904 L 52.335 171.904 Q 52.57 173.012 52.281 174.127 L 52.281 174.127 L 52.281 174.127 Q 51.992 175.243 51.263 176.289 L 51.263 176.289 L 51.263 176.289 Q 50.533 177.335 49.546 178.246 L 49.546 178.246 L 49.546 178.246 Q 48.56 179.158 47.456 179.807 L 47.456 179.807 L 47.456 179.807 Q 46.353 180.456 45.238 180.654 L 45.238 180.654 L 45.238 180.654 Q 44.123 180.853 43.056 180.552 L 43.056 180.552 L 43.056 180.552 Q 41.99 180.252 41.063 179.249 L 41.063 179.249 L 41.063 179.249 Q 40.763 178.924 40.54 178.516 L 40.54 178.516 L 40.54 178.516 Q 40.316 178.108 40.221 177.665 L 40.221 177.665 L 40.221 177.665 Q 40.125 177.221 40.175 176.777 L 40.175 176.777 L 40.175 176.777 Q 40.225 176.332 40.465 175.943 L 40.465 175.943 L 39.306 177.014 L 38.011 175.613 L 41.732 172.176 L 43.026 173.577 L 43.026 173.577 Q 42.567 174.001 42.223 174.528 L 42.223 174.528 L 42.223 174.528 Q 41.879 175.055 41.762 175.624 L 41.762 175.624 L 41.762 175.624 Q 41.646 176.192 41.775 176.771 L 41.775 176.771 L 41.775 176.771 Q 41.905 177.349 42.378 177.861 L 42.378 177.861 L 42.378 177.861 Q 42.99 178.524 43.704 178.646 L 43.704 178.646 L 43.704 178.646 Q 44.418 178.769 45.182 178.537 L 45.182 178.537 L 45.182 178.537 Q 45.947 178.305 46.696 177.801 L 46.696 177.801 L 46.696 177.801 Q 47.446 177.297 48.11 176.684 L 48.11 176.684 L 48.11 176.684 Q 48.773 176.071 49.343 175.356 L 49.343 175.356 L 49.343 175.356 Q 49.913 174.642 50.208 173.91 L 50.208 173.91 L 50.208 173.91 Q 50.502 173.178 50.43 172.449 L 50.43 172.449 L 50.43 172.449 Q 50.358 171.721 49.746 171.059 L 49.746 171.059 L 49.746 171.059 Q 48.862 170.102 47.775 170.151 L 47.775 170.151 L 47.775 170.151 Q 46.687 170.2 45.369 170.845 L 45.369 170.845 Z  M 33.058 152.038 L 37.324 149.731 L 41.392 157.253 L 39.731 158.152 L 28.45 157.443 L 30.391 161.033 L 32.956 159.646 L 33.864 161.324 L 29.621 163.618 L 25.636 156.249 L 27.323 155.337 L 38.495 155.906 L 36.539 152.289 L 33.95 153.688 L 33.058 152.038 Z  M 18.2 134.939 L 17.637 132.786 L 31.639 133.441 L 32.251 135.783 L 20.359 143.203 L 19.797 141.051 L 29.244 135.307 L 18.2 134.939 Z  M 22.62 119.733 L 22.62 119.733 L 22.62 119.733 Q 21.277 119.755 20.022 119.488 L 20.022 119.488 L 20.022 119.488 Q 18.766 119.221 17.803 118.631 L 17.803 118.631 L 17.803 118.631 Q 16.84 118.042 16.245 117.072 L 16.245 117.072 L 16.245 117.072 Q 15.65 116.102 15.628 114.718 L 15.628 114.718 L 15.628 114.718 Q 15.606 113.334 16.169 112.345 L 16.169 112.345 L 16.169 112.345 Q 16.733 111.357 17.676 110.727 L 17.676 110.727 L 17.676 110.727 Q 18.62 110.096 19.866 109.799 L 19.866 109.799 L 19.866 109.799 Q 21.113 109.502 22.456 109.481 L 22.456 109.481 L 22.456 109.481 Q 23.799 109.459 25.049 109.716 L 25.049 109.716 L 25.049 109.716 Q 26.299 109.973 27.278 110.562 L 27.278 110.562 L 27.278 110.562 Q 28.256 111.152 28.851 112.122 L 28.851 112.122 L 28.851 112.122 Q 29.446 113.091 29.469 114.496 L 29.469 114.496 L 29.469 114.496 Q 29.491 115.901 28.928 116.889 L 28.928 116.889 L 28.928 116.889 Q 28.364 117.877 27.405 118.503 L 27.405 118.503 L 27.405 118.503 Q 26.446 119.129 25.205 119.42 L 25.205 119.42 L 25.205 119.42 Q 23.963 119.712 22.62 119.733 Z  M 22.591 117.611 L 22.591 117.611 L 22.591 117.611 Q 23.495 117.597 24.395 117.444 L 24.395 117.444 L 24.395 117.444 Q 25.296 117.291 26.004 116.946 L 26.004 116.946 L 26.004 116.946 Q 26.712 116.601 27.144 116.015 L 27.144 116.015 L 27.144 116.015 Q 27.576 115.429 27.562 114.527 L 27.562 114.527 L 27.562 114.527 Q 27.547 113.624 27.097 113.052 L 27.097 113.052 L 27.097 113.052 Q 26.646 112.48 25.928 112.158 L 25.928 112.158 L 25.928 112.158 Q 25.209 111.836 24.304 111.712 L 24.304 111.712 L 24.304 111.712 Q 23.398 111.589 22.495 111.603 L 22.495 111.603 L 22.495 111.603 Q 21.592 111.618 20.701 111.77 L 20.701 111.77 L 20.701 111.77 Q 19.811 111.923 19.097 112.268 L 19.097 112.268 L 19.097 112.268 Q 18.384 112.612 17.953 113.209 L 17.953 113.209 L 17.953 113.209 Q 17.521 113.806 17.535 114.687 L 17.535 114.687 L 17.535 114.687 Q 17.558 116.153 18.895 116.901 L 18.895 116.901 L 18.895 116.901 Q 20.231 117.649 22.591 117.611 Z  M 19.216 87.287 L 32.285 90.161 L 31.829 92.234 L 22.986 90.289 L 27.394 92.634 L 27.042 94.236 L 22.061 94.495 L 30.904 96.44 L 30.448 98.513 L 17.379 95.639 L 17.921 93.175 L 24.204 92.772 L 18.669 89.77 L 19.216 87.287 Z  M 38.587 70.608 L 40.282 71.482 L 36.362 79.082 L 24.47 72.948 L 25.443 71.062 L 35.64 76.322 L 38.587 70.608 Z  M 48.059 50.082 L 48.059 50.082 L 48.059 50.082 Q 49.065 50.973 49.787 51.989 L 49.787 51.989 L 49.787 51.989 Q 50.51 53.006 50.786 54.079 L 50.786 54.079 L 50.786 54.079 Q 51.061 55.152 50.819 56.245 L 50.819 56.245 L 50.819 56.245 Q 50.576 57.339 49.658 58.375 L 49.658 58.375 L 46.775 61.629 L 36.759 52.756 L 39.642 49.502 L 39.642 49.502 Q 40.546 48.481 41.606 48.112 L 41.606 48.112 L 41.606 48.112 Q 42.666 47.743 43.76 47.883 L 43.76 47.883 L 43.76 47.883 Q 44.855 48.024 45.954 48.608 L 45.954 48.608 L 45.954 48.608 Q 47.054 49.191 48.059 50.082 Z  M 46.648 51.667 L 46.648 51.667 L 46.648 51.667 Q 44.911 50.129 43.47 49.907 L 43.47 49.907 L 43.47 49.907 Q 42.028 49.684 41.069 50.767 L 41.069 50.767 L 39.594 52.432 L 46.755 58.776 L 48.231 57.11 L 48.231 57.11 Q 49.189 56.028 48.775 54.607 L 48.775 54.607 L 48.775 54.607 Q 48.361 53.185 46.648 51.667 Z " fill-rule="evenodd" fill="rgb(0,0,0)"/></g><g><g><path d=" M 117.653 96.96 C 123.528 86.848 134.333 80.617 146.028 80.598 C 157.723 80.579 168.549 86.773 174.458 96.866" fill="none" vector-effect="non-scaling-stroke" stroke-width="0.751" stroke="rgb(0,0,0)" stroke-linejoin="round" stroke-linecap="round" stroke-miterlimit="4"/><path d=" M 51.899 96.564 C 51.827 84.723 58.128 73.757 68.395 67.857 C 78.662 61.956 91.309 62.032 101.504 68.056 C 111.699 74.08 117.868 85.121 117.653 96.96" fill="none" vector-effect="non-scaling-stroke" stroke-width="0.751" stroke="rgb(0,0,0)" stroke-linejoin="round" stroke-linecap="round" stroke-miterlimit="4"/><path d=" M 108.712 96.947 C 108.498 85.042 114.738 73.952 125.024 67.954 C 135.31 61.956 148.035 61.988 158.291 68.038 C 168.547 74.087 174.731 85.208 174.458 97.112" fill="none" vector-effect="non-scaling-stroke" stroke-width="0.751" stroke="rgb(0,0,0)" stroke-linejoin="round" stroke-linecap="round" stroke-miterlimit="4"/><path d=" M 66.278 96.825 C 60.671 83.063 64.993 67.251 76.82 58.253 C 88.647 49.256 105.039 49.31 116.807 58.385 C 128.575 67.46 132.792 83.3 127.096 97.026" fill="none" vector-effect="non-scaling-stroke" stroke-width="0.751" stroke="rgb(0,0,0)" stroke-linejoin="round" stroke-linecap="round" stroke-miterlimit="4"/><path d=" M 99.185 96.995 C 93.269 83.194 97.455 67.138 109.356 57.981 C 121.257 48.824 137.85 48.894 149.674 58.151 C 161.497 67.407 165.548 83.498 159.515 97.249" fill="none" vector-effect="non-scaling-stroke" stroke-width="0.751" stroke="rgb(0,0,0)" stroke-linejoin="round" stroke-linecap="round" stroke-miterlimit="4"/><path d=" M 85.081 96.892 C 76.473 83.065 79.286 65.019 91.695 54.467 C 104.103 43.916 122.367 44.04 134.631 54.759 C 146.895 65.478 149.463 83.56 140.668 97.27" fill="none" vector-effect="non-scaling-stroke" stroke-width="0.751" stroke="rgb(0,0,0)" stroke-linejoin="round" stroke-linecap="round" stroke-miterlimit="4"/><path d=" M 51.994 96.955 C 57.869 86.843 68.673 80.612 80.369 80.593 C 92.064 80.574 102.889 86.768 108.798 96.861" fill="none" vector-effect="non-scaling-stroke" stroke-width="0.751" stroke="rgb(0,0,0)" stroke-linejoin="round" stroke-linecap="round" stroke-miterlimit="4"/></g><g><path d=" M 117.653 130.039 C 123.528 140.151 134.333 146.382 146.028 146.401 C 157.723 146.421 168.549 140.226 174.458 130.133" fill="none" vector-effect="non-scaling-stroke" stroke-width="0.751" stroke="rgb(0,0,0)" stroke-linejoin="round" stroke-linecap="round" stroke-miterlimit="4"/><path d=" M 51.899 130.435 C 51.827 142.277 58.128 153.242 68.395 159.143 C 78.662 165.043 91.309 164.967 101.504 158.943 C 111.699 152.919 117.868 141.878 117.653 130.039" fill="none" vector-effect="non-scaling-stroke" stroke-width="0.751" stroke="rgb(0,0,0)" stroke-linejoin="round" stroke-linecap="round" stroke-miterlimit="4"/><path d=" M 108.712 130.052 C 108.498 141.957 114.738 153.047 125.024 159.045 C 135.31 165.043 148.035 165.011 158.291 158.962 C 168.547 152.912 174.731 141.791 174.458 129.887" fill="none" vector-effect="non-scaling-stroke" stroke-width="0.751" stroke="rgb(0,0,0)" stroke-linejoin="round" stroke-linecap="round" stroke-miterlimit="4"/><path d=" M 66.278 130.174 C 60.671 143.936 64.993 159.748 76.82 168.746 C 88.647 177.743 105.039 177.689 116.807 168.614 C 128.575 159.539 132.792 143.699 127.096 129.974" fill="none" vector-effect="non-scaling-stroke" stroke-width="0.751" stroke="rgb(0,0,0)" stroke-linejoin="round" stroke-linecap="round" stroke-miterlimit="4"/><path d=" M 99.185 130.004 C 93.269 143.805 97.455 159.862 109.356 169.018 C 121.257 178.175 137.85 178.105 149.674 168.849 C 161.497 159.592 165.548 143.501 159.515 129.75" fill="none" vector-effect="non-scaling-stroke" stroke-width="0.751" stroke="rgb(0,0,0)" stroke-linejoin="round" stroke-linecap="round" stroke-miterlimit="4"/><path d=" M 85.081 130.107 C 76.473 143.934 79.286 161.98 91.695 172.532 C 104.103 183.083 122.367 182.959 134.631 172.24 C 146.895 161.521 149.463 143.439 140.668 129.729" fill="none" vector-effect="non-scaling-stroke" stroke-width="0.751" stroke="rgb(0,0,0)" stroke-linejoin="round" stroke-linecap="round" stroke-miterlimit="4"/><path d=" M 51.994 130.044 C 57.869 140.156 68.673 146.387 80.369 146.406 C 92.064 146.426 102.889 140.231 108.798 130.138" fill="none" vector-effect="non-scaling-stroke" stroke-width="0.751" stroke="rgb(0,0,0)" stroke-linejoin="round" stroke-linecap="round" stroke-miterlimit="4"/></g></g><g><path d=" M 143.771 100.378 C 143.436 100.41 143.115 100.547 142.856 100.77 C 142.511 101.067 142.298 101.5 142.245 102.017 C 142.23 102.156 142.235 102.441 142.254 102.58 C 142.325 103.099 142.525 103.548 142.907 104.051 C 143.001 104.175 143.287 104.497 143.427 104.635 C 143.633 104.839 143.718 104.917 144.327 105.462 C 144.522 105.635 144.688 105.791 144.802 105.906 C 144.922 106.027 145.104 106.237 145.174 106.334 C 145.239 106.425 145.32 106.562 145.353 106.637 C 145.366 106.666 145.378 106.69 145.38 106.69 C 145.383 106.691 145.386 106.683 145.389 106.674 C 145.395 106.647 145.483 106.486 145.532 106.411 C 145.603 106.304 145.687 106.2 145.814 106.059 C 146.001 105.852 146.136 105.724 146.624 105.29 C 147.182 104.793 147.4 104.582 147.653 104.291 C 148.16 103.71 148.42 103.186 148.506 102.576 C 148.525 102.438 148.527 102.083 148.508 101.953 C 148.45 101.533 148.304 101.201 148.057 100.924 C 147.797 100.632 147.459 100.447 147.074 100.389 C 146.962 100.371 146.748 100.372 146.641 100.389 C 146.17 100.465 145.798 100.733 145.566 101.166 C 145.497 101.295 145.431 101.461 145.398 101.594 C 145.39 101.628 145.382 101.656 145.38 101.656 C 145.378 101.656 145.369 101.628 145.361 101.594 C 145.284 101.286 145.111 100.978 144.903 100.777 C 144.683 100.565 144.424 100.436 144.123 100.39 C 144.032 100.375 143.857 100.37 143.771 100.378 Z " fill="none" vector-effect="non-scaling-stroke" stroke-width="1" stroke="rgb(0,0,0)" stroke-linejoin="miter" stroke-linecap="butt" stroke-miterlimit="4"/><g><line x1="137.006" y1="126.966" x2="137.006" y2="120.408" vector-effect="non-scaling-stroke" stroke-width="1" stroke="rgb(0,0,0)" stroke-linejoin="miter" stroke-linecap="square" stroke-miterlimit="3"/><line x1="134.464" y1="119.342" x2="139.547" y2="119.342" vector-effect="non-scaling-stroke" stroke-width="1" stroke="rgb(0,0,0)" stroke-linejoin="miter" stroke-linecap="square" stroke-miterlimit="3"/><line x1="141.976" y1="127.376" x2="146.921" y2="119.752" vector-effect="non-scaling-stroke" stroke-width="1" stroke="rgb(0,0,0)" stroke-linejoin="miter" stroke-linecap="square" stroke-miterlimit="3"/><line x1="141.976" y1="119.752" x2="146.921" y2="127.376" vector-effect="non-scaling-stroke" stroke-width="1" stroke="rgb(0,0,0)" stroke-linejoin="miter" stroke-linecap="square" stroke-miterlimit="3"/></g><g><path d=" M 114.981 118.905 L 114.981 125.682 C 115.151 126.213 115.439 126.502 115.828 126.529" fill="none" vector-effect="non-scaling-stroke" stroke-width="1" stroke="rgb(0,0,0)" stroke-linejoin="miter" stroke-linecap="square" stroke-miterlimit="3"/><line x1="116.168" y1="121.599" x2="113.647" y2="121.599" vector-effect="non-scaling-stroke" stroke-width="1" stroke="rgb(0,0,0)" stroke-linejoin="miter" stroke-linecap="square" stroke-miterlimit="3"/><line x1="118.37" y1="122.293" x2="118.37" y2="126.529" vector-effect="non-scaling-stroke" stroke-width="1" stroke="rgb(0,0,0)" stroke-linejoin="miter" stroke-linecap="square" stroke-miterlimit="3"/><line x1="118.37" y1="119.752" x2="118.37" y2="120.599" vector-effect="non-scaling-stroke" stroke-width="1" stroke="rgb(0,0,0)" stroke-linejoin="miter" stroke-linecap="square" stroke-miterlimit="3"/><path d=" M 101.47 121.538 L 101.47 126.621 C 102.733 127.072 104.163 127.09 105.706 126.621 L 105.706 121.538" fill="none" vector-effect="non-scaling-stroke" stroke-width="1" stroke="rgb(0,0,0)" stroke-linejoin="miter" stroke-linecap="square" stroke-miterlimit="3"/><path d=" M 121.064 126.793 L 121.064 121.711 L 125.299 121.711 L 125.299 126.793" fill="none" vector-effect="non-scaling-stroke" stroke-width="1" stroke="rgb(0,0,0)" stroke-linejoin="miter" stroke-linecap="square" stroke-miterlimit="3"/><path d=" M 111.788 121.711 L 108.4 121.711 L 108.4 124.252 L 111.788 124.252 L 111.788 126.793 L 108.4 126.793" fill="none" vector-effect="non-scaling-stroke" stroke-width="1" stroke="rgb(0,0,0)" stroke-linejoin="miter" stroke-linecap="square" stroke-miterlimit="3"/><path d=" M 93.249 126.529 L 96.637 118.905 L 100.025 126.529" fill="none" vector-effect="non-scaling-stroke" stroke-width="1" stroke="rgb(0,0,0)" stroke-linejoin="miter" stroke-linecap="square" stroke-miterlimit="3"/><line x1="94.943" y1="123.141" x2="98.331" y2="123.141" vector-effect="non-scaling-stroke" stroke-width="1" stroke="rgb(0,0,0)" stroke-linejoin="miter" stroke-linecap="square" stroke-miterlimit="3"/></g><g><line x1="78.119" y1="122.293" x2="78.119" y2="126.529" vector-effect="non-scaling-stroke" stroke-width="1" stroke="rgb(0,0,0)" stroke-linejoin="miter" stroke-linecap="square" stroke-miterlimit="3"/><line x1="78.119" y1="119.752" x2="78.119" y2="120.599" vector-effect="non-scaling-stroke" stroke-width="1" stroke="rgb(0,0,0)" stroke-linejoin="miter" stroke-linecap="square" stroke-miterlimit="3"/><path d=" M 81.606 126.793 L 81.606 121.711 L 85.841 121.711 L 85.841 126.793" fill="none" vector-effect="non-scaling-stroke" stroke-width="1" stroke="rgb(0,0,0)" stroke-linejoin="miter" stroke-linecap="square" stroke-miterlimit="3"/></g><g><g><line x1="159.74" y1="116.265" x2="159.74" y2="111.086" vector-effect="non-scaling-stroke" stroke-width="1" stroke="rgb(0,0,0)" stroke-linejoin="miter" stroke-linecap="square" stroke-miterlimit="3"/><line x1="162.282" y1="111.086" x2="160.588" y2="111.933" vector-effect="non-scaling-stroke" stroke-width="1" stroke="rgb(0,0,0)" stroke-linejoin="miter" stroke-linecap="square" stroke-miterlimit="3"/><path d=" M 125.092 109.488 L 125.092 108.641 L 120.01 108.641 L 120.01 111.182 L 125.092 112.877 L 125.092 116.265 L 120.01 116.265 L 120.01 115.418" fill="none" vector-effect="non-scaling-stroke" stroke-width="1" stroke="rgb(0,0,0)" stroke-linejoin="miter" stroke-linecap="square" stroke-miterlimit="3"/><path d=" M 132.62 111.182 L 128.384 111.182 L 128.384 116.265 L 132.62 116.265" fill="none" vector-effect="non-scaling-stroke" stroke-width="1" stroke="rgb(0,0,0)" stroke-linejoin="miter" stroke-linecap="square" stroke-miterlimit="3"/><line x1="135.813" y1="108.641" x2="135.813" y2="116.265" vector-effect="non-scaling-stroke" stroke-width="1" stroke="rgb(0,0,0)" stroke-linejoin="miter" stroke-linecap="square" stroke-miterlimit="3"/><path d=" M 136.66 112.03 L 140.048 112.03 L 140.048 116.265" fill="none" vector-effect="non-scaling-stroke" stroke-width="1" stroke="rgb(0,0,0)" stroke-linejoin="miter" stroke-linecap="square" stroke-miterlimit="3"/><ellipse vector-effect="non-scaling-stroke" cx="145.22945314945278" cy="113.77176844007914" rx="2.487257596220843" ry="2.5893166792359352" fill="none" stroke-width="1" stroke="rgb(0,0,0)" stroke-linejoin="miter" stroke-linecap="butt" stroke-miterlimit="3"/><circle vector-effect="non-scaling-stroke" cx="154.66930019339102" cy="114.3429770726687" r="1.6941840958228056" fill="none" stroke-width="1" stroke="rgb(0,0,0)" stroke-linejoin="miter" stroke-linecap="square" stroke-miterlimit="3"/><path d=" M 153.442 111.086 C 154.701 110.447 155.902 110.77 156.363 111.828 C 156.474 112.082 156.48 113.499 156.363 116.064" fill="none" vector-effect="non-scaling-stroke" stroke-width="1" stroke="rgb(0,0,0)" stroke-linejoin="miter" stroke-linecap="square" stroke-miterlimit="3"/><line x1="150.117" y1="108.641" x2="150.117" y2="116.361" vector-effect="non-scaling-stroke" stroke-width="1" stroke="rgb(0,0,0)" stroke-linejoin="miter" stroke-linecap="square" stroke-miterlimit="3"/><path d=" M 168.364 111.182 L 164.976 111.182 L 164.976 113.724 L 168.364 113.724 L 168.364 116.265 L 164.976 116.265" fill="none" vector-effect="non-scaling-stroke" stroke-width="1" stroke="rgb(0,0,0)" stroke-linejoin="miter" stroke-linecap="square" stroke-miterlimit="3"/></g><g><line x1="96.637" y1="112.03" x2="96.637" y2="116.265" vector-effect="non-scaling-stroke" stroke-width="1" stroke="rgb(0,0,0)" stroke-linejoin="miter" stroke-linecap="square" stroke-miterlimit="3"/><line x1="96.637" y1="109.488" x2="96.637" y2="110.335" vector-effect="non-scaling-stroke" stroke-width="1" stroke="rgb(0,0,0)" stroke-linejoin="miter" stroke-linecap="square" stroke-miterlimit="3"/><line x1="78.043" y1="116.265" x2="78.043" y2="109.707" vector-effect="non-scaling-stroke" stroke-width="1" stroke="rgb(0,0,0)" stroke-linejoin="miter" stroke-linecap="square" stroke-miterlimit="3"/><line x1="74.904" y1="108.641" x2="80.834" y2="108.641" vector-effect="non-scaling-stroke" stroke-width="1" stroke="rgb(0,0,0)" stroke-linejoin="miter" stroke-linecap="square" stroke-miterlimit="3"/><path d=" M 83.279 111.182 L 83.279 116.265 C 84.542 116.716 85.971 116.734 87.514 116.265 L 87.514 111.182" fill="none" vector-effect="non-scaling-stroke" stroke-width="1" stroke="rgb(0,0,0)" stroke-linejoin="miter" stroke-linecap="square" stroke-miterlimit="3"/><line x1="91.402" y1="116.361" x2="91.402" y2="111.182" vector-effect="non-scaling-stroke" stroke-width="1" stroke="rgb(0,0,0)" stroke-linejoin="miter" stroke-linecap="square" stroke-miterlimit="3"/><line x1="93.943" y1="111.182" x2="92.249" y2="112.03" vector-effect="non-scaling-stroke" stroke-width="1" stroke="rgb(0,0,0)" stroke-linejoin="miter" stroke-linecap="square" stroke-miterlimit="3"/><path d=" M 100.677 116.265 L 100.677 111.182 L 104.913 111.182 L 104.913 116.265" fill="none" vector-effect="non-scaling-stroke" stroke-width="1" stroke="rgb(0,0,0)" stroke-linejoin="miter" stroke-linecap="square" stroke-miterlimit="3"/><ellipse vector-effect="non-scaling-stroke" cx="109.4736665140774" cy="113.72372790457736" rx="1.9209687814788197" ry="2.5412761437342226" fill="none" stroke-width="1" stroke="rgb(0,0,0)" stroke-linejoin="miter" stroke-linecap="square" stroke-miterlimit="3"/><path d=" M 111.539 111.51 L 111.539 116.306 L 111.539 117.44 C 111.342 117.988 110.968 118.48 110.406 118.695 C 109.844 118.91 109.096 118.847 108.15 118.287" fill="none" vector-effect="non-scaling-stroke" stroke-width="1" stroke="rgb(0,0,0)" stroke-linejoin="miter" stroke-linecap="square" stroke-miterlimit="3"/></g><g><line x1="58.407" y1="108.641" x2="58.407" y2="116.265" vector-effect="non-scaling-stroke" stroke-width="1" stroke="rgb(0,0,0)" stroke-linejoin="miter" stroke-linecap="square" stroke-miterlimit="3"/><ellipse vector-effect="non-scaling-stroke" cx="60.52512776563209" cy="113.72372790457737" rx="2.117730119778514" ry="2.5412761437342084" fill="none" stroke-width="1" stroke="rgb(0,0,0)" stroke-linejoin="miter" stroke-linecap="butt" stroke-miterlimit="3"/><path d=" M 69.573 111.182 L 67.031 117.112 C 66.755 117.533 66.485 117.827 66.184 117.959" fill="none" vector-effect="non-scaling-stroke" stroke-width="1" stroke="rgb(0,0,0)" stroke-linejoin="miter" stroke-linecap="square" stroke-miterlimit="3"/><line x1="65.337" y1="111.182" x2="67.031" y2="114.571" vector-effect="non-scaling-stroke" stroke-width="1" stroke="rgb(0,0,0)" stroke-linejoin="miter" stroke-linecap="square" stroke-miterlimit="3"/></g></g><g><path d=" M 116.819 102.712 L 117.666 106.947 L 119.36 102.712 L 121.054 106.947 L 121.901 102.712" fill="none" vector-effect="non-scaling-stroke" stroke-width="1" stroke="rgb(0,0,0)" stroke-linejoin="miter" stroke-linecap="square" stroke-miterlimit="3"/><line x1="125.443" y1="102.712" x2="125.443" y2="106.947" vector-effect="non-scaling-stroke" stroke-width="1" stroke="rgb(0,0,0)" stroke-linejoin="miter" stroke-linecap="square" stroke-miterlimit="3"/><line x1="125.443" y1="100.17" x2="125.443" y2="101.017" vector-effect="non-scaling-stroke" stroke-width="1" stroke="rgb(0,0,0)" stroke-linejoin="miter" stroke-linecap="square" stroke-miterlimit="3"/><path d=" M 128.984 99.728 L 128.984 106.1 C 129.154 106.631 129.442 106.92 129.831 106.947" fill="none" vector-effect="non-scaling-stroke" stroke-width="1" stroke="rgb(0,0,0)" stroke-linejoin="miter" stroke-linecap="square" stroke-miterlimit="3"/><line x1="130.144" y1="102.017" x2="127.901" y2="102.017" vector-effect="non-scaling-stroke" stroke-width="1" stroke="rgb(0,0,0)" stroke-linejoin="miter" stroke-linecap="square" stroke-miterlimit="3"/><line x1="133.525" y1="100.17" x2="133.525" y2="106.947" vector-effect="non-scaling-stroke" stroke-width="1" stroke="rgb(0,0,0)" stroke-linejoin="miter" stroke-linecap="square" stroke-miterlimit="3"/><path d=" M 134.372 103.559 C 135.24 103.278 136.093 103.284 136.914 103.559 C 136.968 104.66 136.98 105.801 136.914 106.947" fill="none" vector-effect="non-scaling-stroke" stroke-width="1" stroke="rgb(0,0,0)" stroke-linejoin="miter" stroke-linecap="square" stroke-miterlimit="3"/></g><g><path d=" M 82.521 106.947 L 82.521 100.17 L 85.91 106.947 L 89.298 100.17 L 89.298 106.947" fill="none" vector-effect="non-scaling-stroke" stroke-width="1" stroke="rgb(0,0,0)" stroke-linejoin="miter" stroke-linecap="square" stroke-miterlimit="3"/><ellipse vector-effect="non-scaling-stroke" cx="101.61603352004823" cy="104.81597637569239" rx="1.6941840958228056" ry="2.104445093963335" fill="none" stroke-width="1" stroke="rgb(0,0,0)" stroke-linejoin="miter" stroke-linecap="square" stroke-miterlimit="3"/><g><circle vector-effect="non-scaling-stroke" cx="94.68638918466843" cy="105.22623737383292" r="1.6941840958228056" fill="none" stroke-width="1" stroke="rgb(0,0,0)" stroke-linejoin="miter" stroke-linecap="square" stroke-miterlimit="3"/><path d=" M 93.235 102.337 C 94.493 101.698 95.919 101.653 96.381 102.712 C 96.491 102.965 96.497 104.383 96.381 106.947" fill="none" vector-effect="non-scaling-stroke" stroke-width="1" stroke="rgb(0,0,0)" stroke-linejoin="miter" stroke-linecap="square" stroke-miterlimit="3"/></g><line x1="103.31" y1="100.17" x2="103.31" y2="106.947" vector-effect="non-scaling-stroke" stroke-width="1" stroke="rgb(0,0,0)" stroke-linejoin="miter" stroke-linecap="square" stroke-miterlimit="3"/><path d=" M 109.16 106.742 C 108.455 107.456 107.521 107.106 106.619 105.895 C 105.794 104.457 105.806 103.339 106.619 102.506 C 107.187 102.069 109.458 102.139 110.007 102.506 C 110.257 103.031 110.269 103.608 110.007 104.201 C 109.257 104.411 108.416 104.417 107.466 104.201" fill="none" vector-effect="non-scaling-stroke" stroke-width="1" stroke="rgb(0,0,0)" stroke-linejoin="miter" stroke-linecap="square" stroke-miterlimit="3"/></g><line x1="128.24" y1="126.487" x2="128.24" y2="128.181" vector-effect="non-scaling-stroke" stroke-width="1" stroke="rgb(0,0,0)" stroke-linejoin="miter" stroke-linecap="square" stroke-miterlimit="3"/></g></g></svg>