<?xml version="1.0" encoding="UTF-8" standalone="no"?>
<!-- Generator: Gravit.io -->
<svg xmlns="http://www.w3.org/2000/svg" xmlns:xlink="http://www.w3.org/1999/xlink" style="isolation:isolate" viewBox="0 0 171.496 171.496" width="171.496" height="171.496"><defs><clipPath id="_clipPath_roc4E59LoiPEB1UDIMU105ACQvBrKVEs"><rect width="171.496" height="171.496"/></clipPath></defs><g clip-path="url(#_clipPath_roc4E59LoiPEB1UDIMU105ACQvBrKVEs)"><g><circle vector-effect="non-scaling-stroke" cx="85.74803149606298" cy="85.74803149606298" r="66.61417322834646" fill="none" stroke-width="1" stroke="rgb(0,0,255)" stroke-linejoin="miter" stroke-linecap="square" stroke-miterlimit="3"/><polygon points="57.158,47.386,63.035,50.007,57.827,53.787" fill="rgb(0,0,0)"/><path d=" M 44.47 37.128 C 71.304 14.346 111.586 17.636 134.368 44.47 C 157.15 71.304 153.861 111.586 127.026 134.368 C 100.192 157.15 59.91 153.861 37.128 127.026 C 14.346 100.192 17.636 59.91 44.47 37.128 Z " fill="none"/><path d=" M 36.122 27.987 C 68.09 0.978 115.971 5.004 142.98 36.972 C 169.989 68.94 165.962 116.822 133.994 143.83 C 102.027 170.839 54.145 166.813 27.136 134.845 C 0.128 102.877 4.154 54.995 36.122 27.987 Z " fill="none"/><circle vector-effect="non-scaling-stroke" cx="85.74803149606299" cy="85.74803149606299" r="80.07874015748033" fill="none" stroke-width="1" stroke="rgb(0,255,0)" stroke-linejoin="miter" stroke-linecap="square" stroke-miterlimit="3"/><path d=" M 58.209 38.554 L 58.209 38.554 L 58.209 38.554 Q 58.734 39.313 58.888 40.085 L 58.888 40.085 L 58.888 40.085 Q 59.042 40.858 58.885 41.577 L 58.885 41.577 L 58.885 41.577 Q 58.728 42.296 58.268 42.938 L 58.268 42.938 L 58.268 42.938 Q 57.808 43.581 57.116 44.059 L 57.116 44.059 L 57.116 44.059 Q 56.34 44.595 55.523 44.747 L 55.523 44.747 L 55.523 44.747 Q 54.705 44.899 53.813 44.563 L 53.813 44.563 L 54.511 45.574 L 52.942 46.658 L 50.454 43.06 L 52.023 41.975 L 52.023 41.975 Q 52.396 42.515 52.872 42.797 L 52.872 42.797 L 52.872 42.797 Q 53.347 43.078 53.854 43.145 L 53.854 43.145 L 53.854 43.145 Q 54.361 43.211 54.876 43.072 L 54.876 43.072 L 54.876 43.072 Q 55.391 42.933 55.855 42.613 L 55.855 42.613 L 55.855 42.613 Q 56.639 42.07 56.869 41.375 L 56.869 41.375 L 56.869 41.375 Q 57.099 40.681 56.552 39.889 L 56.552 39.889 L 56.552 39.889 Q 56.266 39.476 55.915 39.283 L 55.915 39.283 L 55.915 39.283 Q 55.563 39.09 55.129 39.048 L 55.129 39.048 L 55.129 39.048 Q 54.694 39.005 54.178 39.107 L 54.178 39.107 L 54.178 39.107 Q 53.663 39.208 53.023 39.364 L 53.023 39.364 L 53.023 39.364 Q 52.284 39.576 51.51 39.737 L 51.51 39.737 L 51.51 39.737 Q 50.737 39.899 50.008 39.854 L 50.008 39.854 L 50.008 39.854 Q 49.279 39.81 48.608 39.471 L 48.608 39.471 L 48.608 39.471 Q 47.937 39.131 47.366 38.306 L 47.366 38.306 L 47.366 38.306 Q 46.865 37.581 46.755 36.854 L 46.755 36.854 L 46.755 36.854 Q 46.645 36.126 46.831 35.449 L 46.831 35.449 L 46.831 35.449 Q 47.018 34.772 47.473 34.178 L 47.473 34.178 L 47.473 34.178 Q 47.928 33.583 48.586 33.128 L 48.586 33.128 L 48.586 33.128 Q 49.345 32.603 50.11 32.547 L 50.11 32.547 L 50.11 32.547 Q 50.876 32.492 51.538 32.819 L 51.538 32.819 L 50.856 31.832 L 52.425 30.747 L 54.793 34.172 L 53.224 35.256 L 53.224 35.256 Q 52.553 34.286 51.667 34.095 L 51.667 34.095 L 51.667 34.095 Q 50.78 33.904 49.92 34.499 L 49.92 34.499 L 49.92 34.499 Q 49.161 35.024 48.904 35.725 L 48.904 35.725 L 48.904 35.725 Q 48.647 36.426 49.09 37.067 L 49.09 37.067 L 49.09 37.067 Q 49.318 37.396 49.609 37.538 L 49.609 37.538 L 49.609 37.538 Q 49.9 37.679 50.28 37.697 L 50.28 37.697 L 50.28 37.697 Q 50.66 37.715 51.153 37.617 L 51.153 37.617 L 51.153 37.617 Q 51.647 37.519 52.278 37.369 L 52.278 37.369 L 52.278 37.369 Q 53.054 37.156 53.862 37.009 L 53.862 37.009 L 53.862 37.009 Q 54.67 36.861 55.44 36.928 L 55.44 36.928 L 55.44 36.928 Q 56.209 36.995 56.92 37.357 L 56.92 37.357 L 56.92 37.357 Q 57.632 37.719 58.209 38.554 Z  M 68.594 32.652 L 70.417 32.585 L 70.417 32.585 Q 70.579 33.588 70.517 34.485 L 70.517 34.485 L 70.517 34.485 Q 70.455 35.383 70.134 36.131 L 70.134 36.131 L 70.134 36.131 Q 69.813 36.878 69.212 37.468 L 69.212 37.468 L 69.212 37.468 Q 68.612 38.058 67.679 38.458 L 67.679 38.458 L 67.679 38.458 Q 66.388 39.01 65.265 38.861 L 65.265 38.861 L 65.265 38.861 Q 64.143 38.711 63.188 38.066 L 63.188 38.066 L 63.188 38.066 Q 62.234 37.421 61.492 36.383 L 61.492 36.383 L 61.492 36.383 Q 60.751 35.345 60.222 34.11 L 60.222 34.11 L 60.222 34.11 Q 59.693 32.875 59.451 31.618 L 59.451 31.618 L 59.451 31.618 Q 59.209 30.361 59.395 29.244 L 59.395 29.244 L 59.395 29.244 Q 59.581 28.127 60.222 27.223 L 60.222 27.223 L 60.222 27.223 Q 60.862 26.318 62.117 25.781 L 62.117 25.781 L 62.117 25.781 Q 62.523 25.607 62.983 25.533 L 62.983 25.533 L 62.983 25.533 Q 63.443 25.459 63.892 25.517 L 63.892 25.517 L 63.892 25.517 Q 64.342 25.576 64.744 25.772 L 64.744 25.772 L 64.744 25.772 Q 65.146 25.968 65.433 26.324 L 65.433 26.324 L 64.811 24.873 L 66.565 24.122 L 68.558 28.779 L 66.805 29.529 L 66.805 29.529 Q 66.559 28.954 66.177 28.454 L 66.177 28.454 L 66.177 28.454 Q 65.796 27.954 65.299 27.653 L 65.299 27.653 L 65.299 27.653 Q 64.802 27.353 64.214 27.281 L 64.214 27.281 L 64.214 27.281 Q 63.626 27.21 62.985 27.484 L 62.985 27.484 L 62.985 27.484 Q 62.155 27.839 61.801 28.471 L 61.801 28.471 L 61.801 28.471 Q 61.447 29.103 61.409 29.901 L 61.409 29.901 L 61.409 29.901 Q 61.371 30.698 61.596 31.574 L 61.596 31.574 L 61.596 31.574 Q 61.82 32.449 62.175 33.279 L 62.175 33.279 L 62.175 33.279 Q 62.531 34.11 63.013 34.886 L 63.013 34.886 L 63.013 34.886 Q 63.496 35.662 64.087 36.185 L 64.087 36.185 L 64.087 36.185 Q 64.678 36.708 65.389 36.884 L 65.389 36.884 L 65.389 36.884 Q 66.099 37.059 66.928 36.704 L 66.928 36.704 L 66.928 36.704 Q 68.125 36.192 68.443 35.151 L 68.443 35.151 L 68.443 35.151 Q 68.761 34.109 68.594 32.652 L 68.594 32.652 Z  M 82.094 21.555 L 83.57 34.855 L 81.46 35.089 L 80.814 29.269 L 76.534 29.744 L 77.18 35.564 L 75.07 35.798 L 73.595 22.498 L 75.704 22.264 L 76.324 27.849 L 80.604 27.374 L 79.985 21.789 L 82.094 21.555 Z  M 87.132 28.05 L 87.132 28.05 L 87.132 28.05 Q 87.263 26.714 87.67 25.497 L 87.67 25.497 L 87.67 25.497 Q 88.078 24.279 88.773 23.389 L 88.773 23.389 L 88.773 23.389 Q 89.468 22.499 90.499 22.018 L 90.499 22.018 L 90.499 22.018 Q 91.53 21.537 92.908 21.671 L 92.908 21.671 L 92.908 21.671 Q 94.285 21.806 95.204 22.478 L 95.204 22.478 L 95.204 22.478 Q 96.122 23.15 96.641 24.159 L 96.641 24.159 L 96.641 24.159 Q 97.161 25.168 97.314 26.44 L 97.314 26.44 L 97.314 26.44 Q 97.468 27.712 97.337 29.049 L 97.337 29.049 L 97.337 29.049 Q 97.206 30.386 96.81 31.599 L 96.81 31.599 L 96.81 31.599 Q 96.413 32.812 95.716 33.717 L 95.716 33.717 L 95.716 33.717 Q 95.02 34.623 93.989 35.104 L 93.989 35.104 L 93.989 35.104 Q 92.958 35.585 91.56 35.448 L 91.56 35.448 L 91.56 35.448 Q 90.161 35.312 89.243 34.64 L 89.243 34.64 L 89.243 34.64 Q 88.325 33.968 87.812 32.944 L 87.812 32.944 L 87.812 32.944 Q 87.299 31.92 87.15 30.654 L 87.15 30.654 L 87.15 30.654 Q 87.001 29.387 87.132 28.05 Z  M 89.244 28.262 L 89.244 28.262 L 89.244 28.262 Q 89.156 29.161 89.206 30.074 L 89.206 30.074 L 89.206 30.074 Q 89.256 30.986 89.518 31.729 L 89.518 31.729 L 89.518 31.729 Q 89.78 32.471 90.314 32.967 L 90.314 32.967 L 90.314 32.967 Q 90.847 33.462 91.745 33.55 L 91.745 33.55 L 91.745 33.55 Q 92.643 33.638 93.263 33.255 L 93.263 33.255 L 93.263 33.255 Q 93.882 32.872 94.284 32.195 L 94.284 32.195 L 94.284 32.195 Q 94.685 31.517 94.911 30.632 L 94.911 30.632 L 94.911 30.632 Q 95.136 29.746 95.224 28.847 L 95.224 28.847 L 95.224 28.847 Q 95.312 27.948 95.261 27.046 L 95.261 27.046 L 95.261 27.046 Q 95.211 26.144 94.949 25.396 L 94.949 25.396 L 94.949 25.396 Q 94.687 24.649 94.143 24.152 L 94.143 24.152 L 94.143 24.152 Q 93.6 23.656 92.722 23.57 L 92.722 23.57 L 92.722 23.57 Q 91.263 23.427 90.368 24.67 L 90.368 24.67 L 90.368 24.67 Q 89.474 25.913 89.244 28.262 Z  M 108.16 37.846 L 107.471 39.624 L 99.497 36.532 L 104.336 24.056 L 106.315 24.823 L 102.166 35.521 L 108.16 37.846 Z  M 118.941 46.572 L 117.065 45.376 L 117.966 42.169 L 114.23 39.788 L 111.721 41.971 L 109.844 40.775 L 120.555 31.733 L 122.613 33.044 L 118.941 46.572 Z  M 120.08 34.749 L 115.714 38.509 L 118.499 40.283 L 120.08 34.749 Z  M 128.544 48.93 L 126.899 55.44 L 125.129 53.419 L 126.919 47.245 L 126.284 46.52 L 122.211 50.087 L 120.813 48.49 L 130.88 39.674 L 133.785 42.991 L 133.785 42.991 Q 135.237 44.65 135.281 46.233 L 135.281 46.233 L 135.281 46.233 Q 135.325 47.817 133.836 49.12 L 133.836 49.12 L 133.836 49.12 Q 133.173 49.701 132.489 49.939 L 132.489 49.939 L 132.489 49.939 Q 131.804 50.177 131.114 50.121 L 131.114 50.121 L 131.114 50.121 Q 130.424 50.064 129.776 49.752 L 129.776 49.752 L 129.776 49.752 Q 129.128 49.441 128.544 48.93 L 128.544 48.93 Z  M 132.469 47.497 L 132.469 47.497 L 132.469 47.497 Q 133.24 46.821 133.183 45.978 L 133.183 45.978 L 133.183 45.978 Q 133.127 45.135 132.35 44.248 L 132.35 44.248 L 130.843 42.528 L 127.735 45.25 L 129.241 46.97 L 129.241 46.97 Q 130.018 47.857 130.846 48.025 L 130.846 48.025 L 130.846 48.025 Q 131.674 48.192 132.469 47.497 Z  M 134.044 54.027 L 134.044 54.027 L 134.044 54.027 Q 135.219 53.377 136.453 53.024 L 136.453 53.024 L 136.453 53.024 Q 137.687 52.67 138.814 52.739 L 138.814 52.739 L 138.814 52.739 Q 139.942 52.807 140.922 53.385 L 140.922 53.385 L 140.922 53.385 Q 141.903 53.962 142.572 55.173 L 142.572 55.173 L 142.572 55.173 Q 143.241 56.385 143.207 57.523 L 143.207 57.523 L 143.207 57.523 Q 143.173 58.66 142.635 59.66 L 142.635 59.66 L 142.635 59.66 Q 142.098 60.66 141.136 61.507 L 141.136 61.507 L 141.136 61.507 Q 140.174 62.355 138.997 63.005 L 138.997 63.005 L 138.997 63.005 Q 137.91 63.605 136.802 63.965 L 136.802 63.965 L 136.802 63.965 Q 135.694 64.325 134.641 64.328 L 134.641 64.328 L 134.641 64.328 Q 133.587 64.33 132.646 63.953 L 132.646 63.953 L 132.646 63.953 Q 131.706 63.577 130.994 62.67 L 130.994 62.67 L 130.994 62.67 Q 130.154 63.25 130.183 64.078 L 130.183 64.078 L 130.183 64.078 Q 130.212 64.905 130.872 66.099 L 130.872 66.099 L 130.872 66.099 Q 130.961 66.26 131.076 66.448 L 131.076 66.448 L 131.076 66.448 Q 131.192 66.636 131.306 66.843 L 131.306 66.843 L 129.654 67.755 L 129.654 67.755 Q 129.493 67.505 129.352 67.272 L 129.352 67.272 L 129.352 67.272 Q 129.212 67.039 129.088 66.815 L 129.088 66.815 L 129.088 66.815 Q 128.087 65.001 128.292 63.412 L 128.292 63.412 L 128.292 63.412 Q 128.498 61.822 129.989 60.706 L 129.989 60.706 L 129.989 60.706 Q 129.699 59.671 129.898 58.706 L 129.898 58.706 L 129.898 58.706 Q 130.097 57.741 130.673 56.896 L 130.673 56.896 L 130.673 56.896 Q 131.249 56.051 132.126 55.326 L 132.126 55.326 L 132.126 55.326 Q 133.002 54.602 134.044 54.027 Z  M 135.07 55.885 L 135.07 55.885 L 135.07 55.885 Q 134.28 56.321 133.557 56.879 L 133.557 56.879 L 133.557 56.879 Q 132.834 57.436 132.371 58.072 L 132.371 58.072 L 132.371 58.072 Q 131.909 58.709 131.803 59.429 L 131.803 59.429 L 131.803 59.429 Q 131.697 60.149 132.133 60.939 L 132.133 60.939 L 132.133 60.939 Q 132.569 61.729 133.236 62.023 L 133.236 62.023 L 133.236 62.023 Q 133.902 62.317 134.687 62.264 L 134.687 62.264 L 134.687 62.264 Q 135.471 62.211 136.328 61.896 L 136.328 61.896 L 136.328 61.896 Q 137.185 61.581 137.975 61.145 L 137.975 61.145 L 137.975 61.145 Q 138.765 60.708 139.479 60.156 L 139.479 60.156 L 139.479 60.156 Q 140.193 59.603 140.66 58.965 L 140.66 58.965 L 140.66 58.965 Q 141.127 58.326 141.228 57.597 L 141.228 57.597 L 141.228 57.597 Q 141.329 56.867 140.903 56.095 L 140.903 56.095 L 140.903 56.095 Q 140.194 54.812 138.664 54.778 L 138.664 54.778 L 138.664 54.778 Q 137.134 54.745 135.07 55.885 Z  M 138.21 76.694 L 136.381 77.236 L 133.952 69.036 L 146.783 65.236 L 149.212 73.436 L 147.383 73.977 L 145.557 67.813 L 141.998 68.867 L 143.422 73.675 L 141.593 74.216 L 140.169 69.409 L 136.384 70.53 L 138.21 76.694 Z  M 140.421 90.002 L 140.421 90.002 L 140.421 90.002 Q 138.598 90.028 137.658 88.801 L 137.658 88.801 L 137.658 88.801 Q 136.718 87.573 136.685 85.287 L 136.685 85.287 L 136.624 81.022 L 150.004 80.83 L 150.062 84.859 L 150.062 84.859 Q 150.074 85.7 149.947 86.512 L 149.947 86.512 L 149.947 86.512 Q 149.82 87.324 149.45 87.97 L 149.45 87.97 L 149.45 87.97 Q 149.079 88.616 148.403 89.026 L 148.403 89.026 L 148.403 89.026 Q 147.726 89.436 146.638 89.451 L 146.638 89.451 L 146.638 89.451 Q 145.622 89.466 144.774 88.96 L 144.774 88.96 L 144.774 88.96 Q 143.925 88.454 143.54 87.414 L 143.54 87.414 L 143.54 87.414 Q 143.159 88.701 142.451 89.342 L 142.451 89.342 L 142.451 89.342 Q 141.743 89.983 140.421 90.002 Z  M 146.334 87.353 L 146.334 87.353 L 146.334 87.353 Q 146.922 87.345 147.29 87.119 L 147.29 87.119 L 147.29 87.119 Q 147.658 86.893 147.854 86.542 L 147.854 86.542 L 147.854 86.542 Q 148.05 86.19 148.105 85.759 L 148.105 85.759 L 148.105 85.759 Q 148.161 85.327 148.155 84.887 L 148.155 84.887 L 148.128 82.98 L 144.416 83.033 L 144.443 84.94 L 144.443 84.94 Q 144.45 85.381 144.518 85.81 L 144.518 85.81 L 144.518 85.81 Q 144.586 86.24 144.792 86.586 L 144.792 86.586 L 144.792 86.586 Q 144.998 86.932 145.372 87.147 L 145.372 87.147 L 145.372 87.147 Q 145.746 87.362 146.334 87.353 Z  M 140.609 87.897 L 140.609 87.897 L 140.609 87.897 Q 141.614 87.883 142.086 87.173 L 142.086 87.173 L 142.086 87.173 Q 142.558 86.464 142.54 85.203 L 142.54 85.203 L 142.509 83.06 L 138.562 83.117 L 138.592 85.26 L 138.592 85.26 Q 138.61 86.521 139.107 87.216 L 139.107 87.216 L 139.107 87.216 Q 139.605 87.911 140.609 87.897 Z  M 143.794 103.845 L 143.794 103.845 L 143.794 103.845 Q 141.816 103.49 141.068 102.116 L 141.068 102.116 L 141.068 102.116 Q 140.319 100.742 140.705 98.592 L 140.705 98.592 L 141.113 96.321 L 135.784 95.365 L 136.159 93.276 L 149.33 95.639 L 148.551 99.979 L 148.551 99.979 Q 148.161 102.149 146.952 103.172 L 146.952 103.172 L 146.952 103.172 Q 145.742 104.194 143.794 103.845 Z  M 144.2 101.761 L 144.2 101.761 L 144.2 101.761 Q 145.214 101.943 145.84 101.373 L 145.84 101.373 L 145.84 101.373 Q 146.465 100.803 146.67 99.663 L 146.67 99.663 L 147.077 97.392 L 142.99 96.658 L 142.582 98.929 L 142.582 98.929 Q 142.378 100.07 142.766 100.822 L 142.766 100.822 L 142.766 100.822 Q 143.155 101.574 144.2 101.761 Z  M 140.682 119.631 L 138.995 118.742 L 139.444 117.89 L 135.501 112.465 L 132.358 110.811 L 131.36 112.707 L 129.672 111.819 L 132.653 106.157 L 134.341 107.045 L 133.347 108.933 L 136.49 110.587 L 143.188 110.776 L 143.637 109.923 L 145.325 110.811 L 143.362 114.541 L 141.674 113.652 L 142.104 112.836 L 137.827 112.508 L 140.528 115.83 L 140.958 115.013 L 142.645 115.902 L 140.682 119.631 Z  M 132.181 130.8 L 130.683 129.62 L 134.664 124.571 L 131.749 122.273 L 128.644 126.21 L 127.147 125.029 L 130.251 121.092 L 125.654 117.467 L 126.968 115.8 L 137.476 124.085 L 132.181 130.8 Z  M 120.161 140.19 L 118.346 141.443 L 112.45 129.253 L 114.247 128.013 L 118.497 132.094 L 116.171 126.685 L 117.969 125.444 L 127.275 135.28 L 125.46 136.532 L 119.328 129.814 L 121.473 134.637 L 119.802 135.79 L 116.079 132.056 L 120.161 140.19 Z  M 105.332 147.37 L 103.412 142.89 L 105.164 142.138 L 106.334 144.866 L 107.992 144.155 L 104.223 135.362 L 102.272 136.198 L 101.521 134.445 L 107.364 131.94 L 108.115 133.693 L 106.174 134.525 L 109.943 143.318 L 111.621 142.599 L 110.452 139.872 L 112.186 139.129 L 114.106 143.609 L 105.332 147.37 Z  M 89.807 150.021 L 88.895 141.796 L 88.895 141.796 Q 88.615 139.269 89.536 137.758 L 89.536 137.758 L 89.536 137.758 Q 90.457 136.248 92.668 136.003 L 92.668 136.003 L 92.668 136.003 Q 94.442 135.806 95.747 136.601 L 95.747 136.601 L 95.747 136.601 Q 97.052 137.395 97.737 139.2 L 97.737 139.2 L 95.921 140.124 L 95.921 140.124 Q 95.493 138.963 94.751 138.368 L 94.751 138.368 L 94.751 138.368 Q 94.01 137.773 92.878 137.899 L 92.878 137.899 L 92.878 137.899 Q 92.196 137.974 91.788 138.303 L 91.788 138.303 L 91.788 138.303 Q 91.381 138.632 91.184 139.129 L 91.184 139.129 L 91.184 139.129 Q 90.986 139.626 90.958 140.254 L 90.958 140.254 L 90.958 140.254 Q 90.929 140.882 91.004 141.555 L 91.004 141.555 L 91.916 149.787 L 89.807 150.021 Z  M 79.496 144.213 L 75.636 135.965 L 78.105 136.206 L 80.989 142.752 L 81.968 141.797 L 82.473 136.633 L 84.586 136.84 L 83.284 150.157 L 81.171 149.951 L 81.682 144.726 L 77.028 149.546 L 74.313 149.28 L 79.496 144.213 Z  M 59.573 144.566 L 64.413 132.091 L 66.708 132.981 L 66.899 143.46 L 70.407 134.416 L 72.386 135.184 L 67.546 147.659 L 65.061 146.695 L 64.886 136.74 L 61.552 145.334 L 59.573 144.566 Z  M 52.246 127.029 L 53.271 125.421 L 56.955 127.768 L 55.93 129.376 L 55.29 128.969 L 54.849 132.275 L 57.66 130.478 L 57.028 130.076 L 58.053 128.468 L 61.702 130.793 L 60.678 132.401 L 59.7 131.778 L 54.895 134.474 L 54.525 139.825 L 55.338 140.343 L 54.314 141.951 L 50.733 139.67 L 51.758 138.062 L 52.485 138.525 L 52.932 135.284 L 50.167 137.048 L 50.876 137.5 L 49.851 139.108 L 46.254 136.816 L 47.278 135.208 L 48.152 135.764 L 52.837 133.163 L 53.249 127.668 L 52.246 127.029 Z  M 35.291 125.721 L 45.358 116.905 L 46.756 118.502 L 39.945 124.467 L 44.447 122.309 L 45.528 123.543 L 42.782 127.707 L 49.593 121.742 L 50.992 123.339 L 40.925 132.154 L 39.263 130.257 L 42.666 124.96 L 36.966 127.634 L 35.291 125.721 Z  M 27.317 112.847 L 34.857 108.683 L 34.857 108.683 Q 35.853 108.133 36.782 107.907 L 36.782 107.907 L 36.782 107.907 Q 37.712 107.68 38.537 107.828 L 38.537 107.828 L 38.537 107.828 Q 39.362 107.975 40.068 108.511 L 40.068 108.511 L 40.068 108.511 Q 40.774 109.046 41.309 110.016 L 41.309 110.016 L 41.309 110.016 Q 41.85 110.994 41.92 111.863 L 41.92 111.863 L 41.92 111.863 Q 41.99 112.732 41.675 113.509 L 41.675 113.509 L 41.675 113.509 Q 41.36 114.286 40.665 114.957 L 40.665 114.957 L 40.665 114.957 Q 39.97 115.629 38.973 116.179 L 38.973 116.179 L 31.452 120.333 L 30.426 118.475 L 37.972 114.307 L 37.972 114.307 Q 38.412 114.064 38.849 113.741 L 38.849 113.741 L 38.849 113.741 Q 39.286 113.417 39.584 113.001 L 39.584 113.001 L 39.584 113.001 Q 39.881 112.585 39.929 112.067 L 39.929 112.067 L 39.929 112.067 Q 39.977 111.548 39.64 110.938 L 39.64 110.938 L 39.64 110.938 Q 39.308 110.336 38.843 110.101 L 38.843 110.101 L 38.843 110.101 Q 38.379 109.865 37.87 109.877 L 37.87 109.877 L 37.87 109.877 Q 37.36 109.889 36.845 110.092 L 36.845 110.092 L 36.845 110.092 Q 36.33 110.294 35.89 110.537 L 35.89 110.537 L 28.343 114.705 L 27.317 112.847 Z  M 33.781 96.186 L 35.61 95.645 L 37.43 101.8 L 35.601 102.341 L 35.002 100.315 L 25.828 103.028 L 26.427 105.053 L 24.598 105.594 L 22.778 99.439 L 24.607 98.898 L 25.226 100.992 L 34.401 98.28 L 33.781 96.186 Z  M 28.16 81.482 L 28.16 81.482 L 28.16 81.482 Q 29.503 81.463 30.722 81.727 L 30.722 81.727 L 30.722 81.727 Q 31.941 81.991 32.868 82.598 L 32.868 82.598 L 32.868 82.598 Q 33.794 83.205 34.352 84.176 L 34.352 84.176 L 34.352 84.176 Q 34.91 85.147 34.93 86.531 L 34.93 86.531 L 34.994 90.878 L 21.614 91.074 L 21.55 86.727 L 21.55 86.727 Q 21.53 85.363 22.064 84.376 L 22.064 84.376 L 22.064 84.376 Q 22.599 83.389 23.502 82.755 L 23.502 82.755 L 23.502 82.755 Q 24.405 82.122 25.611 81.812 L 25.611 81.812 L 25.611 81.812 Q 26.817 81.502 28.16 81.482 Z  M 28.186 83.605 L 28.186 83.605 L 28.186 83.605 Q 25.866 83.639 24.651 84.446 L 24.651 84.446 L 24.651 84.446 Q 23.436 85.253 23.457 86.699 L 23.457 86.699 L 23.49 88.924 L 33.056 88.784 L 33.023 86.559 L 33.023 86.559 Q 33.002 85.113 31.738 84.342 L 31.738 84.342 L 31.738 84.342 Q 30.474 83.571 28.186 83.605 Z  M 24.123 67.753 L 24.725 65.61 L 36.48 73.245 L 35.826 75.575 L 21.815 75.976 L 22.416 73.834 L 33.47 73.646 L 24.123 67.753 Z  M 37.817 56.922 L 42.184 59.033 L 38.461 66.732 L 36.761 65.91 L 30.738 56.346 L 28.961 60.02 L 31.587 61.289 L 30.756 63.006 L 26.414 60.906 L 30.061 53.364 L 31.787 54.199 L 37.86 63.594 L 39.65 59.892 L 37.001 58.611 L 37.817 56.922 Z  M 44.907 44.183 L 45.173 44.392 L 45.173 44.392 Q 46.244 45.237 47.05 46.218 L 47.05 46.218 L 47.05 46.218 Q 47.856 47.2 48.221 48.277 L 48.221 48.277 L 48.221 48.277 Q 48.585 49.355 48.426 50.476 L 48.426 50.476 L 48.426 50.476 Q 48.267 51.597 47.397 52.7 L 47.397 52.7 L 47.397 52.7 Q 46.528 53.803 45.471 54.208 L 45.471 54.208 L 45.471 54.208 Q 44.413 54.614 43.278 54.513 L 43.278 54.513 L 43.278 54.513 Q 42.143 54.412 40.992 53.852 L 40.992 53.852 L 40.992 53.852 Q 39.84 53.292 38.786 52.461 L 38.786 52.461 L 38.786 52.461 Q 37.731 51.629 36.917 50.641 L 36.917 50.641 L 36.917 50.641 Q 36.103 49.653 35.73 48.568 L 35.73 48.568 L 35.73 48.568 Q 35.358 47.484 35.507 46.359 L 35.507 46.359 L 35.507 46.359 Q 35.656 45.234 36.527 44.13 L 36.527 44.13 L 36.527 44.13 Q 36.775 43.815 37.124 43.554 L 37.124 43.554 L 37.124 43.554 Q 37.473 43.294 37.889 43.138 L 37.889 43.138 L 37.889 43.138 Q 38.306 42.983 38.753 42.962 L 38.753 42.962 L 38.753 42.962 Q 39.2 42.942 39.622 43.118 L 39.622 43.118 L 38.382 42.141 L 39.563 40.643 L 43.291 43.582 L 42.11 45.08 L 42.11 45.08 Q 41.619 44.693 41.06 44.5 L 41.06 44.5 L 41.06 44.5 Q 40.5 44.307 39.948 44.328 L 39.948 44.328 L 39.948 44.328 Q 39.396 44.35 38.895 44.595 L 38.895 44.595 L 38.895 44.595 Q 38.395 44.841 38.027 45.308 L 38.027 45.308 L 38.027 45.308 Q 37.468 46.016 37.467 46.747 L 37.467 46.747 L 37.467 46.747 Q 37.466 47.477 37.815 48.196 L 37.815 48.196 L 37.815 48.196 Q 38.163 48.915 38.779 49.576 L 38.779 49.576 L 38.779 49.576 Q 39.394 50.238 40.104 50.797 L 40.104 50.797 L 40.104 50.797 Q 40.813 51.356 41.6 51.801 L 41.6 51.801 L 41.6 51.801 Q 42.386 52.245 43.156 52.422 L 43.156 52.422 L 43.156 52.422 Q 43.925 52.598 44.633 52.413 L 44.633 52.413 L 44.633 52.413 Q 45.341 52.228 45.9 51.519 L 45.9 51.519 L 45.9 51.519 Q 46.706 50.497 46.547 49.353 L 46.547 49.353 L 46.547 49.353 Q 46.387 48.209 45.198 46.893 L 45.198 46.893 L 43.453 49.107 L 41.955 47.927 L 44.907 44.183 Z " fill-rule="evenodd" fill="rgb(0,0,0)"/></g><g><path d=" M 38.93 27.931 C 37.717 26.444 37.556 24.565 38.571 23.736 C 39.587 22.908 41.396 23.443 42.609 24.93 C 43.822 26.417 43.982 28.297 42.967 29.125 C 41.952 29.953 40.143 29.418 38.93 27.931 Z " fill="none" vector-effect="non-scaling-stroke" stroke-width="1" stroke="rgb(0,0,0)" stroke-linejoin="miter" stroke-linecap="square" stroke-miterlimit="3"/><path d=" M 44.343 23.758 C 43.38 22.098 43.517 20.217 44.65 19.559 C 45.783 18.901 47.486 19.714 48.449 21.373 C 49.413 23.033 49.275 24.914 48.142 25.572 C 47.009 26.23 45.307 25.417 44.343 23.758 Z " fill="none" vector-effect="non-scaling-stroke" stroke-width="1" stroke="rgb(0,0,0)" stroke-linejoin="miter" stroke-linecap="square" stroke-miterlimit="3"/><path d=" M 53.914 18.73 C 53.25 16.929 53.709 15.099 54.938 14.646 C 56.167 14.193 57.705 15.286 58.369 17.087 C 59.033 18.887 58.574 20.717 57.345 21.17 C 56.115 21.624 54.578 20.53 53.914 18.73 Z " fill="none" vector-effect="non-scaling-stroke" stroke-width="1" stroke="rgb(0,0,0)" stroke-linejoin="miter" stroke-linecap="square" stroke-miterlimit="3"/><path d=" M 70.114 13.549 C 69.71 11.673 70.423 9.926 71.703 9.651 C 72.984 9.375 74.352 10.675 74.756 12.551 C 75.159 14.427 74.447 16.174 73.166 16.449 C 71.885 16.725 70.517 15.425 70.114 13.549 Z " fill="none" vector-effect="non-scaling-stroke" stroke-width="1" stroke="rgb(0,0,0)" stroke-linejoin="miter" stroke-linecap="square" stroke-miterlimit="3"/><path d=" M 70.114 13.549 C 69.71 11.673 70.423 9.926 71.703 9.651 C 72.984 9.375 74.352 10.675 74.756 12.551 C 75.159 14.427 74.447 16.174 73.166 16.449 C 71.885 16.725 70.517 15.425 70.114 13.549 Z " fill="none" vector-effect="non-scaling-stroke" stroke-width="1" stroke="rgb(0,0,0)" stroke-linejoin="miter" stroke-linecap="square" stroke-miterlimit="3"/><path d=" M 88.821 12.082 C 89.029 10.175 90.256 8.741 91.558 8.884 C 92.861 9.026 93.749 10.69 93.541 12.598 C 93.332 14.505 92.106 15.939 90.803 15.796 C 89.501 15.654 88.612 13.99 88.821 12.082 Z " fill="none" vector-effect="non-scaling-stroke" stroke-width="1" stroke="rgb(0,0,0)" stroke-linejoin="miter" stroke-linecap="square" stroke-miterlimit="3"/><path d=" M 106.752 15.315 C 107.149 13.438 108.512 12.133 109.794 12.404 C 111.076 12.675 111.794 14.42 111.397 16.297 C 111 18.174 109.637 19.479 108.355 19.208 C 107.074 18.937 106.355 17.192 106.752 15.315 Z " fill="none" vector-effect="non-scaling-stroke" stroke-width="1" stroke="rgb(0,0,0)" stroke-linejoin="miter" stroke-linecap="square" stroke-miterlimit="3"/><path d=" M 123.602 22.031 C 124.723 20.473 126.496 19.83 127.56 20.595 C 128.623 21.36 128.577 23.246 127.456 24.804 C 126.336 26.362 124.562 27.005 123.499 26.24 C 122.435 25.475 122.481 23.589 123.602 22.031 Z " fill="none" vector-effect="non-scaling-stroke" stroke-width="1" stroke="rgb(0,0,0)" stroke-linejoin="miter" stroke-linecap="square" stroke-miterlimit="3"/><path d=" M 138.125 33.343 C 139.556 32.064 141.426 31.818 142.3 32.795 C 143.173 33.772 142.72 35.603 141.29 36.882 C 139.859 38.161 137.989 38.407 137.116 37.43 C 136.242 36.453 136.695 34.622 138.125 33.343 Z " fill="none" vector-effect="non-scaling-stroke" stroke-width="1" stroke="rgb(0,0,0)" stroke-linejoin="miter" stroke-linecap="square" stroke-miterlimit="3"/><path d=" M 148.751 47.584 C 150.354 46.529 152.24 46.561 152.96 47.655 C 153.681 48.749 152.965 50.494 151.362 51.55 C 149.76 52.605 147.873 52.574 147.153 51.479 C 146.432 50.385 147.148 48.64 148.751 47.584 Z " fill="none" vector-effect="non-scaling-stroke" stroke-width="1" stroke="rgb(0,0,0)" stroke-linejoin="miter" stroke-linecap="square" stroke-miterlimit="3"/><path d=" M 155.409 62.957 C 157.291 62.58 159.028 63.318 159.285 64.602 C 159.542 65.887 158.223 67.236 156.341 67.613 C 154.46 67.989 152.723 67.252 152.466 65.967 C 152.209 64.683 153.528 63.334 155.409 62.957 Z " fill="none" vector-effect="non-scaling-stroke" stroke-width="1" stroke="rgb(0,0,0)" stroke-linejoin="miter" stroke-linecap="square" stroke-miterlimit="3"/><path d=" M 158.7 80.328 C 160.618 80.284 162.2 81.311 162.231 82.621 C 162.261 83.931 160.728 85.03 158.81 85.075 C 156.891 85.119 155.309 84.092 155.279 82.782 C 155.249 81.472 156.781 80.372 158.7 80.328 Z " fill="none" vector-effect="non-scaling-stroke" stroke-width="1" stroke="rgb(0,0,0)" stroke-linejoin="miter" stroke-linecap="square" stroke-miterlimit="3"/><path d=" M 158.153 103.735 C 159.925 104.473 160.954 106.054 160.451 107.264 C 159.947 108.473 158.1 108.856 156.328 108.118 C 154.557 107.381 153.527 105.8 154.031 104.59 C 154.535 103.381 156.382 102.998 158.153 103.735 Z " fill="none" vector-effect="non-scaling-stroke" stroke-width="1" stroke="rgb(0,0,0)" stroke-linejoin="miter" stroke-linecap="square" stroke-miterlimit="3"/><path d=" M 19.954 120.248 C 18.248 121.125 16.376 120.891 15.777 119.726 C 15.178 118.561 16.077 116.902 17.784 116.025 C 19.491 115.148 21.362 115.382 21.961 116.547 C 22.56 117.712 21.661 119.37 19.954 120.248 Z " fill="none" vector-effect="non-scaling-stroke" stroke-width="1" stroke="rgb(0,0,0)" stroke-linejoin="miter" stroke-linecap="square" stroke-miterlimit="3"/><path d=" M 63.384 19.331 L 61.116 12.42 L 60.144 13.824" fill="none" vector-effect="non-scaling-stroke" stroke-width="1" stroke="rgb(0,0,0)" stroke-linejoin="miter" stroke-linecap="square" stroke-miterlimit="3"/><path d=" M 16.647 100.322 L 9.537 101.854 L 10.831 102.967" fill="none" vector-effect="non-scaling-stroke" stroke-width="1" stroke="rgb(0,0,0)" stroke-linejoin="miter" stroke-linecap="square" stroke-miterlimit="3"/><path d=" M 154.96 99.186 L 161.806 101.641 L 161.295 100.012" fill="none" vector-effect="non-scaling-stroke" stroke-width="1" stroke="rgb(0,0,0)" stroke-linejoin="miter" stroke-linecap="square" stroke-miterlimit="3"/><path d=" M 148.893 115.779 L 155.278 119.261 L 155.025 117.572" fill="none" vector-effect="non-scaling-stroke" stroke-width="1" stroke="rgb(0,0,0)" stroke-linejoin="miter" stroke-linecap="square" stroke-miterlimit="3"/><path d=" M 146.506 120.122 L 152.434 124.337 L 152.383 122.63" fill="none" vector-effect="non-scaling-stroke" stroke-width="1" stroke="rgb(0,0,0)" stroke-linejoin="miter" stroke-linecap="square" stroke-miterlimit="3"/><path d=" M 140.93 128.753 L 146.376 133.574 L 146.506 131.872" fill="none" vector-effect="non-scaling-stroke" stroke-width="1" stroke="rgb(0,0,0)" stroke-linejoin="miter" stroke-linecap="square" stroke-miterlimit="3"/><path d=" M 128.229 140.502 L 132.158 146.623 L 132.746 145.02" fill="none" vector-effect="non-scaling-stroke" stroke-width="1" stroke="rgb(0,0,0)" stroke-linejoin="miter" stroke-linecap="square" stroke-miterlimit="3"/><path d=" M 113.32 149.109 L 115.545 156.033 L 116.526 154.635" fill="none" vector-effect="non-scaling-stroke" stroke-width="1" stroke="rgb(0,0,0)" stroke-linejoin="miter" stroke-linecap="square" stroke-miterlimit="3"/><path d=" M 95.899 155.013 L 97.824 162.027 L 98.863 160.672" fill="none" vector-effect="non-scaling-stroke" stroke-width="1" stroke="rgb(0,0,0)" stroke-linejoin="miter" stroke-linecap="square" stroke-miterlimit="3"/><path d=" M 79.968 155.839 L 79.447 163.093 L 80.878 162.162" fill="none" vector-effect="non-scaling-stroke" stroke-width="1" stroke="rgb(0,0,0)" stroke-linejoin="miter" stroke-linecap="square" stroke-miterlimit="3"/><path d=" M 62.801 152.494 L 60.727 159.466 L 62.326 158.866" fill="none" vector-effect="non-scaling-stroke" stroke-width="1" stroke="rgb(0,0,0)" stroke-linejoin="miter" stroke-linecap="square" stroke-miterlimit="3"/><path d=" M 48.307 145.62 L 44.219 151.635 L 45.924 151.548" fill="none" vector-effect="non-scaling-stroke" stroke-width="1" stroke="rgb(0,0,0)" stroke-linejoin="miter" stroke-linecap="square" stroke-miterlimit="3"/><path d=" M 35.079 134.872 L 29.698 139.764 L 31.376 140.078" fill="none" vector-effect="non-scaling-stroke" stroke-width="1" stroke="rgb(0,0,0)" stroke-linejoin="miter" stroke-linecap="square" stroke-miterlimit="3"/><path d=" M 77.097 10.615 C 77.057 10.292 77.221 9.805 77.56 9.124 C 78.416 8.451 79.318 8.358 80.234 8.815 C 80.644 9.296 80.938 9.796 81.056 10.255 C 81.049 10.926 81.12 11.419 80.789 11.643 C 79.546 12.688 78.599 13.606 77.92 14.369 C 77.391 15.075 77.261 15.463 77.232 16.084 L 81.879 15.637" fill="none" vector-effect="non-scaling-stroke" stroke-width="1" stroke="rgb(0,0,0)" stroke-linejoin="miter" stroke-linecap="square" stroke-miterlimit="3"/><path d=" M 143.012 134.992 C 143.266 135.196 143.487 135.66 143.718 136.385 C 143.573 137.464 142.991 138.159 142.015 138.469 C 141.386 138.41 140.826 138.256 140.422 138.009 C 139.96 137.523 139.565 137.219 139.646 136.827 C 139.811 135.211 139.85 133.893 139.806 132.873 C 139.694 131.998 139.517 131.629 139.105 131.163 L 136.082 134.721" fill="none" vector-effect="non-scaling-stroke" stroke-width="1" stroke="rgb(0,0,0)" stroke-linejoin="miter" stroke-linecap="square" stroke-miterlimit="3"/><path d=" M 21.674 127.381 C 21.4 127.557 20.89 127.621 20.129 127.611 C 19.151 127.132 18.676 126.36 18.691 125.336 C 18.946 124.758 19.268 124.276 19.631 123.97 C 20.238 123.686 20.651 123.407 20.997 123.608 C 22.478 124.275 23.716 124.729 24.698 125.01 C 25.564 125.181 25.969 125.129 26.541 124.885 L 24.122 120.893" fill="none" vector-effect="non-scaling-stroke" stroke-width="1" stroke="rgb(0,0,0)" stroke-linejoin="miter" stroke-linecap="square" stroke-miterlimit="3"/><path d=" M 13.281 109.235 C 12.971 109.336 12.462 109.267 11.729 109.063 C 10.906 108.35 10.643 107.483 10.919 106.497 C 11.313 106.003 11.748 105.619 12.176 105.416 C 12.836 105.296 13.306 105.132 13.59 105.415 C 14.851 106.437 15.932 107.192 16.81 107.714 C 17.604 108.1 18.009 108.153 18.624 108.064 L 17.304 103.586" fill="none" vector-effect="non-scaling-stroke" stroke-width="1" stroke="rgb(0,0,0)" stroke-linejoin="miter" stroke-linecap="square" stroke-miterlimit="3"/><path d=" M 10.132 92.629 C 9.811 92.682 9.318 92.537 8.624 92.225 C 7.918 91.395 7.791 90.498 8.212 89.565 C 8.677 89.136 9.165 88.823 9.619 88.687 C 10.29 88.668 10.779 88.578 11.017 88.9 C 12.108 90.102 13.063 91.012 13.851 91.662 C 14.577 92.163 14.97 92.277 15.591 92.283 L 14.965 87.656" fill="none" vector-effect="non-scaling-stroke" stroke-width="1" stroke="rgb(0,0,0)" stroke-linejoin="miter" stroke-linecap="square" stroke-miterlimit="3"/><path d=" M 9.254 85.495 C 8.929 85.513 8.455 85.314 7.8 84.928 C 7.188 84.027 7.159 83.121 7.68 82.24 C 8.188 81.864 8.708 81.606 9.174 81.52 C 9.842 81.575 10.339 81.538 10.54 81.884 C 11.494 83.198 12.344 84.207 13.057 84.939 C 13.724 85.516 14.102 85.672 14.719 85.745 L 14.601 81.078" fill="none" vector-effect="non-scaling-stroke" stroke-width="1" stroke="rgb(0,0,0)" stroke-linejoin="miter" stroke-linecap="square" stroke-miterlimit="3"/><path d=" M 10.301 73.732 C 9.983 73.661 9.581 73.341 9.055 72.791 C 8.712 71.757 8.93 70.878 9.671 70.171 C 10.263 69.948 10.833 69.841 11.305 69.886 C 11.933 70.12 12.421 70.22 12.52 70.608 C 13.081 72.132 13.624 73.333 14.111 74.231 C 14.596 74.969 14.917 75.222 15.491 75.46 L 16.647 70.937" fill="none" vector-effect="non-scaling-stroke" stroke-width="1" stroke="rgb(0,0,0)" stroke-linejoin="miter" stroke-linecap="square" stroke-miterlimit="3"/><path d=" M 15.695 55.273 C 15.403 55.128 15.088 54.722 14.709 54.063 C 14.622 52.977 15.043 52.175 15.931 51.665 C 16.559 51.589 17.138 51.621 17.586 51.776 C 18.14 52.154 18.59 52.367 18.594 52.767 C 18.776 54.381 19.017 55.677 19.276 56.665 C 19.572 57.497 19.823 57.819 20.324 58.187 L 22.524 54.069" fill="none" vector-effect="non-scaling-stroke" stroke-width="1" stroke="rgb(0,0,0)" stroke-linejoin="miter" stroke-linecap="square" stroke-miterlimit="3"/><path d=" M 25.415 38.987 C 25.15 38.798 24.903 38.347 24.632 37.636 C 24.718 36.55 25.26 35.824 26.217 35.461 C 26.849 35.485 27.416 35.607 27.834 35.832 C 28.322 36.292 28.732 36.573 28.673 36.969 C 28.598 38.591 28.632 39.91 28.732 40.926 C 28.893 41.794 29.09 42.152 29.527 42.594 L 32.348 38.875" fill="none" vector-effect="non-scaling-stroke" stroke-width="1" stroke="rgb(0,0,0)" stroke-linejoin="miter" stroke-linecap="square" stroke-miterlimit="3"/><path d=" M 134.526 26.1 L 132.186 23.948 L 129.218 26.411 L 130.59 27.029 L 131.458 27.626 L 131.989 28.368 L 131.993 29.305 L 131.469 30.388 L 130.84 30.799 L 129.647 31.165 L 128.659 31.049 L 127.866 30.404 L 127.383 29.613 L 127.186 28.677" fill="none" vector-effect="non-scaling-stroke" stroke-width="1" stroke="rgb(0,0,0)" stroke-linejoin="miter" stroke-linecap="square" stroke-miterlimit="3"/><path d=" M 30.967 30.275 L 28.767 32.569 L 31.168 35.588 L 31.815 34.229 L 32.429 33.375 L 33.183 32.859 L 34.119 32.874 L 35.191 33.42 L 35.589 34.058 L 35.93 35.258 L 35.793 36.244 L 35.132 37.023 L 34.331 37.49 L 33.391 37.667" fill="none" vector-effect="non-scaling-stroke" stroke-width="1" stroke="rgb(0,0,0)" stroke-linejoin="miter" stroke-linecap="square" stroke-miterlimit="3"/><path d=" M 90.664 163.566 L 93.821 163.199 L 93.893 159.343 L 92.529 159.978 L 91.511 160.245 L 90.601 160.163 L 89.889 159.554 L 89.411 158.45 L 89.511 157.705 L 90.013 156.563 L 90.746 155.89 L 91.752 155.711 L 92.666 155.861 L 93.503 156.324" fill="none" vector-effect="non-scaling-stroke" stroke-width="1" stroke="rgb(0,0,0)" stroke-linejoin="miter" stroke-linecap="square" stroke-miterlimit="3"/><path d=" M 96.47 10.615 L 97.045 9.798 C 97.361 9.692 97.729 9.597 98.119 9.482 C 98.631 9.533 99.051 9.648 99.35 9.798 L 100.013 10.615 L 100.265 11.643 L 100.013 12.42 L 99.034 12.796 L 97.66 12.796 L 99.034 13.428 L 99.697 14.369 L 99.697 15.164 L 99.35 16.084 L 98.497 16.805 L 97.66 16.805 L 96.47 16.458 L 95.625 15.858 L 95.372 14.943 L 95.372 14.369" fill="none" vector-effect="non-scaling-stroke" stroke-width="1" stroke="rgb(0,0,0)" stroke-linejoin="miter" stroke-linecap="square" stroke-miterlimit="3"/><path d=" M 128.154 147.686 L 128.229 148.682 C 128.052 148.964 127.829 149.271 127.601 149.608 C 127.173 149.894 126.775 150.072 126.449 150.146 L 125.418 149.936 L 124.57 149.302 L 124.272 148.542 L 124.788 147.63 L 125.849 146.757 L 124.387 147.142 L 123.278 146.836 L 122.772 146.222 L 122.456 145.291 L 122.656 144.192 L 123.303 143.661 L 124.442 143.173 L 125.476 143.099 L 126.253 143.645 L 126.618 144.089" fill="none" vector-effect="non-scaling-stroke" stroke-width="1" stroke="rgb(0,0,0)" stroke-linejoin="miter" stroke-linecap="square" stroke-miterlimit="3"/><path d=" M 11.757 67.064 L 11.008 66.402 C 10.939 66.077 10.885 65.701 10.813 65.301 C 10.921 64.797 11.082 64.392 11.263 64.112 L 12.149 63.544 L 13.199 63.407 L 13.943 63.744 L 14.209 64.758 L 14.057 66.123 L 14.836 64.828 L 15.845 64.273 L 16.635 64.361 L 17.511 64.808 L 18.134 65.735 L 18.041 66.567 L 17.564 67.711 L 16.875 68.485 L 15.937 68.635 L 15.366 68.572" fill="none" vector-effect="non-scaling-stroke" stroke-width="1" stroke="rgb(0,0,0)" stroke-linejoin="miter" stroke-linecap="square" stroke-miterlimit="3"/><path d=" M 115.232 22.641 L 118.232 15.637 L 112.919 19.331 L 117.075 20.891" fill="none" vector-effect="non-scaling-stroke" stroke-width="1" stroke="rgb(0,0,0)" stroke-linejoin="miter" stroke-linecap="square" stroke-miterlimit="3"/><path d=" M 108.652 151.901 L 111.393 159.01 L 112.618 152.657 L 108.553 154.441" fill="none" vector-effect="non-scaling-stroke" stroke-width="1" stroke="rgb(0,0,0)" stroke-linejoin="miter" stroke-linecap="square" stroke-miterlimit="3"/><path d=" M 25.429 49.74 L 18.742 46.089 L 21.915 51.728 L 23.862 47.738" fill="none" vector-effect="non-scaling-stroke" stroke-width="1" stroke="rgb(0,0,0)" stroke-linejoin="miter" stroke-linecap="square" stroke-miterlimit="3"/><path d=" M 147.893 39.878 L 147.107 38.232 L 145.77 37.667 L 143.302 38.232 L 141.015 39.878 L 140.576 41.163 L 140.576 41.986 L 141.348 43.323 L 142.325 43.734 L 143.764 43.734 L 144.947 42.654 L 144.947 41.163 L 144.227 39.878 L 143.302 39.466" fill="none" vector-effect="non-scaling-stroke" stroke-width="1" stroke="rgb(0,0,0)" stroke-linejoin="miter" stroke-linecap="square" stroke-miterlimit="3"/><path d=" M 72.816 162.43 L 74.596 162.83 L 75.867 162.129 L 76.949 159.84 L 77.071 157.025 L 76.332 155.886 L 75.686 155.377 L 74.158 155.156 L 73.231 155.669 L 72.34 156.8 L 72.457 158.397 L 73.629 159.32 L 75.084 159.549 L 75.98 159.077" fill="none" vector-effect="non-scaling-stroke" stroke-width="1" stroke="rgb(0,0,0)" stroke-linejoin="miter" stroke-linecap="square" stroke-miterlimit="3"/><path d=" M 149.321 55.665 C 152.198 54.819 153.691 54.963 156.445 55.799 L 154.288 50.934" fill="none" vector-effect="non-scaling-stroke" stroke-width="1" stroke="rgb(0,0,0)" stroke-linejoin="miter" stroke-linecap="square" stroke-miterlimit="3"/><path d=" M 58.824 151.548 C 57.159 154.041 55.769 155.242 53.12 156.366 L 57.894 158.716" fill="none" vector-effect="non-scaling-stroke" stroke-width="1" stroke="rgb(0,0,0)" stroke-linejoin="miter" stroke-linecap="square" stroke-miterlimit="3"/><g><path d=" M 157.947 70.975 C 157.758 69.909 158.372 68.908 159.317 68.741 C 160.262 68.575 161.182 69.304 161.37 70.37 C 161.558 71.436 160.944 72.437 159.999 72.604 C 159.055 72.771 158.135 72.041 157.947 70.975 Z " fill="none" vector-effect="non-scaling-stroke" stroke-width="1" stroke="rgb(0,0,0)" stroke-linejoin="miter" stroke-linecap="square" stroke-miterlimit="3"/><path d=" M 153.941 71.861 C 153.725 70.64 154.455 69.489 155.568 69.293 C 156.682 69.096 157.761 69.927 157.977 71.148 C 158.193 72.369 157.464 73.52 156.35 73.716 C 155.236 73.913 154.157 73.082 153.941 71.861 Z " fill="none" vector-effect="non-scaling-stroke" stroke-width="1" stroke="rgb(0,0,0)" stroke-linejoin="miter" stroke-linecap="square" stroke-miterlimit="3"/></g><g><path d=" M 41.851 146.441 C 42.749 147.046 43.042 148.183 42.506 148.978 C 41.969 149.774 40.805 149.928 39.908 149.323 C 39.011 148.718 38.717 147.581 39.254 146.786 C 39.79 145.99 40.954 145.836 41.851 146.441 Z " fill="none" vector-effect="non-scaling-stroke" stroke-width="1" stroke="rgb(0,0,0)" stroke-linejoin="miter" stroke-linecap="square" stroke-miterlimit="3"/><path d=" M 43.997 142.944 C 45.025 143.637 45.346 144.961 44.714 145.899 C 44.081 146.837 42.734 147.035 41.706 146.342 C 40.678 145.649 40.357 144.325 40.989 143.388 C 41.621 142.45 42.969 142.251 43.997 142.944 Z " fill="none" vector-effect="non-scaling-stroke" stroke-width="1" stroke="rgb(0,0,0)" stroke-linejoin="miter" stroke-linecap="square" stroke-miterlimit="3"/></g><path d=" M 155.69 86.856 L 155.278 87.933 L 155.278 88.897 L 155.944 89.917 L 157.829 90.881 L 159.984 90.881 L 161.457 90.881 L 162.761 89.464 L 162.471 87.648 L 161.457 86.856 L 160.375 86.493 L 159.247 86.856 L 158.51 87.933 L 158.51 88.897 L 159.247 89.917" fill="none" vector-effect="non-scaling-stroke" stroke-width="1" stroke="rgb(0,0,0)" stroke-linejoin="miter" stroke-linecap="square" stroke-miterlimit="3"/><path d=" M 32.886 133.022 L 32.493 131.937 L 31.862 131.209 L 30.691 130.873 L 28.635 131.378 L 27.006 132.788 L 25.892 133.752 L 25.833 135.677 L 27.241 136.86 L 28.525 136.796 L 29.581 136.362 L 30.197 135.349 L 30.05 134.052 L 29.419 133.323 L 28.194 133.034" fill="none" vector-effect="non-scaling-stroke" stroke-width="1" stroke="rgb(0,0,0)" stroke-linejoin="miter" stroke-linecap="square" stroke-miterlimit="3"/></g></g></svg>